<?xml version="1.0" encoding="UTF-8"?>
<svg version="1.1" xmlns="http://www.w3.org/2000/svg" width="503" height="496">
<path d="M0 0 C2.69943764 1.37006123 5.33346146 2.81936237 7.96289062 4.31933594 C9.39797974 5.12177734 9.39797974 5.12177734 10.86206055 5.94042969 C25.67420248 14.31632123 39.61714363 23.92498288 53.40039062 33.88183594 C54.03009766 34.33429688 54.65980469 34.78675781 55.30859375 35.25292969 C57.0329428 36.49593638 58.74953612 37.74873309 60.46289062 39.00683594 C61.42324219 39.71066406 62.38359375 40.41449219 63.37304688 41.13964844 C64.04207031 41.71457031 64.71109375 42.28949219 65.40039062 42.88183594 C65.40039062 43.54183594 65.40039062 44.20183594 65.40039062 44.88183594 C66.20283203 45.20861328 66.20283203 45.20861328 67.02148438 45.54199219 C70.24713161 47.35873603 72.78738217 49.79509157 75.46289062 52.31933594 C76.30920044 53.11090088 76.30920044 53.11090088 77.17260742 53.91845703 C89.43512149 65.44772736 89.43512149 65.44772736 93.40039062 69.88183594 C93.40039062 70.54183594 93.40039062 71.20183594 93.40039062 71.88183594 C94.06039062 71.88183594 94.72039062 71.88183594 95.40039062 71.88183594 C95.40039062 72.54183594 95.40039062 73.20183594 95.40039062 73.88183594 C96.06039062 73.88183594 96.72039062 73.88183594 97.40039062 73.88183594 C98.81477468 75.45470278 100.15643463 77.09323589 101.46289062 78.75683594 C104.4649343 82.51537546 107.51210138 86.16057587 110.77539062 89.69433594 C130.27577479 111.18869353 146.69590617 136.37444622 160.40039062 161.88183594 C161.0482296 163.06185223 161.69669783 164.24152322 162.34570312 165.42089844 C166.26097528 172.58343867 169.75717517 179.77600175 172.89257812 187.32324219 C175.0517389 192.41908537 177.41959705 197.40746975 179.78710938 202.40917969 C181.39705766 205.87466159 182.91270472 209.36262728 184.40039062 212.88183594 C201.97934021 191.92231912 211.60120639 166.00972994 218.40039062 139.88183594 C218.71878906 138.68945312 219.0371875 137.49707031 219.36523438 136.26855469 C226.15293375 109.15152685 225.52905027 78.90999497 218.98632812 51.79980469 C218.4373156 49.06572232 218.28742831 46.65968185 218.40039062 43.88183594 C219.39039063 43.55183594 220.38039063 43.22183594 221.40039062 42.88183594 C224.45559986 50.0645535 226.8312937 57.29710507 228.90039062 64.81933594 C229.20227295 65.90964111 229.50415527 66.99994629 229.81518555 68.12329102 C236.7222018 93.46508731 239.59924667 118.40878008 239.53076172 144.63061523 C239.52537077 147.07835002 239.53076621 149.52590328 239.53710938 151.97363281 C239.5446012 165.3616954 238.88583211 178.48006549 236.58789062 191.69433594 C236.4090332 192.73348145 236.23017578 193.77262695 236.04589844 194.84326172 C232.14264754 217.03828503 226.10417525 239.06955093 217.40039062 259.88183594 C216.81114798 261.34639785 216.22266989 262.8112675 215.63476562 264.27636719 C206.68209181 286.33654687 194.91194188 306.25394335 180.59277344 325.23828125 C179.39348492 326.89135462 178.29803263 328.586815 177.20507812 330.31152344 C176.60953125 331.15972656 176.01398438 332.00792969 175.40039062 332.88183594 C174.74039063 332.88183594 174.08039063 332.88183594 173.40039062 332.88183594 C173.16320312 333.42324219 172.92601562 333.96464844 172.68164062 334.52246094 C171.05691306 337.51433731 169.05020293 339.99342993 166.90039062 342.63183594 C166.10632813 343.61667969 165.31226563 344.60152344 164.49414062 345.61621094 C163.80320312 346.36386719 163.11226562 347.11152344 162.40039062 347.88183594 C161.74039063 347.88183594 161.08039063 347.88183594 160.40039062 347.88183594 C160.40039062 348.54183594 160.40039062 349.20183594 160.40039062 349.88183594 C159.74039063 349.88183594 159.08039063 349.88183594 158.40039062 349.88183594 C158.40039062 350.54183594 158.40039062 351.20183594 158.40039062 351.88183594 C157.74039063 351.88183594 157.08039063 351.88183594 156.40039062 351.88183594 C156.40039062 352.54183594 156.40039062 353.20183594 156.40039062 353.88183594 C155.74039063 353.88183594 155.08039063 353.88183594 154.40039062 353.88183594 C154.40039062 354.54183594 154.40039062 355.20183594 154.40039062 355.88183594 C153.14257813 357.18652344 153.14257813 357.18652344 151.27539062 358.75683594 C150.54449219 359.37558594 149.81359375 359.99433594 149.06054688 360.63183594 C148.18269531 361.37433594 147.30484375 362.11683594 146.40039062 362.88183594 C145.33496777 363.8174936 144.27127004 364.75511803 143.20898438 365.69433594 C126.46518604 380.42602441 111.5875801 389.96428459 88.40039062 388.88183594 C78.64759152 387.72472418 70.03345084 381.87796892 63.40039062 374.88183594 C55.94328262 365.40750581 54.38068223 356.87309039 55.40039062 344.88183594 C56.22975972 341.73817942 57.45834956 339.47313926 59.40039062 336.88183594 C59.89796875 336.20765625 60.39554687 335.53347656 60.90820312 334.83886719 C67.36603737 326.83415637 76.00632048 322.3202708 85.21289062 318.06933594 C86.11797363 317.64410645 87.02305664 317.21887695 87.95556641 316.78076172 C93.36086238 314.25291652 98.79795977 311.80119401 104.2512207 309.37890625 C134.62819101 295.93209924 134.62819101 295.93209924 153.49023438 269.67871094 C159.6052548 250.88748937 154.12343096 230.84404692 145.57226562 213.82714844 C143.10154563 209.16698349 140.15043553 205.01891173 136.86914062 200.88574219 C135.40039062 198.88183594 135.40039062 198.88183594 135.40039062 196.88183594 C134.74039063 196.88183594 134.08039063 196.88183594 133.40039062 196.88183594 C131.45507813 194.76464844 131.45507813 194.76464844 129.27539062 192.00683594 C128.5509375 191.10191406 127.82648438 190.19699219 127.08007812 189.26464844 C125.40039062 186.88183594 125.40039062 186.88183594 125.40039062 184.88183594 C124.74039063 184.88183594 124.08039063 184.88183594 123.40039062 184.88183594 C121.96386719 183.4284668 121.96386719 183.4284668 120.29101562 181.40917969 C110.76819687 170.21962145 100.07271094 159.80214577 88.40039062 150.88183594 C87.20943024 149.94020953 86.01939378 148.99741385 84.83007812 148.05371094 C76.29710168 141.34381302 67.48437509 135.06991063 58.52539062 128.94433594 C56.97537354 127.87989258 56.97537354 127.87989258 55.39404297 126.79394531 C48.91754335 122.40781038 42.30733589 118.54345923 35.40039062 114.88183594 C33.3935586 113.72696091 31.39193968 112.56287085 29.40039062 111.38183594 C16.26621546 103.69926605 2.77056197 96.84034167 -11.24023438 90.88964844 C-12.32848511 90.42643188 -12.32848511 90.42643188 -13.4387207 89.95385742 C-14.79661436 89.38147246 -16.15825775 88.81786968 -17.52416992 88.26489258 C-21.29617087 86.68183512 -24.02296809 85.09000695 -26.59960938 81.88183594 C-27.16210938 78.94433594 -27.16210938 78.94433594 -26.59960938 75.88183594 C-24.46610317 73.13875653 -22.77428779 71.35303462 -19.52539062 70.04980469 C-14.9728893 69.78844613 -11.2037464 71.43694387 -6.97460938 73.00683594 C-5.63209106 73.48854248 -5.63209106 73.48854248 -4.26245117 73.97998047 C0.46632726 75.70257931 5.05365591 77.56389169 9.58789062 79.75683594 C14.25199727 82.00771019 18.23980034 82.62803642 23.40039062 82.88183594 C23.40039062 80.57183594 23.40039062 78.26183594 23.40039062 75.88183594 C22.74039063 75.88183594 22.08039063 75.88183594 21.40039062 75.88183594 C18.3710385 73.09354632 15.88470189 70.07836965 14.33789062 66.25683594 C14.42923607 62.78570895 15.96120917 60.32101739 18.40039062 57.88183594 C22.08091649 57.26841496 24.21752555 57.19257245 27.47851562 59.09277344 C31.91833592 62.49450625 35.94179009 66.31674612 40.02539062 70.13183594 C44.00224302 73.79634088 47.17082174 76.43535944 52.40039062 77.88183594 C53.06039062 77.55183594 53.72039062 77.22183594 54.40039062 76.88183594 C54.99058908 74.19849264 54.99058908 74.19849264 54.40039062 70.88183594 C52.39115846 68.06845007 49.92325026 65.79554015 47.40039062 63.44433594 C46.70631104 62.77619873 46.01223145 62.10806152 45.29711914 61.41967773 C40.78352113 57.09995097 36.18538315 52.89875771 31.40039062 48.88183594 C30.41296875 48.016875 29.42554688 47.15191406 28.40820312 46.26074219 C15.82019041 35.25080253 2.5681936 25.17777306 -11.2434082 15.75097656 C-12.25310669 15.05391602 -12.25310669 15.05391602 -13.28320312 14.34277344 C-14.1735022 13.7363501 -14.1735022 13.7363501 -15.08178711 13.11767578 C-18.11956854 10.64425619 -18.61132078 8.78960865 -19.09960938 4.94433594 C-18.98409984 1.47263254 -18.70757486 1.00116621 -16.22460938 -1.74316406 C-10.52219066 -3.90615047 -5.51792799 -2.37341381 0 0 Z " fill="#FC6902" transform="translate(162.599609375,85.1181640625)"/>
<path d="M0 0 C0.66 0 1.32 0 2 0 C2.35123557 18.69353764 1.06210344 35.96318483 -4 54 C-4.66 54 -5.32 54 -6 54 C-6.04125 55.134375 -6.0825 56.26875 -6.125 57.4375 C-7.35124503 68.30339347 -12.44035706 78.97386962 -16.75 88.9375 C-17.04342285 89.61756104 -17.3368457 90.29762207 -17.63916016 90.99829102 C-18.8615827 93.75209616 -19.85074621 95.85074621 -22 98 C-22.268125 98.763125 -22.53625 99.52625 -22.8125 100.3125 C-24.30278382 103.68524759 -26.30838543 105.49617249 -29 108 C-30.1446875 109.175625 -30.1446875 109.175625 -31.3125 110.375 C-32.199375 111.24125 -33.08625 112.1075 -34 113 C-34.58652344 113.58265625 -35.17304688 114.1653125 -35.77734375 114.765625 C-40.00932669 118.75458317 -43.56050952 120.94942696 -49.21484375 122.39453125 C-51.21242814 122.83869783 -51.21242814 122.83869783 -52 125 C-60.24075671 127.7469189 -70.3744694 126.55343233 -78.203125 123 C-88.06080999 117.9035098 -95.92390897 110.59541654 -100.140625 100.18359375 C-102.02260678 93.21170671 -102.53604933 84.25164297 -99.4375 77.5625 C-98.3203125 75.76171875 -98.3203125 75.76171875 -97 74 C-96.25363281 72.98873047 -96.25363281 72.98873047 -95.4921875 71.95703125 C-89.03435326 63.95232043 -80.39407015 59.43843486 -71.1875 55.1875 C-70.28241699 54.76227051 -69.37733398 54.33704102 -68.44482422 53.89892578 C-63.03952824 51.37108058 -57.60243086 48.91935807 -52.14916992 46.49707031 C-31.49800182 37.31699791 -11.50830319 27.89652513 -2 6 C-1.67 6 -1.34 6 -1 6 C-0.67 4.02 -0.34 2.04 0 0 Z " fill="#042762" transform="translate(319,348)"/>
<path d="M0 0 C0.99 0 1.98 0 3 0 C3.35191406 0.78503906 3.70382812 1.57007812 4.06640625 2.37890625 C9.71051041 14.38920623 15.72850957 19.89507378 28 25 C32.94898451 26.43541393 37.94992841 27.4848846 43 28.5 C60.74542484 32.06700964 75.01180161 38.51010232 85.5625 53.75 C92.02883207 64.46401061 94.54247851 75.59009672 91.8125 87.875 C88.89135065 98.75797968 83.38336915 107.10771107 73.5625 112.875 C65.28428269 116.71032086 53.79517123 117.30229138 45.015625 114.7890625 C38.15109628 112.10178575 32.83042186 108.57356369 28 103 C28 102.34 28 101.68 28 101 C27.34 101 26.68 101 26 101 C21.20373634 92.75642184 20.8332439 84.32681686 22 75 C23.14600201 70.85451314 24.93379933 68.06620067 28 65 C30 64 30 64 34 64 C33.97679687 65.01320313 33.95359375 66.02640625 33.9296875 67.0703125 C33.9109159 68.42186758 33.8927172 69.77343069 33.875 71.125 C33.85824219 71.79015625 33.84148437 72.4553125 33.82421875 73.140625 C33.7815415 77.49370459 34.30484556 80.98673684 36 85 C39.39638503 88.2792683 43.23015038 89.76915005 47.875 90.375 C52.72189057 89.79337313 56.38519538 87.78999569 59.65625 84.1640625 C62.51668743 79.55742781 62.35475459 73.88019934 61.375 68.6875 C58.7416708 63.54053838 54.04925155 59.09203194 48.56494141 57.12792969 C47.66952637 56.89493164 46.77411133 56.66193359 45.8515625 56.421875 C44.85253906 56.15189697 43.85351562 55.88191895 42.82421875 55.60375977 C41.76847656 55.32201904 40.71273437 55.04027832 39.625 54.75 C24.46744561 50.49316293 12.6472961 45.71413289 2.6875 33.0625 C-2.15176863 24.2801236 -2.84702144 15.99925313 -2 6 C-0.98046875 2.54296875 -0.98046875 2.54296875 0 0 Z " fill="#F96A06" transform="translate(283,102)"/>
<path d="M0 0 C-0.02320313 1.01320312 -0.04640625 2.02640625 -0.0703125 3.0703125 C-0.0890841 4.42186758 -0.1072828 5.77343069 -0.125 7.125 C-0.14175781 7.79015625 -0.15851563 8.4553125 -0.17578125 9.140625 C-0.2184585 13.49370459 0.30484556 16.98673684 2 21 C5.39638503 24.2792683 9.23015038 25.76915005 13.875 26.375 C18.72546923 25.79294369 22.39010927 23.78792571 25.66015625 20.15625 C29.27738007 14.33494519 28.07716744 6.46300462 27 0 C32.53872553 2.44355538 35.0310439 6.97628249 38 12 C38.38285156 12.57234375 38.76570313 13.1446875 39.16015625 13.734375 C40.50563521 17.36403916 40.28740049 20.97583285 40.25 24.8125 C40.26160156 25.98522461 40.26160156 25.98522461 40.2734375 27.18164062 C40.25679987 32.16045019 39.58814915 36.2796678 38 41 C37.34 41 36.68 41 36 41 C35.7525 41.804375 35.505 42.60875 35.25 43.4375 C34.63125 44.7059375 34.63125 44.7059375 34 46 C31.9375 46.625 31.9375 46.625 30 47 C29.67 47.99 29.34 48.98 29 50 C24.1979003 53.2013998 19.03697188 52.31918922 13.5625 51.3125 C5.57300225 49.34267555 -0.6511158 45.17178946 -6 39 C-6 38.34 -6 37.68 -6 37 C-6.66 37 -7.32 37 -8 37 C-12.79626366 28.75642184 -13.1667561 20.32681686 -12 11 C-10.85399799 6.85451314 -9.06620067 4.06620067 -6 1 C-4 0 -4 0 0 0 Z " fill="#052661" transform="translate(317,166)"/>
<path d="M0 0 C11.61262149 5.86227519 26.13804132 14.20268397 31.2421875 26.63671875 C31.1171875 29.88671875 31.1171875 29.88671875 30.2421875 32.63671875 C26.50200002 35.13017707 25.02143591 34.78030706 20.7421875 34.15625 C9.00697214 31.71752556 -0.94384725 24.17936225 -10.7578125 17.63671875 C-10.7578125 16.97671875 -10.7578125 16.31671875 -10.7578125 15.63671875 C-11.34175781 15.38535156 -11.92570312 15.13398437 -12.52734375 14.875 C-15.03840582 13.48094278 -16.54993475 11.97450631 -18.4453125 9.82421875 C-19.04730469 9.15777344 -19.64929688 8.49132812 -20.26953125 7.8046875 C-21.96086276 5.34093687 -22.47638126 3.59890181 -22.7578125 0.63671875 C-21.7578125 -2.36328125 -21.7578125 -2.36328125 -19.9453125 -3.5546875 C-13.35045652 -5.99242891 -6.05467038 -2.6883969 0 0 Z " fill="#F86906" transform="translate(95.7578125,36.36328125)"/>
<path d="M0 0 C1.43964526 0.77268358 2.87329578 1.55663884 4.30078125 2.3515625 C5.02072266 2.73828125 5.74066406 3.125 6.48242188 3.5234375 C10.67540038 5.80148234 14.77482247 8.13549852 18.61328125 10.9765625 C18.61328125 11.6365625 18.61328125 12.2965625 18.61328125 12.9765625 C19.33515625 13.2240625 20.05703125 13.4715625 20.80078125 13.7265625 C23.88934707 15.09925842 26.12339543 16.70009546 28.61328125 18.9765625 C28.61328125 19.6365625 28.61328125 20.2965625 28.61328125 20.9765625 C29.23203125 21.2446875 29.85078125 21.5128125 30.48828125 21.7890625 C32.61328125 22.9765625 32.61328125 22.9765625 34.61328125 25.9765625 C34.98828125 29.4765625 34.98828125 29.4765625 34.61328125 32.9765625 C32.54176934 35.03754873 31.27154843 35.90975097 28.3449707 36.20678711 C21.99183636 35.51321906 17.27685747 33.79019694 11.80078125 30.5390625 C11.02887451 30.09530273 10.25696777 29.65154297 9.46166992 29.19433594 C2.36330722 25.01960724 -4.05561409 20.23429022 -10.38671875 14.9765625 C-11.13953125 14.37585938 -11.89234375 13.77515625 -12.66796875 13.15625 C-16.58808178 9.95910864 -19.07733695 7.5134933 -19.69921875 2.4140625 C-19.38671875 -0.0234375 -19.38671875 -0.0234375 -18.07421875 -1.7734375 C-12.50802964 -5.89654055 -5.59803685 -2.7882554 0 0 Z " fill="#F76A08" transform="translate(110.38671875,96.0234375)"/>
<path d="M0 0 C4.75089367 0.02963135 7.70229223 2.82887044 11.27734375 5.67578125 C13 7.5 13 7.5 13 10.5 C10.525 9.51 10.525 9.51 8 8.5 C7.36678998 12.85331891 6.97609271 16.85418625 7.1875 21.25 C7.20341947 24.32245716 7.09964862 25.32976695 5.5 28.0625 C1.97254188 30.09078842 -1.08906773 30.22794725 -5 29.5 C-7.09227969 28.6322716 -9.018566 27.61464519 -10.99609375 26.51171875 C-13.61323608 25.19039348 -16.20739133 24.62696525 -19.0546875 23.99609375 C-22.99456825 22.99134504 -26.62522298 21.12700979 -30.3125 19.4453125 C-33.37189043 18.3691897 -36.08094593 18.0880695 -39.3125 17.875 C-40.38113281 17.80023438 -41.44976562 17.72546875 -42.55078125 17.6484375 C-43.35902344 17.59945312 -44.16726562 17.55046875 -45 17.5 C-45.33 20.47 -45.66 23.44 -46 26.5 C-48 24.5 -48 24.5 -48.4375 21.6875 C-47.85214213 17.42274983 -46.35390234 16.10859071 -43 13.5 C-37.84227048 11.43108025 -33.28500112 13.80236532 -28.375 15.625 C-27.47998779 15.9461377 -26.58497559 16.26727539 -25.6628418 16.59814453 C-20.93406336 18.32074337 -16.34673472 20.18205575 -11.8125 22.375 C-7.14839336 24.62587425 -3.16059028 25.24620048 2 25.5 C2 23.19 2 20.88 2 18.5 C1.34 18.5 0.68 18.5 0 18.5 C-3.02935212 15.71171038 -5.51568874 12.69653371 -7.0625 8.875 C-6.93719918 4.11356883 -4.58764212 0.76460702 0 0 Z " fill="#F76809" transform="translate(184,142.5)"/>
<path d="M0 0 C2.51286355 1.13912712 4.72107483 2.27452728 7.0625 3.6875 C7.9606543 4.19700195 7.9606543 4.19700195 8.87695312 4.71679688 C12.79841251 7.01469476 16.02081743 9.5092974 19 13 C19.0715787 16.57893502 18.6663269 18.234958 16.3125 20.9375 C13.06358391 22.43024523 11.46089016 21.89966934 8 21 C5.29637634 19.59288434 2.81730275 17.91930725 0.3125 16.1875 C-0.35072266 15.74857422 -1.01394531 15.30964844 -1.69726562 14.85742188 C-5.02899603 12.59936089 -7.98415988 10.58287055 -10 7 C-9.875 4.375 -9.875 4.375 -9 2 C-5.44426366 -0.37049089 -4.1938983 -0.45815696 0 0 Z " fill="#E66E17" transform="translate(80,120)"/>
<path d="M0 0 C0.33 0 0.66 0 1 0 C4.22508205 12.06012646 7.22141326 24.12376846 9.3125 36.4375 C9.47137695 37.345 9.63025391 38.2525 9.79394531 39.1875 C12.07023873 53.25549363 12.1675027 67.53165799 12.13037109 81.7487793 C12.12498015 84.19651409 12.13037559 86.64406735 12.13671875 89.09179688 C12.14478008 102.87649662 11.35151381 116.27804586 8.9375 129.875 C8.75123047 130.95652344 8.56496094 132.03804687 8.37304688 133.15234375 C7.92143949 135.76935062 7.46374294 138.38512147 7 141 C6.67 141 6.34 141 6 141 C6 138.03 6 135.06 6 132 C5.67 132 5.34 132 5 132 C5.96355353 122.58997722 5.96355353 122.58997722 7 118 C7.66 118 8.32 118 9 118 C8.89222804 110.41089545 8.77954118 102.8218772 8.66066074 95.23293877 C8.60560653 91.7087082 8.55221566 88.18446912 8.50268555 84.66015625 C8.44560801 80.60407979 8.38118898 76.54814827 8.31640625 72.4921875 C8.29969376 71.23260223 8.28298126 69.97301697 8.26576233 68.67526245 C8.24581711 67.49449127 8.22587189 66.31372009 8.20532227 65.09716797 C8.18977798 64.06236298 8.1742337 63.02755798 8.15821838 61.96139526 C7.99516071 58.9094223 7.52717666 56.00807894 7 53 C6.89188762 51.06398756 6.78533348 49.12772019 6.70922852 47.19018555 C6.40134829 39.41286342 5.43062458 32.14699502 3.76171875 24.53515625 C2.8087299 20.11231056 2.10938904 15.66703314 1.4296875 11.1953125 C1.21835447 9.03231618 1.21835447 9.03231618 0 8 C-0.14115161 5.32941149 -0.04247107 2.67567762 0 0 Z " fill="#E97B32" transform="translate(390,148)"/>
<path d="M0 0 C0.66 0 1.32 0 2 0 C4.70071112 6.27980887 6.70024676 12.28460827 8 19 C7.01 18.67 6.02 18.34 5 18 C4.97278824 19.89575251 4.95350864 21.79161979 4.9375 23.6875 C4.92589844 24.74324219 4.91429687 25.79898438 4.90234375 26.88671875 C4.89857428 29.87321837 4.89857428 29.87321837 5.49780273 32.22509766 C6.1204875 35.66575642 6.14285704 39.02873059 6.1328125 42.51171875 C6.13426773 43.23337723 6.13572296 43.95503571 6.13722229 44.69856262 C6.13945765 47.02826241 6.13322038 49.35781494 6.125 51.6875 C6.12311676 52.47833984 6.12123352 53.26917969 6.11929321 54.08398438 C6.02952464 86.03347363 6.02952464 86.03347363 2.6796875 96.41796875 C1.89991442 99.38021015 1.75444887 102.1302223 1.625 105.1875 C1.32180709 110.27586789 0.10851719 113.2332357 -2.87109375 117.31640625 C-4.2070486 119.07397004 -4.2070486 119.07397004 -4.5625 121.875 C-4.706875 122.57625 -4.85125 123.2775 -5 124 C-7.02734375 125.1328125 -7.02734375 125.1328125 -9 126 C-7.61838061 120.90036419 -6.22972108 115.80316297 -4.79296875 110.71875 C4.65356709 77.2418686 7.83457495 43.09672886 -0.4140625 8.91796875 C-0.96594013 6.16961817 -1.19048515 3.79211133 -1 1 C-0.67 0.67 -0.34 0.34 0 0 Z " fill="#E49456" transform="translate(382,128)"/>
<path d="M0 0 C0.6875 1.625 0.6875 1.625 1 4 C-0.4375 7.25 -0.4375 7.25 -2 10 C-1.01 10 -0.02 10 1 10 C1 9.01 1 8.02 1 7 C1.99 7 2.98 7 4 7 C4.33 6.01 4.66 5.02 5 4 C6.32 4.33 7.64 4.66 9 5 C9 4.34 9 3.68 9 3 C10.5 1.375 10.5 1.375 12 0 C12.99 0.33 13.98 0.66 15 1 C9.44317256 6.89820251 3.35143751 11.98085611 -3 17 C-3.99773437 17.80308594 -4.99546875 18.60617187 -6.0234375 19.43359375 C-14.1207101 25.77194724 -21.65564352 30.10049074 -32 31 C-32.33 30.01 -32.66 29.02 -33 28 C-32.030625 27.95875 -31.06125 27.9175 -30.0625 27.875 C-24.85936124 27.14677165 -21.12365212 24.06350715 -17 21 C-16.113125 20.38125 -15.22625 19.7625 -14.3125 19.125 C-11.54577301 16.58260223 -9.48826032 13.77354173 -7.33203125 10.70703125 C-6 9 -6 9 -4 8 C-3.30341637 6.34561387 -2.63903117 4.67745682 -2 3 C-1.34 2.01 -0.68 1.02 0 0 Z " fill="#CC6A29" transform="translate(299,442)"/>
<path d="M0 0 C3.73088404 3.56462361 6.9105211 7.31576407 9.9375 11.5 C10.39987061 12.13510498 10.86224121 12.77020996 11.33862305 13.42456055 C15.45483715 19.13598565 19.40028232 24.96004297 23.3125 30.8125 C23.88669678 31.67101562 24.46089355 32.52953125 25.05249023 33.4140625 C28.39935631 38.46271667 31.59704274 43.57723276 34.6784668 48.79223633 C35.53405472 50.22158819 36.41572212 51.63577881 37.32739258 53.0300293 C38.5 54.875 38.5 54.875 40 58 C39.25 60.4375 39.25 60.4375 38 62 C38 61.34 38 60.68 38 60 C36.68 60 35.36 60 34 60 C33.3299166 57.87607494 32.66403203 55.75082476 32 53.625 C31.62875 52.44164062 31.2575 51.25828125 30.875 50.0390625 C30 47 30 47 30 45 C28.68 44.67 27.36 44.34 26 44 C26 41.69 26 39.38 26 37 C23.66785852 35.79371992 21.50357861 34.8345262 19 34 C19 32.02 19 30.04 19 28 C18.01 28 17.02 28 16 28 C15.731875 27.21625 15.46375 26.4325 15.1875 25.625 C14.15185568 22.71885077 14.15185568 22.71885077 11 21 C10.3125 18.375 10.3125 18.375 10 16 C9.34 16 8.68 16 8 16 C7.731875 15.236875 7.46375 14.47375 7.1875 13.6875 C6.20932644 11.0363501 6.20932644 11.0363501 4.5625 9.5625 C2.34559149 7.34559149 1.26990528 4.84216895 0 2 C0 1.34 0 0.68 0 0 Z " fill="#E6853F" transform="translate(281,185)"/>
<path d="M0 0 C0.66 0 1.32 0 2 0 C3.1842171 3.78949472 4.11493798 7.36384801 4.5625 11.3125 C4.76713037 14.81652695 4.76713037 14.81652695 6 17 C6.04428441 18.35344237 6.03930588 19.7089039 6 21.0625 C6 22.361875 6 23.66125 6 25 C6.33 25.33 6.66 25.66 7 26 C7.81202163 35.02451311 8.04590701 44.78290559 4.79296875 53.3046875 C3.42606737 57.95080551 3.15290489 62.77050811 2.73486328 67.58251953 C1.7489715 78.2510285 1.7489715 78.2510285 -2 82 C-1.56469022 77.93710874 -1.0523546 74.20269012 -0.02734375 70.234375 C1.03109984 66.09297391 1.61793724 61.99687062 2.0625 57.75 C2.14483887 56.99219238 2.22717773 56.23438477 2.31201172 55.45361328 C3.25029532 46.32532151 3.6364165 37.16613132 4 28 C3.34 28 2.68 28 2 28 C2 30.31 2 32.62 2 35 C1.34 34.67 0.68 34.34 0 34 C0.24363281 32.55947266 0.24363281 32.55947266 0.4921875 31.08984375 C1.13446225 26.5768991 1.14668973 22.11372874 1.125 17.5625 C1.12886719 16.75490234 1.13273437 15.94730469 1.13671875 15.11523438 C1.12845902 9.99007037 0.7338218 5.07268877 0 0 Z " fill="#E46F1F" transform="translate(317,320)"/>
<path d="M0 0 C1.43964526 0.77268358 2.87329578 1.55663884 4.30078125 2.3515625 C5.02072266 2.73828125 5.74066406 3.125 6.48242188 3.5234375 C10.67540038 5.80148234 14.77482247 8.13549852 18.61328125 10.9765625 C18.61328125 11.6365625 18.61328125 12.2965625 18.61328125 12.9765625 C19.27328125 13.3065625 19.93328125 13.6365625 20.61328125 13.9765625 C18.22764048 13.40071818 15.94645341 12.75428655 13.61328125 11.9765625 C13.11828125 10.9865625 13.11828125 10.9865625 12.61328125 9.9765625 C9.06020043 7.76971819 5.33240728 5.88721241 1.61328125 3.9765625 C0.96359375 3.63882813 0.31390625 3.30109375 -0.35546875 2.953125 C-4.91624613 0.78030182 -9.41618324 0.30342311 -14.38671875 -0.0234375 C-14.46898543 3.02042974 -14.36280092 5.04831598 -13.38671875 7.9765625 C-11.73671875 8.3065625 -10.08671875 8.6365625 -8.38671875 8.9765625 C-8.38671875 9.6365625 -8.38671875 10.2965625 -8.38671875 10.9765625 C-7.72671875 11.3065625 -7.06671875 11.6365625 -6.38671875 11.9765625 C-5.65977971 13.95545211 -4.98855624 15.95610808 -4.38671875 17.9765625 C-3.06671875 17.9765625 -1.74671875 17.9765625 -0.38671875 17.9765625 C-0.05671875 19.6265625 0.27328125 21.2765625 0.61328125 22.9765625 C-3.67397225 20.20396742 -7.70412065 17.23725942 -11.63671875 13.9765625 C-12.16523437 13.55117187 -12.69375 13.12578125 -13.23828125 12.6875 C-16.99377464 9.58016283 -19.10544436 7.2830125 -19.69921875 2.4140625 C-19.38671875 -0.0234375 -19.38671875 -0.0234375 -18.07421875 -1.7734375 C-12.50802964 -5.89654055 -5.59803685 -2.7882554 0 0 Z " fill="#E39763" transform="translate(110.38671875,96.0234375)"/>
<path d="M0 0 C1.52173828 0.60521484 1.52173828 0.60521484 3.07421875 1.22265625 C10.53300314 4.19244819 10.53300314 4.19244819 13.86816406 5.62304688 C16.76336158 6.68901136 19.18961757 6.64234337 22.25 6.5 C21.92 7.49 21.59 8.48 21.25 9.5 C15.25353362 9.81560349 11.78110213 9.0680117 6.25 6.5 C4.9244238 6.13704461 3.59029312 5.80414344 2.25 5.5 C-2.45265633 4.40847435 -6.6810628 2.44360312 -11.0625 0.4453125 C-14.12189043 -0.6308103 -16.83094593 -0.9119305 -20.0625 -1.125 C-21.13113281 -1.19976562 -22.19976562 -1.27453125 -23.30078125 -1.3515625 C-24.10902344 -1.40054688 -24.91726562 -1.44953125 -25.75 -1.5 C-26.08 1.47 -26.41 4.44 -26.75 7.5 C-28.75 5.5 -28.75 5.5 -29.1875 2.6875 C-28.60847714 -1.53109512 -26.9980597 -2.85623047 -23.75 -5.5 C-16.15383436 -8.03205521 -7.01637475 -2.83371006 0 0 Z " fill="#E5813E" transform="translate(164.75,161.5)"/>
<path d="M0 0 C0.99 0 1.98 0 3 0 C6.98528939 8.66367259 8.60728218 17.9152889 6.125 27.3125 C5.75375 28.199375 5.3825 29.08625 5 30 C4.62875 31.11375 4.2575 32.2275 3.875 33.375 C3.58625 34.24125 3.2975 35.1075 3 36 C4.32 36 5.64 36 7 36 C7 34.68 7 33.36 7 32 C8.65 32.33 10.3 32.66 12 33 C8.61362614 38.38741297 3.83074065 40.8570019 -2 43 C-4.51688713 43.3563734 -6.45352655 43.27679059 -9 43 C-4 38 -4 38 -2.25 36.3125 C-0.87807647 35.00032127 -0.87807647 35.00032127 0 33 C0.66 33 1.32 33 2 33 C2.88870468 27.61760312 3.21362194 22.38966121 3.25 16.9375 C3.270625 16.16083984 3.29125 15.38417969 3.3125 14.58398438 C3.34641136 9.57781984 2.56112924 6.42805766 0 2 C0 1.34 0 0.68 0 0 Z " fill="#BC6430" transform="translate(353,174)"/>
<path d="M0 0 C2.64 0.33 5.28 0.66 8 1 C7.67 2.32 7.34 3.64 7 5 C7.99 4.67 8.98 4.34 10 4 C12.19097652 7.3340947 13.43454163 10.04179141 14 14 C14.66 14 15.32 14 16 14 C16 14.66 16 15.32 16 16 C16.66 16 17.32 16 18 16 C18 16.99 18 17.98 18 19 C18.99 19.33 19.98 19.66 21 20 C21.33 21.65 21.66 23.3 22 25 C22.99 25.33 23.98 25.66 25 26 C28 31.22222222 28 31.22222222 28 34 C28.61875 34.04125 29.2375 34.0825 29.875 34.125 C32 35 32 35 33.25 37.8125 C34 41 34 41 34 45 C34.66 45 35.32 45 36 45 C36.495 50.445 36.495 50.445 37 56 C34.52027897 53.52027897 33.92765363 51.36385567 32.75 48.0625 C29.3620153 39.06099226 25.1685161 31.04116986 19.1015625 23.55859375 C18 22 18 22 18 20 C17.34 20 16.68 20 16 20 C14.0546875 17.8828125 14.0546875 17.8828125 11.875 15.125 C11.15054687 14.22007812 10.42609375 13.31515625 9.6796875 12.3828125 C8 10 8 10 8 8 C7.34 8 6.68 8 6 8 C4.4921875 6.25 4.4921875 6.25 2.875 4 C2.33617187 3.2575 1.79734375 2.515 1.2421875 1.75 C0.62730469 0.88375 0.62730469 0.88375 0 0 Z " fill="#EC9351" transform="translate(280,262)"/>
<path d="M0 0 C0.33 0.99 0.66 1.98 1 3 C1.99 3.33 2.98 3.66 4 4 C4.06058594 4.63808594 4.12117188 5.27617187 4.18359375 5.93359375 C4.26738281 6.75988281 4.35117187 7.58617187 4.4375 8.4375 C4.51871094 9.26121094 4.59992188 10.08492187 4.68359375 10.93359375 C4.78930815 12.98662025 4.78930815 12.98662025 6 14 C6.09873816 15.99799572 6.12971799 17.99957158 6.125 20 C6.12757813 21.093125 6.13015625 22.18625 6.1328125 23.3125 C6 26 6 26 5 27 C4.94913585 28.77270984 4.96457074 30.54740035 5.0078125 32.3203125 C5.03294922 33.96 5.03294922 33.96 5.05859375 35.6328125 C5.10242217 37.93767176 5.15433795 40.24239324 5.21484375 42.546875 C5.29601221 48.84849904 5.07582142 53.44419692 2 59 C0.71576597 55.0961055 0.89133052 51.18624573 0.9375 47.12890625 C0.94317993 45.98989113 0.94317993 45.98989113 0.94897461 44.8278656 C0.96527782 41.58887078 0.99341198 38.3500036 1.02050781 35.11108398 C1.03863041 32.74203071 1.05070091 30.37299811 1.0625 28.00390625 C1.07079834 27.27667862 1.07909668 26.54945099 1.08764648 25.80018616 C1.10566183 22.05099053 0.82055277 18.65239725 0 15 C-0.06774144 12.38518042 -0.09500258 9.80020744 -0.0625 7.1875 C-0.05798828 6.49462891 -0.05347656 5.80175781 -0.04882812 5.08789062 C-0.03713156 3.39188932 -0.01919924 1.69593297 0 0 Z " fill="#F16C0D" transform="translate(386,143)"/>
<path d="M0 0 C0.33 0 0.66 0 1 0 C1.31102372 7.89078694 1.12448137 14.7375099 -1.28515625 22.27734375 C-2.07804212 25.2972424 -2.24630973 28.07163548 -2.375 31.1875 C-2.67819291 36.27586789 -3.89148281 39.2332357 -6.87109375 43.31640625 C-8.2070486 45.07397004 -8.2070486 45.07397004 -8.5625 47.875 C-8.706875 48.57625 -8.85125 49.2775 -9 50 C-11.02734375 51.1328125 -11.02734375 51.1328125 -13 52 C-11.61838061 46.90036419 -10.22972108 41.80316297 -8.79296875 36.71875 C-5.45828308 24.89554257 -2.22564378 13.25643775 -1 1 C-0.67 0.67 -0.34 0.34 0 0 Z " fill="#E66E1B" transform="translate(386,202)"/>
<path d="M0 0 C6.07996287 3.61902552 11.24650008 8.33363178 14 15 C13.8125 18.125 13.8125 18.125 13 21 C9.27535444 23.48309704 7.8173158 23.13119821 3.55859375 22.55078125 C-0.82363589 21.60743105 -5.03043342 20.08717291 -9 18 C-9.33 17.34 -9.66 16.68 -10 16 C-5.35440233 15.65158018 -2.17964609 16.54887506 2.03125 18.265625 C4.64035721 19.2388634 7.24462982 19.65557873 10 20 C9.77169299 18.37181054 9.51656424 16.7473651 9.25 15.125 C9.11078125 14.22007813 8.9715625 13.31515625 8.828125 12.3828125 C8.23043461 9.87027903 8.23043461 9.87027903 6.09375 8.78125 C5.4028125 8.5234375 4.711875 8.265625 4 8 C2.32665961 7.01120795 0.65848177 6.01351664 -1 5 C-0.67 3.35 -0.34 1.7 0 0 Z " fill="#E36E20" transform="translate(113,48)"/>
<path d="M0 0 C2.97 0.495 2.97 0.495 6 1 C6 1.99 6 2.98 6 4 C7.32 4 8.64 4 10 4 C12.79364256 6.12316835 14.2388726 9.01374049 16 12 C17.87046826 14.29926298 17.87046826 14.29926298 20.875 14.25 C25.15179594 15.27643103 25.73859522 17.35257293 28 21 C29.66324401 22.00568242 31.32936253 23.00664799 33 24 C33.8125 26.1875 33.8125 26.1875 34 28 C34.598125 28.04125 35.19625 28.0825 35.8125 28.125 C38 29 38 29 39.8125 31.9375 C40.204375 32.948125 40.59625 33.95875 41 35 C40.505 35.99 40.505 35.99 40 37 C39.2265625 36.21496094 38.453125 35.42992187 37.65625 34.62109375 C31.94688863 28.85101407 26.2039787 23.24129235 20 18 C18.86903889 17.02952241 17.73890817 16.0580767 16.609375 15.0859375 C14.19695811 13.01109431 11.7839615 10.93695502 9.3671875 8.8671875 C8.80999023 8.38991211 8.25279297 7.91263672 7.67871094 7.42089844 C5.99136551 5.99269157 4.28219938 4.59393914 2.5703125 3.1953125 C1.72210938 2.47085938 0.87390625 1.74640625 0 1 C0 0.67 0 0.34 0 0 Z " fill="#EB8B47" transform="translate(174,116)"/>
<path d="M0 0 C3.7412054 2.18179986 7.29164732 4.54087191 10.8125 7.0625 C12.27623047 8.10083984 12.27623047 8.10083984 13.76953125 9.16015625 C14.50558594 9.76730469 15.24164063 10.37445313 16 11 C16 11.66 16 12.32 16 13 C16.52851563 13.21269531 17.05703125 13.42539063 17.6015625 13.64453125 C20.94179812 15.53225399 23.59403619 18.07827934 26.375 20.6875 C26.95209717 21.22407227 27.52919434 21.76064453 28.1237793 22.31347656 C32.04308629 25.99688135 35.64778055 29.78578126 39 34 C37.68 34 36.36 34 35 34 C34.67 33.34 34.34 32.68 34 32 C33.01 31.67 32.02 31.34 31 31 C30.67 30.01 30.34 29.02 30 28 C29.0925 27.401875 28.185 26.80375 27.25 26.1875 C24.56394573 24.37957886 23.23072992 23.24964318 21.3125 20.8125 C19.24098294 17.78480031 19.24098294 17.78480031 16 17 C16 16.34 16 15.68 16 15 C14.35 14.67 12.7 14.34 11 14 C11 13.01 11 12.02 11 11 C10.01 11 9.02 11 8 11 C7.938125 10.38125 7.87625 9.7625 7.8125 9.125 C7.171081 6.72238859 7.171081 6.72238859 4.4375 5.75 C3.633125 5.5025 2.82875 5.255 2 5 C2 4.01 2 3.02 2 2 C1.34 2 0.68 2 0 2 C0 1.34 0 0.68 0 0 Z " fill="#E88E4D" transform="translate(212,117)"/>
<path d="M0 0 C6.75 -0.125 6.75 -0.125 9 1 C9 1.66 9 2.32 9 3 C9.66 3 10.32 3 11 3 C11.33 4.32 11.66 5.64 12 7 C13.98 7 15.96 7 18 7 C18.33 8.32 18.66 9.64 19 11 C14.90481769 11.99277147 11.20416543 12.44254373 7 12 C3.625 9.9375 3.625 9.9375 1 7 C0.125 3.1875 0.125 3.1875 0 0 Z " fill="#F86905" transform="translate(74,123)"/>
<path d="M0 0 C3.78372775 1.81772003 7.40866142 3.82881052 11 6 C10.67 6.66 10.34 7.32 10 8 C5.95411179 7.09316299 2.60836182 6.32280423 -1.0625 4.375 C-4.5692288 2.73355247 -7.17336838 2.7704021 -11 3 C-11.93045933 5.55144824 -12.08564091 6.74006478 -11.22265625 9.359375 C-10.83980469 10.14828125 -10.45695313 10.9371875 -10.0625 11.75 C-9.49208984 12.94882813 -9.49208984 12.94882813 -8.91015625 14.171875 C-8.60980469 14.77515625 -8.30945313 15.3784375 -8 16 C-10.70502403 15.12269491 -12.68400006 14.28331029 -14.8125 12.375 C-16.55654568 8.88690863 -16.92481445 5.80805951 -16 2 C-11.14022081 -3.37133489 -6.22162321 -2.23022624 0 0 Z " fill="#E49157" transform="translate(160,84)"/>
<path d="M0 0 C0.98120464 3.05263664 0.98120464 4.94736336 0 8 C-0.66 8 -1.32 8 -2 8 C-2.04125 9.134375 -2.0825 10.26875 -2.125 11.4375 C-3.5328735 24.04887386 -9.87286617 36.52758353 -15 48 C-15.33 48 -15.66 48 -16 48 C-16 46.02 -16 44.04 -16 42 C-15.34 42 -14.68 42 -14 42 C-14.37125 40.4221875 -14.37125 40.4221875 -14.75 38.8125 C-15.06476355 34.01235581 -14.01594664 33.58653114 -11 30 C-9.81786976 27.14318526 -8.81543868 24.25875749 -7.83203125 21.328125 C-7 19 -7 19 -6 18 C-5.87625 16.741875 -5.7525 15.48375 -5.625 14.1875 C-5.21851245 10.55492079 -4.35926075 8.8311129 -2 6 C-1.27648573 4.01985568 -0.59734611 2.02178685 0 0 Z " fill="#442C34" transform="translate(315,394)"/>
<path d="M0 0 C0.94617188 0.24234375 1.89234375 0.4846875 2.8671875 0.734375 C4.20296902 1.0735316 5.53892088 1.41201767 6.875 1.75 C7.58446777 1.92974365 8.29393555 2.1094873 9.02490234 2.29467773 C12.95739792 3.2788728 16.89410549 4.2075643 20.859375 5.05078125 C21.6548877 5.22061523 22.45040039 5.39044922 23.27001953 5.56542969 C24.80596516 5.88962472 26.34336804 6.20701271 27.88232422 6.51660156 C32.31658632 7.45425173 35.99912441 8.77238315 40 11 C40 11.33 40 11.66 40 12 C38.14375 12.061875 38.14375 12.061875 36.25 12.125 C35.20585937 12.15980469 35.20585937 12.15980469 34.140625 12.1953125 C32 12 32 12 30.23828125 11.0546875 C26.35261935 9.22374734 21.99063624 9.19851273 17.75585938 8.7890625 C14.12124615 8.39759069 12.09870528 8.06580352 9 6 C8.13375 5.835 7.2675 5.67 6.375 5.5 C5.59125 5.335 4.8075 5.17 4 5 C3.67 4.34 3.34 3.68 3 3 C2.01 2.67 1.02 2.34 0 2 C0 1.34 0 0.68 0 0 Z " fill="#E78B4C" transform="translate(307,126)"/>
<path d="M0 0 C1.258125 -0.020625 2.51625 -0.04125 3.8125 -0.0625 C4.52019531 -0.07410156 5.22789062 -0.08570313 5.95703125 -0.09765625 C8 0 8 0 11 1 C11 1.66 11 2.32 11 3 C12.423125 2.938125 12.423125 2.938125 13.875 2.875 C17 3 17 3 19 5 C20.98356483 5.71408334 22.98315437 6.38617742 25 7 C25 7.66 25 8.32 25 9 C25.66 9 26.32 9 27 9 C27 9.66 27 10.32 27 11 C28.65 11 30.3 11 32 11 C32 11.66 32 12.32 32 13 C33.98 13.66 35.96 14.32 38 15 C38 15.99 38 16.98 38 18 C35.02000882 17.36888921 32.64248995 16.39675704 29.98046875 14.92578125 C29.2119458 14.50796387 28.44342285 14.09014648 27.65161133 13.65966797 C26.43187622 12.99281982 26.43187622 12.99281982 25.1875 12.3125 C16.98482232 7.89841085 8.74192919 4.21452105 0 1 C0 0.67 0 0.34 0 0 Z " fill="#E37829" transform="translate(148,174)"/>
<path d="M0 0 C2.51286355 1.13912712 4.72107483 2.27452728 7.0625 3.6875 C7.9606543 4.19700195 7.9606543 4.19700195 8.87695312 4.71679688 C12.79578899 7.01315743 16.04325871 9.49238295 19 13 C18.8125 16.3125 18.8125 16.3125 18 19 C17.67 19 17.34 19 17 19 C17 16.69 17 14.38 17 12 C16.01 12 15.02 12 14 12 C12.97895449 11.02149805 11.9793879 10.02019573 11 9 C10.01 8.67 9.02 8.34 8 8 C8 7.34 8 6.68 8 6 C6.35 6 4.7 6 3 6 C3 5.34 3 4.68 3 4 C0.03 3.67 -2.94 3.34 -6 3 C-5.67 5.31 -5.34 7.62 -5 10 C-4.01 10.33 -3.02 10.66 -2 11 C-1.67 11.99 -1.34 12.98 -1 14 C-5.3845105 12.66028846 -7.6161966 10.94244409 -10 7 C-9.9375 4.3125 -9.9375 4.3125 -9 2 C-5.44426366 -0.37049089 -4.1938983 -0.45815696 0 0 Z " fill="#E29A65" transform="translate(80,120)"/>
<path d="M0 0 C3.42757922 1.71378961 4.24036135 5.7307204 5.6875 9.125 C6.40374497 10.77265886 7.12121311 12.4197865 7.83984375 14.06640625 C8.3810083 15.30994873 8.3810083 15.30994873 8.93310547 16.57861328 C10.48429787 20.0991456 12.10981626 23.58273587 13.75 27.0625 C16.23473405 32.34639433 18.6546625 37.6526305 21 43 C17.33663903 41.77887968 16.64957986 40.13279518 14.76953125 36.88671875 C14 35 14 35 14 31 C12.68 30.34 11.36 29.68 10 29 C10 27.02 10 25.04 10 23 C9.01 22.67 8.02 22.34 7 22 C4.72564717 17.45129435 3.38513015 12.89412652 2 8 C1.62875 7.278125 1.2575 6.55625 0.875 5.8125 C0 4 0 4 0 0 Z " fill="#E98540" transform="translate(327,257)"/>
<path d="M0 0 C3.40029608 2.80524427 4.87447422 4.1910561 5.5625 8.625 C5 12 5 12 3.25561523 13.71118164 C-0.77341095 16.01329542 -4.63070913 15.03418456 -9 14 C-12.37495892 12.64031865 -15.44164071 10.92456918 -18.5625 9.0625 C-19.36751953 8.60681641 -20.17253906 8.15113281 -21.00195312 7.68164062 C-26.84227734 4.31544532 -26.84227734 4.31544532 -28 2 C-24.20696275 3.00193437 -21.28463659 3.81024227 -18 6 C-16.824375 6.28875 -15.64875 6.5775 -14.4375 6.875 C-13.303125 7.24625 -12.16875 7.6175 -11 8 C-10.34 9.32 -9.68 10.64 -9 12 C-5.04 12 -1.08 12 3 12 C2.48830577 8.24757563 1.78452996 5.33112258 0 2 C0 1.34 0 0.68 0 0 Z " fill="#E48032" transform="translate(140,117)"/>
<path d="M0 0 C0.66 0 1.32 0 2 0 C2.18721766 9.96414004 2.23614092 19.83406881 1.125 29.75 C1.04652832 30.46269043 0.96805664 31.17538086 0.88720703 31.90966797 C0.29653687 36.72686089 -0.74896454 41.31124524 -2 46 C-2.33 46 -2.66 46 -3 46 C-2.9278125 45.00742187 -2.855625 44.01484375 -2.78125 42.9921875 C-2.15503043 33.97283971 -1.8728038 25.04506295 -2 16 C-2.33 16 -2.66 16 -3 16 C-2.67 12.7 -2.34 9.4 -2 6 C-1.67 6 -1.34 6 -1 6 C-0.67 4.02 -0.34 2.04 0 0 Z " fill="#30273E" transform="translate(319,348)"/>
<path d="M0 0 C0.33 0 0.66 0 1 0 C4.28123282 12.2701011 7.2845929 24.52787202 9.375 37.0625 C9.54225586 38.05378906 9.70951172 39.04507813 9.88183594 40.06640625 C10.68727554 45.11036348 11.18416095 49.89307522 11 55 C10.01 55.495 10.01 55.495 9 56 C8.93941406 55.21753906 8.87882812 54.43507812 8.81640625 53.62890625 C8.69072266 52.11103516 8.69072266 52.11103516 8.5625 50.5625 C8.48128906 49.55316406 8.40007812 48.54382813 8.31640625 47.50390625 C8.26788532 45.06359221 8.26788532 45.06359221 7 44 C6.72847347 42.67224828 6.51003132 41.33351543 6.31640625 39.9921875 C6.19330078 39.16976562 6.07019531 38.34734375 5.94335938 37.5 C5.69286407 35.77350929 5.44285037 34.04694862 5.19335938 32.3203125 C4.45643018 27.40236012 3.40592597 22.78014828 2 18 C1.76562146 16.38109668 1.5700758 14.75540023 1.4375 13.125 C1.38900333 10.26618348 1.38900333 10.26618348 0 8 C-0.14115161 5.32941149 -0.04247107 2.67567762 0 0 Z " fill="#E58E55" transform="translate(390,148)"/>
<path d="M0 0 C6.3317298 7.53777358 8.83487842 18.31541036 8 28 C6.63799908 35.57613013 4.61462079 42.72524124 0 49 C-0.99 49.66 -1.98 50.32 -3 51 C-2.125 45.25 -2.125 45.25 -1 43 C-0.34 43 0.32 43 1 43 C4.2780987 35.27305306 5.62374136 28.38424429 5 20 C4.67 19.67 4.34 19.34 4 19 C3.92820036 17.48071962 3.91607993 15.95832518 3.9375 14.4375 C3.94652344 13.61121094 3.95554687 12.78492188 3.96484375 11.93359375 C3.97644531 11.29550781 3.98804688 10.65742188 4 10 C3.34 10 2.68 10 2 10 C0.68373308 6.38026598 0 3.90432869 0 0 Z " fill="#DE9A65" transform="translate(368,156)"/>
<path d="M0 0 C1.13286651 3.39859953 0.86530345 4.20043314 -0.1875 7.5078125 C-0.47101318 8.40483887 -0.75452637 9.30186523 -1.04663086 10.22607422 C-1.51854858 11.66104248 -1.51854858 11.66104248 -2 13.125 C-2.31525635 14.10098145 -2.6305127 15.07696289 -2.95532227 16.08251953 C-5.86244152 24.91400091 -9.28329333 33.4820765 -13 42 C-13.33 42 -13.66 42 -14 42 C-13.85795259 40.41632253 -13.71119847 38.83306682 -13.5625 37.25 C-13.44068359 35.92742187 -13.44068359 35.92742187 -13.31640625 34.578125 C-13.03761535 32.30649548 -12.61209423 30.20148177 -12 28 C-11.34 28 -10.68 28 -10 28 C-9.731875 27.154375 -9.46375 26.30875 -9.1875 25.4375 C-8 22 -8 22 -6.5 18.6875 C-5.32476572 15.7983824 -4.6058229 13.44642038 -4 10.4375 C-3.22305643 6.59228777 -1.93887432 3.43709539 0 0 Z " fill="#E88545" transform="translate(390,310)"/>
<path d="M0 0 C0 1.98 0 3.96 0 6 C-0.33 6 -0.66 6 -1 6 C-1 4.35 -1 2.7 -1 1 C-2.32 2.32 -3.64 3.64 -5 5 C-4.67 5 -4.34 5 -4 5 C-3.75 10.625 -3.75 10.625 -6 14 C-6.66 13.67 -7.32 13.34 -8 13 C-8.33 13.66 -8.66 14.32 -9 15 C-9 14.01 -9 13.02 -9 12 C-9.66 12 -10.32 12 -11 12 C-11 17.28 -11 22.56 -11 28 C-11.33 28 -11.66 28 -12 28 C-12.75268817 9.60095579 -12.75268817 9.60095579 -8 3 C-5.02583145 0.02583145 -4.38431613 0 0 0 Z " fill="#506589" transform="translate(317,166)"/>
<path d="M0 0 C0.66 0 1.32 0 2 0 C2.66 2.64 3.32 5.28 4 8 C5.65 8.33 7.3 8.66 9 9 C9 9.66 9 10.32 9 11 C9.66 11.33 10.32 11.66 11 12 C11.72693904 13.97888961 12.39816251 15.97954558 13 18 C14.32 18 15.64 18 17 18 C17.33 19.65 17.66 21.3 18 23 C14.10424773 20.53952488 10.40716445 17.86632608 6.75 15.0625 C5.89921875 14.41410156 5.0484375 13.76570313 4.171875 13.09765625 C0.86439147 9.90319823 0.04626978 7.22614926 -0.125 2.6875 C-0.08375 1.800625 -0.0425 0.91375 0 0 Z " fill="#E76C1D" transform="translate(93,96)"/>
<path d="M0 0 C1.65 0 3.3 0 5 0 C5 0.66 5 1.32 5 2 C4.34 2 3.68 2 3 2 C3 2.66 3 3.32 3 4 C2.34 4 1.68 4 1 4 C1 4.66 1 5.32 1 6 C-0.98 6.33 -2.96 6.66 -5 7 C-5.33 7.99 -5.66 8.98 -6 10 C-6.66 10 -7.32 10 -8 10 C-8 10.66 -8 11.32 -8 12 C-9.32 12 -10.64 12 -12 12 C-12.33 12.66 -12.66 13.32 -13 14 C-13.99 14 -14.98 14 -16 14 C-16 14.99 -16 15.98 -16 17 C-16.99 17 -17.98 17 -19 17 C-18.37064741 14.06302123 -17.67498244 11.51247366 -16 9 C-13.625 7.625 -13.625 7.625 -11 7 C-8.6875 7.875 -8.6875 7.875 -7 9 C-7 8.01 -7 7.02 -7 6 C-3.535 5.505 -3.535 5.505 0 5 C0 3.35 0 1.7 0 0 Z " fill="#F46A0F" transform="translate(316,435)"/>
<path d="M0 0 C1.98 0 3.96 0 6 0 C-0.54619382 7.63722613 -9.25001755 10.61010888 -19 12 C-19.33 11.01 -19.66 10.02 -20 9 C-19.030625 8.95875 -18.06125 8.9175 -17.0625 8.875 C-12.6022578 8.28574036 -9.63812306 5.93819236 -6.11328125 3.27734375 C-4 2 -4 2 0 2 C0 1.34 0 0.68 0 0 Z " fill="#A27E71" transform="translate(286,461)"/>
<path d="M0 0 C0.33 0.99 0.66 1.98 1 3 C1.99 3.33 2.98 3.66 4 4 C3.67 5.32 3.34 6.64 3 8 C2.67 7.67 2.34 7.34 2 7 C2.16153564 7.94834717 2.32307129 8.89669434 2.48950195 9.8737793 C3.15892477 14.58631223 3.16208027 19.26689038 3.16796875 24.01953125 C3.17129715 24.9593132 3.17462555 25.89909515 3.17805481 26.86735535 C3.18309348 28.84149692 3.18546409 30.81564693 3.18530273 32.78979492 C3.18750566 35.8202892 3.20573811 38.8504286 3.22460938 41.88085938 C3.22754058 43.80208209 3.2295272 45.72330653 3.23046875 47.64453125 C3.23765427 48.55282181 3.24483978 49.46111237 3.25224304 50.39692688 C3.24916641 51.23507431 3.24608978 52.07322174 3.24291992 52.93676758 C3.24434494 53.6751033 3.24576996 54.41343903 3.24723816 55.17414856 C3 57 3 57 1 59 C1.00523682 57.8447583 1.01047363 56.6895166 1.01586914 55.49926758 C1.0340015 51.20353982 1.04546212 46.90781542 1.05493164 42.61206055 C1.05995303 40.75463288 1.06677141 38.89720915 1.07543945 37.03979492 C1.08760117 34.36636379 1.09325033 31.69298504 1.09765625 29.01953125 C1.10281754 28.19226028 1.10797882 27.36498932 1.11329651 26.51264954 C1.11368321 22.51702863 0.90062883 18.91210647 0 15 C-0.06774144 12.38518042 -0.09500258 9.80020744 -0.0625 7.1875 C-0.05798828 6.49462891 -0.05347656 5.80175781 -0.04882812 5.08789062 C-0.03713156 3.39188932 -0.01919924 1.69593297 0 0 Z " fill="#E26F18" transform="translate(386,143)"/>
<path d="M0 0 C0 4.8745054 -2.11048889 8.04026432 -5.375 11.5625 C-6.674375 12.7690625 -6.674375 12.7690625 -8 14 C-8.763125 14.78375 -9.52625 15.5675 -10.3125 16.375 C-20.78190255 26.60092807 -20.78190255 26.60092807 -27 28 C-27 27.34 -27 26.68 -27 26 C-26.34 26 -25.68 26 -25 26 C-24.67 25.01 -24.34 24.02 -24 23 C-22.35509595 22.06005483 -20.70669174 21.1255725 -19.0390625 20.2265625 C-12.98452347 16.5845601 -8.73663007 11.89237818 -5 6 C-4.34 6 -3.68 6 -3 6 C-2.87625 5.38125 -2.7525 4.7625 -2.625 4.125 C-2 2 -2 2 0 0 Z " fill="#3C2A32" transform="translate(298,442)"/>
<path d="M0 0 C4.26088433 2.2635948 7.54325401 5.19901466 11.03515625 8.4765625 C13.09659584 10.07489538 14.4253441 10.68954253 17 11 C17.66 10.67 18.32 10.34 19 10 C19.23428313 5.2102679 19.23428313 5.2102679 17 1 C19.475 1.495 19.475 1.495 22 2 C22.2954439 7.02254631 21.98514628 9.89542386 19 14 C16.69 13.67 14.38 13.34 12 13 C12 12.34 12 11.68 12 11 C10.68 11 9.36 11 8 11 C8 10.34 8 9.68 8 9 C7.34 9 6.68 9 6 9 C6 8.34 6 7.68 6 7 C5.195625 6.773125 4.39125 6.54625 3.5625 6.3125 C2.716875 5.879375 1.87125 5.44625 1 5 C0.1875 2.375 0.1875 2.375 0 0 Z " fill="#E98341" transform="translate(198,152)"/>
<path d="M0 0 C0.99 0 1.98 0 3 0 C3.66 2.31 4.32 4.62 5 7 C4.34 6.67 3.68 6.34 3 6 C3 5.34 3 4.68 3 4 C2.01 4 1.02 4 0 4 C0.33754618 16.82425408 0.33754618 16.82425408 4 29 C3.67 29.99 3.34 30.98 3 32 C-1.99096532 27.00903468 -2.22631682 20.04804731 -2.3125 13.3125 C-2.29727747 8.42606633 -1.76068127 4.56654783 0 0 Z " fill="#E38949" transform="translate(283,102)"/>
<path d="M0 0 C1.26345152 4.7379432 0.86681162 7.37741884 -1 12 C-3.9365748 15.96834433 -7.04199058 19.05976443 -11 22 C-11.66 21.67 -12.32 21.34 -13 21 C-12.39671875 20.07058594 -11.7934375 19.14117187 -11.171875 18.18359375 C-10.36448668 16.93495833 -9.55720048 15.68625686 -8.75 14.4375 C-8.35425781 13.82841797 -7.95851563 13.21933594 -7.55078125 12.59179688 C-4.8889825 8.46819062 -2.40188247 4.28041899 0 0 Z " fill="#EC6F16" transform="translate(361,277)"/>
<path d="M0 0 C1 3 1 3 -0.44140625 6.40625 C-1.13771294 7.7763368 -1.84544567 9.14065679 -2.5625 10.5 C-2.92875488 11.2110791 -3.29500977 11.9221582 -3.67236328 12.65478516 C-4.77009125 14.7761026 -5.88265856 16.88895944 -7 19 C-7.59425781 20.13179688 -8.18851562 21.26359375 -8.80078125 22.4296875 C-12.6712963 29.6712963 -12.6712963 29.6712963 -15 32 C-15 30.35 -15 28.7 -15 27 C-14.34 27 -13.68 27 -13 27 C-12.67 25.35 -12.34 23.7 -12 22 C-11.34 22 -10.68 22 -10 22 C-10.33 20.35 -10.66 18.7 -11 17 C-10.01 16.67 -9.02 16.34 -8 16 C-8 15.01 -8 14.02 -8 13 C-7.34 13 -6.68 13 -6 13 C-6 12.01 -6 11.02 -6 10 C-5.34 10 -4.68 10 -4 10 C-3.855625 9.4225 -3.71125 8.845 -3.5625 8.25 C-3.04166667 6.16666667 -2.52083333 4.08333333 -2 2 C-1.34 2 -0.68 2 0 2 C0 1.34 0 0.68 0 0 Z " fill="#EB8036" transform="translate(375,352)"/>
<path d="M0 0 C0.66 0.33 1.32 0.66 2 1 C1.67 1.66 1.34 2.32 1 3 C1.99 2.67 2.98 2.34 4 2 C4 2.66 4 3.32 4 4 C6.475 4.99 6.475 4.99 9 6 C9 6.66 9 7.32 9 8 C10.72880982 8.05449838 12.45812712 8.09301688 14.1875 8.125 C15.63189453 8.15980469 15.63189453 8.15980469 17.10546875 8.1953125 C20.03029169 8.14723785 20.03029169 8.14723785 22.67578125 6.9296875 C25 6 25 6 28 7 C27 9 27 9 25 11 C15.5949912 11.97293195 6.70435398 9.48914861 -1 4 C-1.66 3.01 -2.32 2.02 -3 1 C-2.01 0.67 -1.02 0.34 0 0 Z " fill="#51628B" transform="translate(318,207)"/>
<path d="M0 0 C5.37211997 1.49978744 9.69317779 4.00395317 14.375 6.9375 C15.11105469 7.38029297 15.84710938 7.82308594 16.60546875 8.27929688 C17.30027344 8.71177734 17.99507812 9.14425781 18.7109375 9.58984375 C19.34306152 9.98034912 19.97518555 10.37085449 20.62646484 10.77319336 C21.07973145 11.17803955 21.53299805 11.58288574 22 12 C22 12.99 22 13.98 22 15 C18.625 14.25 18.625 14.25 15 13 C13.875 10.9375 13.875 10.9375 13 9 C10.44480079 8.18828772 10.44480079 8.18828772 8 8 C8 7.34 8 6.68 8 6 C7.05125 5.7525 6.1025 5.505 5.125 5.25 C2 4 2 4 0.625 1.875 C0.41875 1.25625 0.2125 0.6375 0 0 Z " fill="#E89453" transform="translate(171,91)"/>
<path d="M0 0 C3.86483166 5.04108478 4.18249273 8.39335684 4.1875 14.6875 C4.19974609 15.47833984 4.21199219 16.26917969 4.22460938 17.08398438 C4.23706743 22.11288462 3.61425606 26.23379733 2 31 C1.34 31 0.68 31 0 31 C-0.2475 31.804375 -0.495 32.60875 -0.75 33.4375 C-1.36875 34.7059375 -1.36875 34.7059375 -2 36 C-4.0625 36.625 -4.0625 36.625 -6 37 C-6.33 37.99 -6.66 38.98 -7 40 C-7.66 39.67 -8.32 39.34 -9 39 C-8.360625 38.401875 -7.72125 37.80375 -7.0625 37.1875 C-4.79689611 35.09189663 -4.79689611 35.09189663 -4 32 C-3.34 32 -2.68 32 -2 32 C-2 31.01 -2 30.02 -2 29 C-1.34 28.67 -0.68 28.34 0 28 C1.85849694 23.54762963 2.35375614 19.41697481 2.625 14.625 C2.69976562 13.37976563 2.77453125 12.13453125 2.8515625 10.8515625 C2.90054687 9.91054687 2.94953125 8.96953125 3 8 C2.34 8 1.68 8 1 8 C0.67 5.36 0.34 2.72 0 0 Z " fill="#39222C" transform="translate(353,176)"/>
<path d="M0 0 C0.66 0 1.32 0 2 0 C2.24933861 7.41003171 1.30000049 14.2763486 0 21.5625 C-0.19078125 22.66658203 -0.3815625 23.77066406 -0.578125 24.90820312 C-1.04539889 27.60670984 -1.51948722 30.3038249 -2 33 C-2.33 33 -2.66 33 -3 33 C-3 30.03 -3 27.06 -3 24 C-3.33 24 -3.66 24 -4 24 C-3.03644647 14.58997722 -3.03644647 14.58997722 -2 10 C-1.34 10 -0.68 10 0 10 C0 6.7 0 3.4 0 0 Z " fill="#E88F4E" transform="translate(399,256)"/>
<path d="M0 0 C0.33 0 0.66 0 1 0 C1.48360262 6.52863532 0.5603888 12.36271773 -3 18 C-5.140625 18.78515625 -5.140625 18.78515625 -7 19 C-7.33 20.32 -7.66 21.64 -8 23 C-8.66 23 -9.32 23 -10 23 C-8.60573729 18.18345609 -6.51441264 13.92408064 -4.2421875 9.48046875 C-2.68488253 6.37075599 -1.32735739 3.2136021 0 0 Z " fill="#EB7E32" transform="translate(372,254)"/>
<path d="M0 0 C0.33 0 0.66 0 1 0 C1.08636719 0.89203125 1.17273438 1.7840625 1.26171875 2.703125 C1.40222656 3.87359375 1.54273438 5.0440625 1.6875 6.25 C1.81511719 7.41015625 1.94273437 8.5703125 2.07421875 9.765625 C3.20357644 13.71122909 4.60608606 14.8063727 8 17 C12.37628829 19.36556124 16.13651445 19.16486392 21 19 C20.67 19.66 20.34 20.32 20 21 C17.71484375 21.4140625 17.71484375 21.4140625 14.9375 21.625 C14.01839844 21.69976562 13.09929687 21.77453125 12.15234375 21.8515625 C11.08693359 21.92503906 11.08693359 21.92503906 10 22 C10 21.34 10 20.68 10 20 C7.98177083 19.83723958 5.96354167 19.67447917 3.9453125 19.51171875 C2 19 2 19 0 16 C-0.14245897 13.23344676 -0.18769445 10.57346694 -0.125 7.8125 C-0.11597656 7.06291016 -0.10695313 6.31332031 -0.09765625 5.54101562 C-0.07412578 3.69387346 -0.03825561 1.84689588 0 0 Z " fill="#3F547D" transform="translate(315,173)"/>
<path d="M0 0 C1.32 0 2.64 0 4 0 C2.53865213 4.09026749 0.53964183 7.45876097 -1.875 11.0625 C-2.55304688 12.08472656 -3.23109375 13.10695313 -3.9296875 14.16015625 C-5.79044233 16.71255014 -7.69805496 18.847733 -10 21 C-9.67 18.36 -9.34 15.72 -9 13 C-7.68 12.67 -6.36 12.34 -5 12 C-4.67 9.69 -4.34 7.38 -4 5 C-3.01 5 -2.02 5 -1 5 C-0.67 3.35 -0.34 1.7 0 0 Z " fill="#EB7626" transform="translate(356,384)"/>
<path d="M0 0 C0 3.80205426 -1.2000969 5.11156561 -3.375 8.1875 C-4.31472656 9.53908203 -4.31472656 9.53908203 -5.2734375 10.91796875 C-6.12808594 11.94857422 -6.12808594 11.94857422 -7 13 C-7.66 13 -8.32 13 -9 13 C-9.226875 13.53625 -9.45375 14.0725 -9.6875 14.625 C-11.44384951 17.80315626 -13.58979175 20.28079069 -16 23 C-16.33 23 -16.66 23 -17 23 C-17 21.35 -17 19.7 -17 18 C-15.68 17.67 -14.36 17.34 -13 17 C-13 15.68 -13 14.36 -13 13 C-12.01 13 -11.02 13 -10 13 C-10 12.01 -10 11.02 -10 10 C-9.34 10 -8.68 10 -8 10 C-8 9.01 -8 8.02 -8 7 C-7.01 7 -6.02 7 -5 7 C-5 6.34 -5 5.68 -5 5 C-4.34 5 -3.68 5 -3 5 C-2.690625 4.360625 -2.38125 3.72125 -2.0625 3.0625 C-1 1 -1 1 0 0 Z " fill="#E57B30" transform="translate(345,405)"/>
<path d="M0 0 C0.99 0 1.98 0 3 0 C3 0.66 3 1.32 3 2 C4.32 2.66 5.64 3.32 7 4 C7 4.66 7 5.32 7 6 C7.99 6.33 8.98 6.66 10 7 C10 7.99 10 8.98 10 10 C10.928125 9.938125 11.85625 9.87625 12.8125 9.8125 C16 10 16 10 17.875 11.3125 C19 13 19 13 19 16 C14.28816972 14.71370473 11.39362617 12.99101949 7.8125 9.6875 C6.97332031 8.92824219 6.13414062 8.16898438 5.26953125 7.38671875 C3.05685677 5.05979257 1.52810524 2.81231095 0 0 Z " fill="#E28E4E" transform="translate(286,134)"/>
<path d="M0 0 C2.64 0.33 5.28 0.66 8 1 C7.67 2.32 7.34 3.64 7 5 C7.99 4.67 8.98 4.34 10 4 C12.19097652 7.3340947 13.43454163 10.04179141 14 14 C11.37812506 12.95125002 10.20628639 12.35068687 8.75 9.875 C8.5025 9.25625 8.255 8.6375 8 8 C7.34 8 6.68 8 6 8 C4.4921875 6.25 4.4921875 6.25 2.875 4 C2.33617187 3.2575 1.79734375 2.515 1.2421875 1.75 C0.62730469 0.88375 0.62730469 0.88375 0 0 Z " fill="#EB802E" transform="translate(280,262)"/>
<path d="M0 0 C-1 3 -1 3 -2.7421875 4.09765625 C-3.79792969 4.57525391 -3.79792969 4.57525391 -4.875 5.0625 C-7.46226374 6.25111379 -9.60710987 7.40473992 -12 9 C-14.6875 9.125 -14.6875 9.125 -17 9 C-17 8.01 -17 7.02 -17 6 C-14.921188 4.99063464 -12.8367638 3.99282154 -10.75 3 C-9.58984375 2.443125 -8.4296875 1.88625 -7.234375 1.3125 C-4 0 -4 0 0 0 Z " fill="#2B446E" transform="translate(270,395)"/>
<path d="M0 0 C4.43170173 1.51896368 8.03024076 3.92639809 11.8125 6.625 C12.40998047 7.04523438 13.00746094 7.46546875 13.62304688 7.8984375 C15.08520565 8.92779728 16.54304899 9.9632823 18 11 C13.20895522 12.59701493 13.20895522 12.59701493 10 12 C8.29631375 10.36217791 6.87902611 8.61255672 5.42578125 6.75 C3.83425783 4.79656851 2.02495033 3.4797714 0 2 C0 1.34 0 0.68 0 0 Z " fill="#EA7019" transform="translate(194,105)"/>
<path d="M0 0 C-0.33 1.65 -0.66 3.3 -1 5 C-0.15115234 5.58007812 -0.15115234 5.58007812 0.71484375 6.171875 C1.44832031 6.69265625 2.18179688 7.2134375 2.9375 7.75 C3.66839844 8.26046875 4.39929688 8.7709375 5.15234375 9.296875 C7.20805399 11.19177915 7.62669176 12.27425729 8 15 C1.90574654 11.21168028 -3.49400055 6.58506716 -9 2 C-8.01 2 -7.02 2 -6 2 C-3 0 -3 0 0 0 Z " fill="#ED8438" transform="translate(250,226)"/>
<path d="M0 0 C2.31 0.33 4.62 0.66 7 1 C7 1.66 7 2.32 7 3 C7.99 3 8.98 3 10 3 C10.50615298 4.26839526 11.00469099 5.53983102 11.5 6.8125 C11.7784375 7.52019531 12.056875 8.22789062 12.34375 8.95703125 C13 11 13 11 13 14 C10.83031809 11.85714108 8.66416525 9.71091768 6.5 7.5625 C5.87996094 6.95083984 5.25992187 6.33917969 4.62109375 5.70898438 C4.03457031 5.12568359 3.44804687 4.54238281 2.84375 3.94140625 C2.02680664 3.13231812 2.02680664 3.13231812 1.19335938 2.30688477 C0 1 0 1 0 0 Z " fill="#EE9141" transform="translate(266,248)"/>
<path d="M0 0 C0.33 0 0.66 0 1 0 C1.49120673 6.6312909 0.38862772 12.18606681 -3 18 C-3.99 18.33 -4.98 18.66 -6 19 C-6.33 19.99 -6.66 20.98 -7 22 C-7.33 21.34 -7.66 20.68 -8 20 C-7.13248611 17.69057737 -6.21193231 15.48848865 -5.1875 13.25 C-3.22671834 8.89475791 -1.43455141 4.56257325 0 0 Z " fill="#CD662A" transform="translate(308,420)"/>
<path d="M0 0 C1.7074998 1.28062485 3.37373596 2.61767557 5 4 C5 4.66 5 5.32 5 6 C5.66 6 6.32 6 7 6 C7 6.66 7 7.32 7 8 C7.66 8 8.32 8 9 8 C10.38938077 9.96147874 11.7260411 11.96166576 13 14 C11.02 14 9.04 14 7 14 C7 12.35 7 10.7 7 9 C4.03 8.505 4.03 8.505 1 8 C0.67 5.36 0.34 2.72 0 0 Z " fill="#EB934E" transform="translate(251,151)"/>
<path d="M0 0 C0.99 0.33 1.98 0.66 3 1 C-1.94409802 6.2302516 -7.23424506 10.69856377 -13 15 C-13.33 14.01 -13.66 13.02 -14 12 C-13.01 12 -12.02 12 -11 12 C-11 10.35 -11 8.7 -11 7 C-10.01 7 -9.02 7 -8 7 C-7.67 6.01 -7.34 5.02 -7 4 C-5.68 4.33 -4.36 4.66 -3 5 C-3 4.34 -3 3.68 -3 3 C-1.5 1.375 -1.5 1.375 0 0 Z " fill="#E48A41" transform="translate(311,442)"/>
<path d="M0 0 C0.66 0 1.32 0 2 0 C2.33 3.96 2.66 7.92 3 12 C2.34 12 1.68 12 1 12 C0.87625 12.78375 0.7525 13.5675 0.625 14.375 C0 17 0 17 -2 19 C-2.6425235 21.06874034 -2.6425235 21.06874034 -3 23 C-3.33 22.34 -3.66 21.68 -4 21 C-5.65 21 -7.3 21 -9 21 C-8.236875 20.4225 -7.47375 19.845 -6.6875 19.25 C-3.52986226 16.60639631 -1.33948254 14.64040036 -0.48828125 10.52734375 C-0.43027344 9.67269531 -0.37226563 8.81804687 -0.3125 7.9375 C-0.24675781 7.08027344 -0.18101562 6.22304687 -0.11328125 5.33984375 C-0.02718826 3.56157818 0 1.7803484 0 0 Z " fill="#4E6789" transform="translate(345,171)"/>
<path d="M0 0 C3.71002195 0.25024004 7.41739497 0.52884588 11.125 0.8125 C12.17171875 0.88275391 13.2184375 0.95300781 14.296875 1.02539062 C19.89446884 1.46823824 24.21611952 1.97903741 29 5 C29 5.33 29 5.66 29 6 C27.7625 6.04125 26.525 6.0825 25.25 6.125 C24.20585937 6.15980469 24.20585937 6.15980469 23.140625 6.1953125 C21 6 21 6 19.24609375 5.0546875 C15.31072516 3.20677529 10.86879444 3.19429554 6.58007812 2.7890625 C4.71215371 2.58972558 2.85414643 2.30169162 1 2 C0.67 1.34 0.34 0.68 0 0 Z " fill="#EF6D13" transform="translate(318,132)"/>
<path d="M0 0 C10.27786028 0.16577194 19.36827996 4.7032627 28 10 C23.82412255 11.39195915 21.86525224 9.82323219 18 8 C18 7.34 18 6.68 18 6 C16.906875 5.87625 15.81375 5.7525 14.6875 5.625 C11 5 11 5 8 3 C5.49103314 2.54398739 5.49103314 2.54398739 2.8125 2.375 C1.91144531 2.30023438 1.01039062 2.22546875 0.08203125 2.1484375 C-0.60503906 2.09945312 -1.29210937 2.05046875 -2 2 C-1.34 1.34 -0.68 0.68 0 0 Z " fill="#E49B6C" transform="translate(78,32)"/>
<path d="M0 0 C2.05931264 4.11862527 -0.72503157 9.78951957 -2 14 C-3.20252356 17.07072979 -4.53140537 20.04790115 -6 23 C-6.33 23 -6.66 23 -7 23 C-7 21.02 -7 19.04 -7 17 C-6.34 17 -5.68 17 -5 17 C-5.37125 15.4221875 -5.37125 15.4221875 -5.75 13.8125 C-6 10 -6 10 -4.1875 7.375 C-3.465625 6.59125 -2.74375 5.8075 -2 5 C-0.75983331 2.3205355 -0.75983331 2.3205355 0 0 Z " fill="#0F234F" transform="translate(306,419)"/>
<path d="M0 0 C1.65 1.32 3.3 2.64 5 4 C-0.22771463 7.04157942 -3.92671312 8.50610724 -10 8 C-6.88983545 4.71211176 -3.98381075 2.16264012 0 0 Z " fill="#D67D44" transform="translate(354,209)"/>
<path d="M0 0 C3.97256398 2.09663099 6.43898489 4.30075595 9 8 C9 8.66 9 9.32 9 10 C7.68 10 6.36 10 5 10 C4.67 11.65 4.34 13.3 4 15 C3.67 15 3.34 15 3 15 C3 11.7 3 8.4 3 5 C2.34 5 1.68 5 1 5 C0.67 3.35 0.34 1.7 0 0 Z " fill="#393041" transform="translate(344,166)"/>
<path d="M0 0 C9.37833595 2.73155416 9.37833595 2.73155416 12.75 4.1875 C15.57808767 5.20875388 18.01798756 5.13869825 21 5 C20.67 5.99 20.34 6.98 20 8 C14.01006953 8.3152595 10.36439644 7.68219822 5 5 C5 4.34 5 3.68 5 3 C3.35 2.67 1.7 2.34 0 2 C0 1.34 0 0.68 0 0 Z " fill="#E59154" transform="translate(166,163)"/>
<path d="M0 0 C2.97 0.495 2.97 0.495 6 1 C6 1.99 6 2.98 6 4 C7.32 4 8.64 4 10 4 C12.10859771 5.60253426 13.11195717 7.19470813 14.4375 9.5 C16.03796923 12.06075077 17.49756426 13.36047314 20 15 C19.67 15.66 19.34 16.32 19 17 C3.92813853 4.78181818 3.92813853 4.78181818 0 1 C0 0.67 0 0.34 0 0 Z " fill="#E99858" transform="translate(174,116)"/>
<path d="M0 0 C0.33 0 0.66 0 1 0 C-0.07257753 28.81846461 -0.07257753 28.81846461 -3.5703125 32.77734375 C-4.04210937 33.18082031 -4.51390625 33.58429688 -5 34 C-4.56721518 29.96067499 -4.06657982 26.25343287 -3.03125 22.3125 C-1.85969402 17.74567031 -1.34036303 13.18414592 -0.875 8.5 C-0.78863281 7.67757813 -0.70226562 6.85515625 -0.61328125 6.0078125 C-0.40376148 4.00573474 -0.20114956 2.00293603 0 0 Z " fill="#B56334" transform="translate(320,368)"/>
<path d="M0 0 C0.66 0 1.32 0 2 0 C3.84532714 5.47059581 4.25309068 10.18819928 4.125 15.9375 C4.11597656 16.71673828 4.10695313 17.49597656 4.09765625 18.29882812 C4.07433691 20.19935447 4.03847586 22.09972008 4 24 C3.34 24 2.68 24 2 24 C1.93941406 22.9378125 1.87882812 21.875625 1.81640625 20.78125 C1.20729762 10.36284897 1.20729762 10.36284897 0 0 Z " fill="#E69359" transform="translate(317,320)"/>
<path d="M0 0 C6.04487393 2.41794957 6.54395779 3.30198208 9 9 C8.25 11.4375 8.25 11.4375 7 13 C7 12.34 7 11.68 7 11 C5.68 11 4.36 11 3 11 C2.01 7.37 1.02 3.74 0 0 Z " fill="#E77B31" transform="translate(312,234)"/>
<path d="M0 0 C0.33 0 0.66 0 1 0 C1.56075048 14.97411458 1.56075048 14.97411458 -2 21 C-2.66 21.66 -3.32 22.32 -4 23 C-1.8490566 1.8490566 -1.8490566 1.8490566 0 0 Z " fill="#E88F4D" transform="translate(386,202)"/>
<path d="M0 0 C0.33 0 0.66 0 1 0 C1.061875 1.093125 1.12375 2.18625 1.1875 3.3125 C1.59877264 7.1474527 1.59877264 7.1474527 4.5625 8.8125 C5.366875 9.204375 6.17125 9.59625 7 10 C7 10.66 7 11.32 7 12 C7.99 12 8.98 12 10 12 C10 15.3 10 18.6 10 22 C9.67 22 9.34 22 9 22 C8.67 19.69 8.34 17.38 8 15 C7.34 15 6.68 15 6 15 C2.92723178 12.17174914 0.41455355 9.21602376 -0.9375 5.25 C-1 3 -1 3 0 0 Z " fill="#E3965A" transform="translate(178,146)"/>
<path d="M0 0 C3.40029608 2.80524427 4.87447422 4.1910561 5.5625 8.625 C5 12 5 12 3.29296875 13.73046875 C0.43646285 15.31200949 -1.05088412 15.15052993 -4.25 14.6875 C-5.58804688 14.50767578 -5.58804688 14.50767578 -6.953125 14.32421875 C-7.62859375 14.21722656 -8.3040625 14.11023438 -9 14 C-9 13.67 -9 13.34 -9 13 C-3.06 12.505 -3.06 12.505 3 12 C2.48830577 8.24757563 1.78452996 5.33112258 0 2 C0 1.34 0 0.68 0 0 Z " fill="#E09465" transform="translate(140,117)"/>
<path d="M0 0 C5.4518721 0.86537652 9.16521013 3.63030755 12.9375 7.625 C12.9375 8.615 12.9375 9.605 12.9375 10.625 C8.39766994 8.55246888 6.20816013 7.16632026 3.9375 2.625 C-0.5175 3.12 -0.5175 3.12 -5.0625 3.625 C-3.0625 0.625 -3.0625 0.625 0 0 Z " fill="#E8975B" transform="translate(184.0625,142.375)"/>
<path d="M0 0 C10.94915254 1.93220339 10.94915254 1.93220339 14 6 C14 6.66 14 7.32 14 8 C15.65 8.33 17.3 8.66 19 9 C19 9.66 19 10.32 19 11 C14.25652774 9.62309544 10.27474838 7.56160559 6.125 4.9375 C5.53203125 4.57333984 4.9390625 4.20917969 4.328125 3.83398438 C2.86464287 2.9218371 1.4292745 1.96486632 0 1 C0 0.67 0 0.34 0 0 Z " fill="#E59655" transform="translate(186,192)"/>
<path d="M0 0 C2.34590913 2.13264466 3.9641112 3.97865766 5 7 C4.8125 10.125 4.8125 10.125 4 13 C0.64672361 15.23551759 0.09256343 15.17283528 -3.6875 14.625 C-4.49574219 14.51414062 -5.30398437 14.40328125 -6.13671875 14.2890625 C-6.75160156 14.19367188 -7.36648437 14.09828125 -8 14 C-8 13.67 -8 13.34 -8 13 C-4.7 13 -1.4 13 2 13 C2.23428313 8.2102679 2.23428313 8.2102679 0 4 C0 2.68 0 1.36 0 0 Z " fill="#E19966" transform="translate(122,56)"/>
<path d="M0 0 C5.19184444 2.59592222 9.23754342 6.63976994 13 11 C13.33 11.99 13.66 12.98 14 14 C12.68 14.33 11.36 14.66 10 15 C10 13.68 10 12.36 10 11 C9.34 11 8.68 11 8 11 C7.896875 10.360625 7.79375 9.72125 7.6875 9.0625 C7.460625 8.381875 7.23375 7.70125 7 7 C6.01 6.67 5.02 6.34 4 6 C4 5.34 4 4.68 4 4 C2.68 3.67 1.36 3.34 0 3 C0 2.01 0 1.02 0 0 Z " fill="#E28742" transform="translate(354,142)"/>
<path d="M0 0 C2.31 0.33 4.62 0.66 7 1 C7 1.66 7 2.32 7 3 C8.32 3.33 9.64 3.66 11 4 C11 4.66 11 5.32 11 6 C13.475 6.99 13.475 6.99 16 8 C14.02 8.99 14.02 8.99 12 10 C9.99708788 8.52464063 7.99763223 7.04497707 6 5.5625 C5.42765625 5.14162109 4.8553125 4.72074219 4.265625 4.28710938 C2.82546081 3.21555864 1.41048004 2.11033324 0 1 C0 0.67 0 0.34 0 0 Z " fill="#EB8337" transform="translate(227,217)"/>
<path d="M0 0 C5.12498182 6.10116884 6.49144231 12.26641589 7 20 C6.01 19.67 5.02 19.34 4 19 C4 16.03 4 13.06 4 10 C3.34 10 2.68 10 2 10 C0.68373308 6.38026598 0 3.90432869 0 0 Z " fill="#E28952" transform="translate(368,156)"/>
<path d="M0 0 C5.841744 -0.35050464 9.8531808 -0.16727335 15 3 C15 3.66 15 4.32 15 5 C15.99 5.33 16.98 5.66 18 6 C11.58008874 5.42934122 5.98410537 3.32655091 0 1 C0 0.67 0 0.34 0 0 Z " fill="#EA8D49" transform="translate(305,150)"/>
<path d="M0 0 C0 3 0 3 -2 8 C-5.63 8 -9.26 8 -13 8 C-10.06489842 5.79867381 -7.4339774 4.04495829 -4.25 2.3125 C-3.45078125 1.87550781 -2.6515625 1.43851562 -1.828125 0.98828125 C-1.22484375 0.66214844 -0.6215625 0.33601563 0 0 Z " fill="#495D84" transform="translate(294,381)"/>
<path d="M0 0 C4.50513431 4.23209586 8.514292 8.88695859 12 14 C12 14.66 12 15.32 12 16 C10.68 16 9.36 16 8 16 C7.731875 15.236875 7.46375 14.47375 7.1875 13.6875 C6.20932644 11.0363501 6.20932644 11.0363501 4.5625 9.5625 C2.34559149 7.34559149 1.26990528 4.84216895 0 2 C0 1.34 0 0.68 0 0 Z " fill="#E99758" transform="translate(281,185)"/>
<path d="M0 0 C0.99 0 1.98 0 3 0 C6.7346373 8.11877675 7.1422371 15.11808331 7 24 C6.67 24 6.34 24 6 24 C5.81824219 22.91460937 5.63648438 21.82921875 5.44921875 20.7109375 C5.19580466 19.26553863 4.94187075 17.82023082 4.6875 16.375 C4.51057617 15.30572266 4.51057617 15.30572266 4.33007812 14.21484375 C3.51759786 9.67328741 2.20012214 6.10442954 0 2 C0 1.34 0 0.68 0 0 Z " fill="#DA6C2B" transform="translate(353,174)"/>
<path d="M0 0 C0.66 0 1.32 0 2 0 C2 0.66 2 1.32 2 2 C2.66 2.33 3.32 2.66 4 3 C4.4140625 5.28515625 4.4140625 5.28515625 4.625 8.0625 C4.69976562 8.98160156 4.77453125 9.90070312 4.8515625 10.84765625 C4.90054688 11.55792969 4.94953125 12.26820312 5 13 C0.24390244 8.73170732 0.24390244 8.73170732 -0.875 5.375 C-1 3 -1 3 0 0 Z " fill="#E58546" transform="translate(74,34)"/>
<path d="M0 0 C0.66 0.33 1.32 0.66 2 1 C1.01 2.485 1.01 2.485 0 4 C-0.99 4 -1.98 4 -3 4 C-3.1546875 4.9590625 -3.1546875 4.9590625 -3.3125 5.9375 C-3.539375 6.618125 -3.76625 7.29875 -4 8 C-4.99 8.33 -5.98 8.66 -7 9 C-8.71567661 12.50294871 -8.71567661 12.50294871 -10 16 C-10.99 16 -11.98 16 -13 16 C-11.09744619 9.23536425 -5.59452852 3.96792551 0 0 Z " fill="#4C5D81" transform="translate(233,411)"/>
<path d="M0 0 C6.15222436 0.43173504 9.81917949 1.65405342 15 5 C14.67 5.66 14.34 6.32 14 7 C8.8896856 5.8545847 4.62765919 4.54521255 0 2 C0 1.34 0 0.68 0 0 Z " fill="#E27E36" transform="translate(156,85)"/>
<path d="M0 0 C0.33 0 0.66 0 1 0 C0.49451662 8.54092606 -1.06734291 16.67377292 -3 25 C-5.55257899 16.85882003 -3.08204177 7.67602856 0 0 Z " fill="#EA6D18" transform="translate(323,367)"/>
<path d="M0 0 C0.33 1.32 0.66 2.64 1 4 C1.18433594 4.58265625 1.36867188 5.1653125 1.55859375 5.765625 C2.21374106 9.08194591 2.10384405 12.38523057 2.0625 15.75 C2.05798828 16.44738281 2.05347656 17.14476562 2.04882812 17.86328125 C2.0371002 19.57555803 2.01916653 21.28779033 2 23 C1.67 23 1.34 23 1 23 C0.81824219 21.60974609 0.81824219 21.60974609 0.6328125 20.19140625 C0.46523438 18.99386719 0.29765625 17.79632813 0.125 16.5625 C-0.03742188 15.36753906 -0.19984375 14.17257812 -0.3671875 12.94140625 C-0.57601563 11.97074219 -0.78484375 11.00007813 -1 10 C-1.66 9.67 -2.32 9.34 -3 9 C-2.01 6.03 -1.02 3.06 0 0 Z " fill="#253E6F" transform="translate(316,355)"/>
<path d="M0 0 C2.97 0.33 5.94 0.66 9 1 C9 1.66 9 2.32 9 3 C10.98 3.66 12.96 4.32 15 5 C15 5.99 15 6.98 15 8 C11.34435091 7.31238981 8.48132728 5.74550455 5.25 3.9375 C4.26515625 3.38964844 3.2803125 2.84179688 2.265625 2.27734375 C1.51796875 1.85582031 0.7703125 1.43429688 0 1 C0 0.67 0 0.34 0 0 Z " fill="#E58849" transform="translate(171,184)"/>
<path d="M0 0 C1.48206495 0.254496 2.96068615 0.52911762 4.4375 0.8125 C5.67306641 1.03873047 5.67306641 1.03873047 6.93359375 1.26953125 C7.95646484 1.63111328 7.95646484 1.63111328 9 2 C9.33 2.99 9.66 3.98 10 5 C12.31 5.33 14.62 5.66 17 6 C16.34 6.66 15.68 7.32 15 8 C9.03619684 8 4.53708424 4.54900812 0 1 C0 0.67 0 0.34 0 0 Z " fill="#E48E54" transform="translate(79,134)"/>
<path d="M0 0 C0.33 0 0.66 0 1 0 C1.19335938 0.59167969 1.38671875 1.18335937 1.5859375 1.79296875 C2.94414719 5.9146645 4.32050585 9.9950524 6 14 C3.08482708 12.92598892 1.22189824 12.22189824 -1 10 C-1.23046875 7.87109375 -1.23046875 7.87109375 -1.1875 5.4375 C-1.18105469 4.63183594 -1.17460937 3.82617188 -1.16796875 2.99609375 C-1 1 -1 1 0 0 Z " fill="#E3803D" transform="translate(146,86)"/>
<path d="M0 0 C0.66 0 1.32 0 2 0 C3.20029908 2.40059817 3.11459743 3.89360649 3.09765625 6.5703125 C3.09282227 7.91416016 3.09282227 7.91416016 3.08789062 9.28515625 C3.07951172 10.22230469 3.07113281 11.15945313 3.0625 12.125 C3.05798828 13.06988281 3.05347656 14.01476562 3.04882812 14.98828125 C3.03702357 17.32558387 3.02055759 19.66276061 3 22 C2.67 22 2.34 22 2 22 C2 16.06 2 10.12 2 4 C1.34 4 0.68 4 0 4 C0 6.31 0 8.62 0 11 C-0.66 10.67 -1.32 10.34 -2 10 C-1.34 6.7 -0.68 3.4 0 0 Z " fill="#8D5F4C" transform="translate(319,344)"/>
<path d="M0 0 C0.66 0 1.32 0 2 0 C2.99 2.97 3.98 5.94 5 9 C4.34 9 3.68 9 3 9 C2.67 8.01 2.34 7.02 2 6 C2 9.3 2 12.6 2 16 C1.67 16 1.34 16 1 16 C0.66048381 14.43883181 0.32867456 12.87598662 0 11.3125 C-0.185625 10.44238281 -0.37125 9.57226562 -0.5625 8.67578125 C-0.99206242 6.04854682 -1.14886126 3.65624311 -1 1 C-0.67 0.67 -0.34 0.34 0 0 Z " fill="#E4B48C" transform="translate(382,128)"/>
<path d="M0 0 C4.17906895 3.55994763 6.68559431 8.08663054 9 13 C9 13.66 9 14.32 9 15 C8.01 14.67 7.02 14.34 6 14 C5.3125 11.9375 5.3125 11.9375 5 10 C3.68 9.67 2.36 9.34 1 9 C0.67 6.03 0.34 3.06 0 0 Z " fill="#E59053" transform="translate(306,220)"/>
<path d="M0 0 C3.72114571 2.31537955 6.61229661 4.28579473 9 8 C4.72656908 8.36629408 2.51187196 7.40814077 -1 5 C-0.67 3.35 -0.34 1.7 0 0 Z " fill="#E7863F" transform="translate(113,48)"/>
<path d="M0 0 C0.33 0 0.66 0 1 0 C1 1.98 1 3.96 1 6 C0.34 6 -0.32 6 -1 6 C-1.2475 6.804375 -1.495 7.60875 -1.75 8.4375 C-2.1625 9.283125 -2.575 10.12875 -3 11 C-5.0625 11.625 -5.0625 11.625 -7 12 C-7.33 12.99 -7.66 13.98 -8 15 C-8.66 14.67 -9.32 14.34 -10 14 C-9.360625 13.401875 -8.72125 12.80375 -8.0625 12.1875 C-5.79689611 10.09189663 -5.79689611 10.09189663 -5 7 C-4.34 7 -3.68 7 -3 7 C-3 6.01 -3 5.02 -3 4 C-2.34 3.67 -1.68 3.34 -1 3 C-0.67 2.01 -0.34 1.02 0 0 Z " fill="#492F38" transform="translate(354,201)"/>
<path d="M0 0 C2.64 0 5.28 0 8 0 C8 0.66 8 1.32 8 2 C10.97 2.33 13.94 2.66 17 3 C17 3.99 17 4.98 17 6 C13.78008917 6 11.8135902 5.1035022 8.91796875 3.80078125 C6.01043365 2.58684093 3.04325056 1.80739301 0 1 C0 0.67 0 0.34 0 0 Z " fill="#E99958" transform="translate(323,156)"/>
<path d="M0 0 C0.12375 0.639375 0.2475 1.27875 0.375 1.9375 C0.58125 2.618125 0.7875 3.29875 1 4 C1.66 4.33 2.32 4.66 3 5 C2.34 5 1.68 5 1 5 C1 5.66 1 6.32 1 7 C-0.98 7 -2.96 7 -5 7 C-5 7.66 -5 8.32 -5 9 C-5.99 8.67 -6.98 8.34 -8 8 C-5.33333333 5.33333333 -2.66666667 2.66666667 0 0 Z " fill="#C26A32" transform="translate(291,454)"/>
<path d="M0 0 C1.35949488 4.07848463 0.14486103 7.17680945 -0.9375 11.1875 C-1.13279297 11.93708984 -1.32808594 12.68667969 -1.52929688 13.45898438 C-2.01214375 15.30793459 -2.50510633 17.15423776 -3 19 C-3.33 19 -3.66 19 -4 19 C-4.53699151 11.88486245 -2.69707634 6.55004254 0 0 Z " fill="#EC9457" transform="translate(395,289)"/>
<path d="M0 0 C2.31 0 4.62 0 7 0 C7 0.33 7 0.66 7 1 C5.02 1 3.04 1 1 1 C1.33 3.31 1.66 5.62 2 8 C2.99 8.33 3.98 8.66 5 9 C5.33 9.99 5.66 10.98 6 12 C3.24779627 11.13088303 1.4343302 10.5527839 -0.375 8.25 C-1.20607725 5.25812191 -0.68048336 2.99412677 0 0 Z " fill="#DF8037" transform="translate(73,122)"/>
<path d="M0 0 C1.98 0 3.96 0 6 0 C6.33 0.99 6.66 1.98 7 3 C7.66 3 8.32 3 9 3 C9 3.66 9 4.32 9 5 C9.66 5.33 10.32 5.66 11 6 C11 6.66 11 7.32 11 8 C6.99698968 6.23867546 3.3971023 3.73867517 0 1 C0 0.67 0 0.34 0 0 Z " fill="#E6924E" transform="translate(163,108)"/>
<path d="M0 0 C1.0143635 3.16538964 0.95408471 5.27924121 0.1875 8.5 C0.01605469 9.2528125 -0.15539062 10.005625 -0.33203125 10.78125 C-1.00488931 13.01624052 -1.89502703 14.94857339 -3 17 C-3 15.35 -3 13.7 -3 12 C-3.99 12 -4.98 12 -6 12 C-6 11.34 -6 10.68 -6 10 C-5.38125 9.835 -4.7625 9.67 -4.125 9.5 C-0.72243051 7.09818625 -0.77387974 3.99837866 0 0 Z " fill="#EA6D1B" transform="translate(396,278)"/>
<path d="M0 0 C0.33 0 0.66 0 1 0 C1.35646629 7.06331359 1.26269404 13.56441083 -2 20 C-2.66 20.33 -3.32 20.66 -4 21 C-3.79503906 20.23816406 -3.59007812 19.47632813 -3.37890625 18.69140625 C-1.74722695 12.43793676 -0.53672183 6.44066194 0 0 Z " fill="#E96D19" transform="translate(373,176)"/>
<path d="M0 0 C1.258125 -0.020625 2.51625 -0.04125 3.8125 -0.0625 C4.52019531 -0.07410156 5.22789062 -0.08570313 5.95703125 -0.09765625 C8.73987472 0.03536686 10.56082816 0.62589066 12.6875 2.4375 C14 4 14 4 14 6 C9.27934033 4.45730076 4.58335908 2.92205381 0 1 C0 0.67 0 0.34 0 0 Z " fill="#E49552" transform="translate(148,174)"/>
<path d="M0 0 C3 3 6 6 9 9 C8.67 9.66 8.34 10.32 8 11 C5.77888714 10.61704951 4.19619717 10.13079812 2.3125 8.875 C0.36694189 6.09563127 0.31331211 3.32110837 0 0 Z " fill="#EA8A45" transform="translate(264,165)"/>
<path d="M0 0 C0.66 0.33 1.32 0.66 2 1 C2.875 3.8125 2.875 3.8125 3 7 C1.5625 9.375 1.5625 9.375 -1 11 C-3.75894497 11.32581826 -6.20431335 11.18637911 -9 11 C-9 10.67 -9 10.34 -9 10 C-5.535 9.505 -5.535 9.505 -2 9 C-1.34 6.03 -0.68 3.06 0 0 Z " fill="#E96E18" transform="translate(188,161)"/>
<path d="M0 0 C3.59634744 3.49359465 6.83451967 7.11098131 10 11 C9.01 11.495 9.01 11.495 8 12 C8 11.34 8 10.68 8 10 C7.1028125 9.8453125 7.1028125 9.8453125 6.1875 9.6875 C3.57514967 8.86647561 2.60602912 8.21784974 1 6 C0.3125 2.8125 0.3125 2.8125 0 0 Z " fill="#E78A49" transform="translate(289,111)"/>
<path d="M0 0 C2.74792483 3.40219265 6 7.48464588 6 12 C5.01 12 4.02 12 3 12 C3 11.01 3 10.02 3 9 C2.34 9 1.68 9 1 9 C-0.4783226 6.04335481 -0.06032783 3.25770263 0 0 Z " fill="#E4874A" transform="translate(321,245)"/>
<path d="M0 0 C0.33 0 0.66 0 1 0 C1.08333357 4.8333472 0.95261487 9.23692563 0 14 C-0.66 14 -1.32 14 -2 14 C-2.66 15.32 -3.32 16.64 -4 18 C-3.35155914 13.80716882 -2.48783354 9.73500079 -1.4375 5.625 C-1.16808594 4.56539062 -0.89867187 3.50578125 -0.62109375 2.4140625 C-0.31365234 1.21910156 -0.31365234 1.21910156 0 0 Z " fill="#E8A064" transform="translate(381,225)"/>
<path d="M0 0 C0.99 0.33 1.98 0.66 3 1 C2 3 2 3 0 5 C-2.84227545 5.49986848 -5.06915075 5.2791285 -8 5 C-8.66 4.34 -9.32 3.68 -10 3 C-9.04287109 2.80083984 -9.04287109 2.80083984 -8.06640625 2.59765625 C-7.24011719 2.42105469 -6.41382813 2.24445313 -5.5625 2.0625 C-4.73878906 1.88847656 -3.91507812 1.71445313 -3.06640625 1.53515625 C-1.02338796 1.19247006 -1.02338796 1.19247006 0 0 Z " fill="#4C526B" transform="translate(343,213)"/>
<path d="M0 0 C3.34373475 0.55728913 6.03312999 1.35173889 9 3 C9 3.99 9 4.98 9 6 C10.32 6.33 11.64 6.66 13 7 C11.296875 7.7109375 11.296875 7.7109375 9 8 C6.640625 6.6015625 6.640625 6.6015625 4.25 4.625 C3.45078125 3.97789063 2.6515625 3.33078125 1.828125 2.6640625 C1.22484375 2.11492187 0.6215625 1.56578125 0 1 C0 0.67 0 0.34 0 0 Z " fill="#E1894B" transform="translate(152,100)"/>
<path d="M0 0 C4.7517398 0.43197635 6.92000054 1.32769295 10 5 C7 6 7 6 3.875 4.75 C1 3 1 3 0 0 Z " fill="#E7833B" transform="translate(184,100)"/>
<path d="M0 0 C9.59453303 2.70615034 9.59453303 2.70615034 13 7 C8.6570138 6.34197179 4.92722404 4.96361202 1 3 C0.67 2.01 0.34 1.02 0 0 Z " fill="#E57B34" transform="translate(100,41)"/>
<path d="M0 0 C1.98 0 3.96 0 6 0 C1.375 4.875 1.375 4.875 -2 6 C-2 5.34 -2 4.68 -2 4 C-2.99 3.67 -3.98 3.34 -5 3 C-3.35 2.67 -1.7 2.34 0 2 C0 1.34 0 0.68 0 0 Z " fill="#D7915A" transform="translate(286,461)"/>
<path d="M0 0 C0.33 0 0.66 0 1 0 C1.17942163 3.94727588 1.09350689 6.5980513 -1 10 C-1.66 10 -2.32 10 -3 10 C-3.33 11.32 -3.66 12.64 -4 14 C-4.66 14 -5.32 14 -6 14 C-4.50829734 9.0276578 -2.39542583 4.58154261 0 0 Z " fill="#E7985A" transform="translate(368,263)"/>
<path d="M0 0 C5.46889601 1.17956581 8.35474354 2.49703613 12 7 C12.8125 9.3125 12.8125 9.3125 13 11 C12.236875 10.21625 11.47375 9.4325 10.6875 8.625 C8.09108195 5.92742283 8.09108195 5.92742283 5 4 C4.01 4.495 4.01 4.495 3 5 C2.01 3.35 1.02 1.7 0 0 Z " fill="#D37C3E" transform="translate(340,163)"/>
<path d="M0 0 C0.33 0.99 0.66 1.98 1 3 C0.67 3.66 0.34 4.32 0 5 C1.65 5 3.3 5 5 5 C5 5.99 5 6.98 5 8 C0.71193127 7.52354792 -1.26647487 6.34097516 -4 3 C-4 2.34 -4 1.68 -4 1 C-2 0 -2 0 0 0 Z " fill="#EC7116" transform="translate(191,123)"/>
<path d="M0 0 C2.64280641 2.64280641 3.71943083 5.72876827 5.125 9.125 C5.40214844 9.78371094 5.67929687 10.44242187 5.96484375 11.12109375 C6.64759391 12.74556827 7.32437433 14.37254948 8 16 C4.40399407 14.80133136 3.61884534 13.30594829 1.8515625 10.0546875 C0.47262301 6.72752158 0.25123856 3.58014941 0 0 Z " fill="#E8A474" transform="translate(340,284)"/>
<path d="M0 0 C0.82273185 2.36734455 1.10990889 3.64262754 0.36328125 6.0703125 C0.01652344 6.74835938 -0.33023437 7.42640625 -0.6875 8.125 C-1.02136719 8.80820312 -1.35523438 9.49140625 -1.69921875 10.1953125 C-3.22681238 12.31467663 -4.60786878 13.02300325 -7 14 C-5.23570801 9.02790438 -2.6060834 4.56561939 0 0 Z " fill="#EBA772" transform="translate(361,277)"/>
<path d="M0 0 C2.96175123 0.61277612 4.38058783 1.25372522 7 3 C7.3984375 5.3125 7.3984375 5.3125 7.375 8 C7.38273438 8.886875 7.39046875 9.77375 7.3984375 10.6875 C7.26695312 11.450625 7.13546875 12.21375 7 13 C6.01 13.66 5.02 14.32 4 15 C4.66 11.37 5.32 7.74 6 4 C4.35 3.67 2.7 3.34 1 3 C0.67 2.01 0.34 1.02 0 0 Z " fill="#E86E1B" transform="translate(214,150)"/>
<path d="M0 0 C0 3.81991716 -1.23261227 5.11307909 -3.4375 8.1875 C-4.07558594 9.08855469 -4.71367187 9.98960937 -5.37109375 10.91796875 C-5.90863281 11.60503906 -6.44617188 12.29210937 -7 13 C-7.33 13 -7.66 13 -8 13 C-8 11.02 -8 9.04 -8 7 C-7.01 7 -6.02 7 -5 7 C-5 6.34 -5 5.68 -5 5 C-4.34 5 -3.68 5 -3 5 C-2.690625 4.360625 -2.38125 3.72125 -2.0625 3.0625 C-1 1 -1 1 0 0 Z " fill="#E68C43" transform="translate(345,405)"/>
<path d="M0 0 C0.98120464 3.05263664 0.98120464 4.94736336 0 8 C-0.66 8 -1.32 8 -2 8 C-2.12375 8.763125 -2.2475 9.52625 -2.375 10.3125 C-3 13 -3 13 -5 16 C-5.31490911 11.38133302 -4.8791071 9.54351644 -2 6 C-1.27648573 4.01985568 -0.59734611 2.02178685 0 0 Z " fill="#322838" transform="translate(315,394)"/>
<path d="M0 0 C0 0.99 0 1.98 0 3 C-1 4 -2 5 -3 6 C-4.19027984 8.59915538 -4.19027984 8.59915538 -5 11 C-5.33 10.34 -5.66 9.68 -6 9 C-7.65 9.33 -9.3 9.66 -11 10 C-7.54563567 6.40746109 -3.80635497 3.20760251 0 0 Z " fill="#596B94" transform="translate(306,371)"/>
<path d="M0 0 C1.34540051 2.69080102 0.71610898 4.13556407 0 7 C-0.33 7.66 -0.66 8.32 -1 9 C-2.32 8.67 -3.64 8.34 -5 8 C-3.62845496 5.04590299 -2.01136276 2.55991624 0 0 Z " fill="#2D4A77" transform="translate(312,364)"/>
<path d="M0 0 C0.99 0.33 1.98 0.66 3 1 C3 1.99 3 2.98 3 4 C3.66 4 4.32 4 5 4 C5.33 7.63 5.66 11.26 6 15 C3.61874536 12.61874536 2.99813759 10.66142433 1.875 7.5 C1.52179688 6.5203125 1.16859375 5.540625 0.8046875 4.53125 C0 2 0 2 0 0 Z " fill="#EC965D" transform="translate(311,303)"/>
<path d="M0 0 C0.99 1.32 1.98 2.64 3 4 C6.54518884 2.60240095 6.54518884 2.60240095 10 1 C9 3 8 5 7 7 C5.02 7 3.04 7 1 7 C0.67 4.69 0.34 2.38 0 0 Z " fill="#E96F19" transform="translate(343,295)"/>
<path d="M0 0 C0.66 0 1.32 0 2 0 C1.67 4.62 1.34 9.24 1 14 C0.67 14 0.34 14 0 14 C-0.33 11.03 -0.66 8.06 -1 5 C-1.66 5 -2.32 5 -3 5 C-1.125 1.125 -1.125 1.125 0 0 Z " fill="#1A3053" transform="translate(314,167)"/>
<path d="M0 0 C1.27208622 0.62244599 2.54261882 1.24806767 3.8125 1.875 C4.52019531 2.22304687 5.22789063 2.57109375 5.95703125 2.9296875 C8 4 8 4 11 6 C11 6.66 11 7.32 11 8 C11.66 8.33 12.32 8.66 13 9 C10.61435923 8.42415568 8.33317216 7.77772405 6 7 C5.67 6.34 5.34 5.68 5 5 C4.154375 4.505 3.30875 4.01 2.4375 3.5 C1.633125 3.005 0.82875 2.51 0 2 C0 1.34 0 0.68 0 0 Z " fill="#E3A06E" transform="translate(118,101)"/>
<path d="M0 0 C1.10844919 3.32534757 0.84454356 5.62182575 0 9 C-1.98 9.33 -3.96 9.66 -6 10 C-4.8006207 6.58638198 -3.66702528 4.43511004 -1 2 C-0.67 1.34 -0.34 0.68 0 0 Z " fill="#F36B0E" transform="translate(306,434)"/>
<path d="M0 0 C1.39211215 4.17633644 -0.0464421 5.78960515 -1.9375 9.6875 C-2.50339844 10.86699219 -3.06929688 12.04648437 -3.65234375 13.26171875 C-4.09707031 14.16535156 -4.54179687 15.06898438 -5 16 C-5.33 16 -5.66 16 -6 16 C-6 14.02 -6 12.04 -6 10 C-5.34 10 -4.68 10 -4 10 C-3.855625 9.4225 -3.71125 8.845 -3.5625 8.25 C-3.04166667 6.16666667 -2.52083333 4.08333333 -2 2 C-1.34 2 -0.68 2 0 2 C0 1.34 0 0.68 0 0 Z " fill="#E78A45" transform="translate(375,352)"/>
<path d="M0 0 C0.66 0 1.32 0 2 0 C1.43589129 3.94876098 0.34264206 6.75634176 -2 10 C-2.99 10.33 -3.98 10.66 -5 11 C-4.34 8.69 -3.68 6.38 -3 4 C-2.34 4 -1.68 4 -1 4 C-0.67 2.68 -0.34 1.36 0 0 Z " fill="#EB6F16" transform="translate(365,273)"/>
<path d="M0 0 C0.65234375 1.765625 0.65234375 1.765625 1 4 C0.00390625 5.921875 0.00390625 5.921875 -1.4375 7.75 C-2.14712891 8.67039063 -2.14712891 8.67039063 -2.87109375 9.609375 C-3.24363281 10.06828125 -3.61617188 10.5271875 -4 11 C-5.2077558 7.37673261 -4.54311128 6.35853631 -3 3 C-2.34 3 -1.68 3 -1 3 C-0.67 2.01 -0.34 1.02 0 0 Z " fill="#E0823F" transform="translate(370,196)"/>
<path d="M0 0 C4.75 0.75 4.75 0.75 7 3 C7 3.99 7 4.98 7 6 C4.0625 5.25 4.0625 5.25 1 4 C0.125 1.875 0.125 1.875 0 0 Z " fill="#E88539" transform="translate(298,144)"/>
<path d="M0 0 C0.33 0 0.66 0 1 0 C1.125 7.75 1.125 7.75 0 10 C-0.66 10 -1.32 10 -2 10 C-2 10.66 -2 11.32 -2 12 C-2.66 12 -3.32 12 -4 12 C-3.52309796 10.37433394 -3.04340334 8.74948689 -2.5625 7.125 C-2.29566406 6.22007812 -2.02882813 5.31515625 -1.75390625 4.3828125 C-1 2 -1 2 0 0 Z " fill="#BA6334" transform="translate(308,420)"/>
<path d="M0 0 C0.33 0 0.66 0 1 0 C1.04254356 1.99954746 1.04080783 4.00041636 1 6 C0.67 6.33 0.34 6.66 0 7 C-0.36760731 9.32817964 -0.70241581 11.6618385 -1 14 C-1.66 14 -2.32 14 -3 14 C-3.33 14.66 -3.66 15.32 -4 16 C-3.25 8.375 -3.25 8.375 -1 5 C-0.61500109 3.34450469 -0.27206865 1.6777567 0 0 Z " fill="#EE6D16" transform="translate(318,394)"/>
<path d="M0 0 C1.32 0.33 2.64 0.66 4 1 C4.66 3.31 5.32 5.62 6 8 C4.125 7.75 4.125 7.75 2 7 C0.27898465 4.41847698 0 3.15081975 0 0 Z " fill="#EB7F36" transform="translate(308,296)"/>
<path d="M0 0 C0.99 0.33 1.98 0.66 3 1 C7.08594833 2.1865126 10.76342394 2.14865179 15 2 C14.67 2.66 14.34 3.32 14 4 C11.71484375 4.4140625 11.71484375 4.4140625 8.9375 4.625 C8.01839844 4.69976562 7.09929687 4.77453125 6.15234375 4.8515625 C5.44207031 4.90054688 4.73179687 4.94953125 4 5 C4 4.34 4 3.68 4 3 C2.68 2.67 1.36 2.34 0 2 C0 1.34 0 0.68 0 0 Z " fill="#586B8B" transform="translate(321,190)"/>
<path d="M0 0 C2.64 0.33 5.28 0.66 8 1 C8.12375 1.639375 8.2475 2.27875 8.375 2.9375 C8.58125 3.618125 8.7875 4.29875 9 5 C9.66 5.33 10.32 5.66 11 6 C8.33333333 5.33333333 5.66666667 4.66666667 3 4 C3 3.01 3 2.02 3 1 C2.01 0.67 1.02 0.34 0 0 Z " fill="#F06B10" transform="translate(183,188)"/>
<path d="M0 0 C4.05606165 0.46800711 7.46588679 0.87953208 11 3 C11 3.33 11 3.66 11 4 C8.36 4 5.72 4 3 4 C2.67 3.01 2.34 2.02 2 1 C1.34 0.67 0.68 0.34 0 0 Z " fill="#E79155" transform="translate(336,134)"/>
<path d="M0 0 C2.71224618 1.61268692 5.37352812 3.24901874 8 5 C8 5.66 8 6.32 8 7 C5.69 6.67 3.38 6.34 1 6 C0.67 4.02 0.34 2.04 0 0 Z " fill="#E6884B" transform="translate(131,110)"/>
<path d="M0 0 C3 0 3 0 4.625 1.0625 C6.62066174 3.87456882 6.68138504 6.62268141 7 10 C6.34 10 5.68 10 5 10 C5 8.35 5 6.7 5 5 C4.34 5 3.68 5 3 5 C3 4.34 3 3.68 3 3 C2.34 3 1.68 3 1 3 C0.67 3.66 0.34 4.32 0 5 C0 3.35 0 1.7 0 0 Z " fill="#E27126" transform="translate(283,106)"/>
<path d="M0 0 C-1.450954 3.82524236 -3.38181932 5.19090966 -7 7 C-7.66 7 -8.32 7 -9 7 C-9 6.34 -9 5.68 -9 5 C-8.34 5 -7.68 5 -7 5 C-6.67 4.01 -6.34 3.02 -6 2 C-3.85412616 0.684787 -2.52986895 0 0 0 Z " fill="#242645" transform="translate(280,463)"/>
<path d="M0 0 C3.37462715 0.54723683 5.08235 1.0549 8 3 C8 3.66 8 4.32 8 5 C9.32 5.66 10.64 6.32 12 7 C8.38862487 7 7.25267809 6.07469918 4.3125 4.0625 C3.50425781 3.51722656 2.69601563 2.97195312 1.86328125 2.41015625 C1.24839844 1.94480469 0.63351563 1.47945312 0 1 C0 0.67 0 0.34 0 0 Z " fill="#EB8B44" transform="translate(215,209)"/>
<path d="M0 0 C2.475 0.495 2.475 0.495 5 1 C5.25 7.625 5.25 7.625 3 11 C2.01 10.67 1.02 10.34 0 10 C0.66 9.67 1.32 9.34 2 9 C2.23428313 4.2102679 2.23428313 4.2102679 0 0 Z " fill="#F0A064" transform="translate(215,153)"/>
<path d="M0 0 C0.33 0.99 0.66 1.98 1 3 C1.99 3.33 2.98 3.66 4 4 C3.67 5.32 3.34 6.64 3 8 C2.67 7.67 2.34 7.34 2 7 C1.67 9.64 1.34 12.28 1 15 C0.67 15 0.34 15 0 15 C0 10.05 0 5.1 0 0 Z " fill="#E17525" transform="translate(386,143)"/>
<path d="M0 0 C1.60332791 -0.08121924 3.20784026 -0.13929134 4.8125 -0.1875 C6.15248047 -0.23970703 6.15248047 -0.23970703 7.51953125 -0.29296875 C10.41647515 0.04918998 11.22555028 0.75393573 13 3 C11.58344207 3.0272415 10.16672955 3.04650467 8.75 3.0625 C7.56664063 3.07990234 7.56664063 3.07990234 6.359375 3.09765625 C4.09308998 3.00385306 2.1711105 2.63241063 0 2 C0 1.34 0 0.68 0 0 Z " fill="#E7701F" transform="translate(76,34)"/>
<path d="M0 0 C1.32 0 2.64 0 4 0 C2.6302836 3.99500618 0.74277578 6.80009492 -2 10 C-2 8.68 -2 7.36 -2 6 C-1.34 6 -0.68 6 0 6 C0 4.02 0 2.04 0 0 Z " fill="#E97C36" transform="translate(356,384)"/>
<path d="M0 0 C0.66 0 1.32 0 2 0 C2 0.66 2 1.32 2 2 C2.99 2 3.98 2 5 2 C5 5.3 5 8.6 5 12 C4.67 12 4.34 12 4 12 C3.67 9.69 3.34 7.38 3 5 C2.34 5 1.68 5 1 5 C0.67 3.35 0.34 1.7 0 0 Z " fill="#E08747" transform="translate(183,156)"/>
<path d="M0 0 C1.14926266 0.95421808 2.29430541 1.91352045 3.4375 2.875 C4.07558594 3.40867188 4.71367187 3.94234375 5.37109375 4.4921875 C7 6 7 6 8 8 C6.68 8 5.36 8 4 8 C3.67 7.34 3.34 6.68 3 6 C2.01 5.67 1.02 5.34 0 5 C0 3.35 0 1.7 0 0 Z " fill="#EC9E56" transform="translate(243,143)"/>
<path d="M0 0 C0.66 0.66 1.32 1.32 2 2 C1.67 2.33 1.34 2.66 1 3 C1.66 3.33 2.32 3.66 3 4 C3 4.66 3 5.32 3 6 C3.99 6.33 4.98 6.66 6 7 C6 7.66 6 8.32 6 9 C2.67689517 7.83242263 0.16638868 6.85051143 -2 4 C-2 3.01 -2 2.02 -2 1 C-1.34 0.67 -0.68 0.34 0 0 Z " fill="#EB6C15" transform="translate(77,126)"/>
<path d="M0 0 C0.99 0.33 1.98 0.66 3 1 C3.6875 3.0625 3.6875 3.0625 4 5 C1.525 6.485 1.525 6.485 -1 8 C-1.04241723 5.66705225 -1.04092937 3.33297433 -1 1 C-0.67 0.67 -0.34 0.34 0 0 Z " fill="#E8873C" transform="translate(293,453)"/>
<path d="M0 0 C0.33 0.66 0.66 1.32 1 2 C0.26821134 4.07196631 -0.55899003 6.1108552 -1.4375 8.125 C-1.91058594 9.22070312 -2.38367188 10.31640625 -2.87109375 11.4453125 C-3.24363281 12.28835938 -3.61617188 13.13140625 -4 14 C-4.33 14 -4.66 14 -5 14 C-5 12.02 -5 10.04 -5 8 C-4.34 8 -3.68 8 -3 8 C-2.690625 6.865625 -2.38125 5.73125 -2.0625 4.5625 C-1 1 -1 1 0 0 Z " fill="#382633" transform="translate(304,428)"/>
<path d="M0 0 C1.65 0 3.3 0 5 0 C5 0.66 5 1.32 5 2 C5.66 2 6.32 2 7 2 C7.33 3.65 7.66 5.3 8 7 C6.66382648 6.02471263 5.3311249 5.04466681 4 4.0625 C3.2575 3.51722656 2.515 2.97195312 1.75 2.41015625 C1.1725 1.94480469 0.595 1.47945312 0 1 C0 0.67 0 0.34 0 0 Z " fill="#EB8C44" transform="translate(258,241)"/>
<path d="M0 0 C2.64 0.33 5.28 0.66 8 1 C8.66 2.65 9.32 4.3 10 6 C6.40992874 4.66654496 3.20429093 3.1056769 0 1 C0 0.67 0 0.34 0 0 Z " fill="#E48845" transform="translate(205,203)"/>
<path d="M0 0 C1.48280196 0.78483659 2.9611498 1.57809334 4.4375 2.375 C5.67306641 3.03628906 5.67306641 3.03628906 6.93359375 3.7109375 C9 5 9 5 10 7 C7.69 6.67 5.38 6.34 3 6 C2.67 4.68 2.34 3.36 2 2 C1.34 2 0.68 2 0 2 C0 1.34 0 0.68 0 0 Z " fill="#E79B5E" transform="translate(202,110)"/>
<path d="M0 0 C0.66 1.32 1.32 2.64 2 4 C1.01 4 0.02 4 -1 4 C-1 4.99 -1 5.98 -1 7 C-1.99 7 -2.98 7 -4 7 C-3.43628586 3.73045798 -2.50037734 2.17424117 0 0 Z " fill="#F76708" transform="translate(301,445)"/>
<path d="M0 0 C1.65 0 3.3 0 5 0 C5 0.66 5 1.32 5 2 C4.34 2 3.68 2 3 2 C3 2.66 3 3.32 3 4 C2.34 4 1.68 4 1 4 C1 4.66 1 5.32 1 6 C0.01 6.33 -0.98 6.66 -2 7 C-2.33 6.34 -2.66 5.68 -3 5 C-2.01 5 -1.02 5 0 5 C0 3.35 0 1.7 0 0 Z " fill="#E98A49" transform="translate(316,435)"/>
<path d="M0 0 C0.33 0.99 0.66 1.98 1 3 C0.67 3.66 0.34 4.32 0 5 C-1.65 4.67 -3.3 4.34 -5 4 C-5.33 3.01 -5.66 2.02 -6 1 C-4.02 0.67 -2.04 0.34 0 0 Z " fill="#F8680B" transform="translate(94,135)"/>
<path d="M0 0 C0.99 0 1.98 0 3 0 C3.66 2.31 4.32 4.62 5 7 C4.34 6.67 3.68 6.34 3 6 C3 5.34 3 4.68 3 4 C2.01 4 1.02 4 0 4 C-0.33 4.66 -0.66 5.32 -1 6 C-0.67 4.02 -0.34 2.04 0 0 Z " fill="#DB9366" transform="translate(283,102)"/>
<path d="M0 0 C5.75 1.75 5.75 1.75 8 4 C8 4.99 8 5.98 8 7 C7.34 7 6.68 7 6 7 C6 6.34 6 5.68 6 5 C5.38125 4.731875 4.7625 4.46375 4.125 4.1875 C2 3 2 3 0 0 Z " fill="#DE8950" transform="translate(79,47)"/>
<path d="M0 0 C1.65 0 3.3 0 5 0 C5.33 1.32 5.66 2.64 6 4 C6.99 4 7.98 4 9 4 C9 4.66 9 5.32 9 6 C5.06326356 4.68775452 2.77280706 3.08089673 0 0 Z " fill="#526783" transform="translate(230,463)"/>
<path d="M0 0 C0.66 0.99 1.32 1.98 2 3 C2.66 2.67 3.32 2.34 4 2 C2.62845496 4.95409701 1.01136276 7.44008376 -1 10 C-1.125 2.25 -1.125 2.25 0 0 Z " fill="#0E2456" transform="translate(295,438)"/>
<path d="M0 0 C0.99 0.33 1.98 0.66 3 1 C1.625 3 1.625 3 0 5 C-0.66 5 -1.32 5 -2 5 C-2 5.66 -2 6.32 -2 7 C-2.66 7 -3.32 7 -4 7 C-4 5.68 -4 4.36 -4 3 C-2.1875 1.1875 -2.1875 1.1875 0 0 Z " fill="#E3844A" transform="translate(325,428)"/>
<path d="M0 0 C0.33 0 0.66 0 1 0 C1 2.97 1 5.94 1 9 C-0.98 9.99 -0.98 9.99 -3 11 C-2.01 7.37 -1.02 3.74 0 0 Z " fill="#E28E4A" transform="translate(376,243)"/>
<path d="M0 0 C1.98 0.99 1.98 0.99 4 2 C4 2.66 4 3.32 4 4 C4.66 4 5.32 4 6 4 C6.33 5.65 6.66 7.3 7 9 C5 7.625 5 7.625 3 6 C3 5.34 3 4.68 3 4 C2.34 4 1.68 4 1 4 C0.67 2.68 0.34 1.36 0 0 Z " fill="#5F6B8D" transform="translate(308,199)"/>
<path d="M0 0 C3.24299151 2.38957269 5.50902342 4.2047869 7 8 C5.35 7.67 3.7 7.34 2 7 C1.34 4.69 0.68 2.38 0 0 Z " fill="#EA8943" transform="translate(273,176)"/>
<path d="M0 0 C0.66 0 1.32 0 2 0 C2.33 2.97 2.66 5.94 3 9 C2.01 8.67 1.02 8.34 0 8 C0 5.36 0 2.72 0 0 Z " fill="#E38442" transform="translate(372,167)"/>
<path d="M0 0 C0.66 0.33 1.32 0.66 2 1 C1.505 1.70125 1.01 2.4025 0.5 3.125 C-1.1936681 6.37119719 -1.25162315 8.39340156 -1 12 C-3 10 -3 10 -3.3125 7.125 C-2.9736202 3.73620199 -2.27183419 2.46115371 0 0 Z " fill="#E6AE82" transform="translate(139,157)"/>
<path d="M0 0 C3.98381075 2.16264012 6.88983545 4.71211176 10 8 C9.01 8.495 9.01 8.495 8 9 C7.566875 8.525625 7.13375 8.05125 6.6875 7.5625 C4.97690387 5.76313043 4.97690387 5.76313043 2 5 C2 4.01 2 3.02 2 2 C1.34 2 0.68 2 0 2 C0 1.34 0 0.68 0 0 Z " fill="#EF9D6C" transform="translate(212,117)"/>
<path d="M0 0 C3.79303725 1.00193437 6.71536341 1.81024227 10 4 C10 4.66 10 5.32 10 6 C5.56909529 4.79157144 3.01887244 3.48331435 0 0 Z " fill="#DF8749" transform="translate(112,119)"/>
<path d="M0 0 C1.65 1.32 3.3 2.64 5 4 C2 6 2 6 -1 6 C-1 5.01 -1 4.02 -1 3 C-1.66 2.67 -2.32 2.34 -3 2 C-2.01 1.34 -1.02 0.68 0 0 Z " fill="#E18545" transform="translate(354,209)"/>
<path d="M0 0 C2.475 0.495 2.475 0.495 5 1 C5 1.66 5 2.32 5 3 C5.66 3 6.32 3 7 3 C7 3.66 7 4.32 7 5 C4.03 4.505 4.03 4.505 1 4 C0.67 2.68 0.34 1.36 0 0 Z " fill="#E87017" transform="translate(207,116)"/>
<path d="M0 0 C3.77545388 1.09068668 6.47043472 1.9083091 9 5 C5.625 4.75 5.625 4.75 2 4 C0.5625 1.9375 0.5625 1.9375 0 0 Z " fill="#E79861" transform="translate(171,91)"/>
<path d="M0 0 C2.8125 -0.3125 2.8125 -0.3125 6 0 C7.875 2.5 7.875 2.5 9 5 C5.22454612 3.90931332 2.52956528 3.0916909 0 0 Z " fill="#E59C69" transform="translate(103,64)"/>
<path d="M0 0 C1.42944945 2.35438733 2.08661261 3.48032433 1.625 6.25 C1.41875 6.8275 1.2125 7.405 1 8 C0.01 7.34 -0.98 6.68 -2 6 C-1.125 1.125 -1.125 1.125 0 0 Z " fill="#072653" transform="translate(314,363)"/>
<path d="M0 0 C0.33 1.32 0.66 2.64 1 4 C-0.9375 6.25 -0.9375 6.25 -3 8 C-3.66 7.67 -4.32 7.34 -5 7 C-3.35 4.69 -1.7 2.38 0 0 Z " fill="#EDA261" transform="translate(353,291)"/>
<path d="M0 0 C0.99 0 1.98 0 3 0 C3.33 2.64 3.66 5.28 4 8 C3.67 7.01 3.34 6.02 3 5 C2.01 5 1.02 5 0 5 C0 3.35 0 1.7 0 0 Z " fill="#0E2357" transform="translate(350,176)"/>
<path d="M0 0 C2.475 0.99 2.475 0.99 5 2 C4.67 3.32 4.34 4.64 4 6 C2.68 5.34 1.36 4.68 0 4 C0 2.68 0 1.36 0 0 Z " fill="#EE6C14" transform="translate(215,122)"/>
<path d="M0 0 C2.25 0.125 2.25 0.125 5 1 C7.3125 4.0625 7.3125 4.0625 9 7 C5.18315774 5.44499019 2.80804268 2.96404505 0 0 Z " fill="#E29757" transform="translate(95,106)"/>
<path d="M0 0 C3.16130459 4.21507278 3.3367697 5.06071112 3 10 C2.34 10 1.68 10 1 10 C0.67 6.7 0.34 3.4 0 0 Z " fill="#E6701F" transform="translate(316,310)"/>
<path d="M0 0 C2.31 0.33 4.62 0.66 7 1 C6.67 2.65 6.34 4.3 6 6 C3.97945196 4.35830472 1.97956942 2.69088222 0 1 C0 0.67 0 0.34 0 0 Z " fill="#EE8C45" transform="translate(280,262)"/>
<path d="M0 0 C1.98 0.99 1.98 0.99 4 2 C4 2.66 4 3.32 4 4 C6.97 4.495 6.97 4.495 10 5 C10 5.33 10 5.66 10 6 C3.52443609 5.38909774 3.52443609 5.38909774 1.0625 3.5625 C0 2 0 2 0 0 Z " fill="#4D5D7F" transform="translate(323,211)"/>
<path d="M0 0 C0.66 0.33 1.32 0.66 2 1 C1.67 2.32 1.34 3.64 1 5 C-0.32 5 -1.64 5 -3 5 C-3 3.68 -3 2.36 -3 1 C-2.01 0.67 -1.02 0.34 0 0 Z " fill="#F86907" transform="translate(359,205)"/>
<path d="M0 0 C2.83374881 3.20336822 3.5205537 5.78087253 4 10 C3.67 9.34 3.34 8.68 3 8 C2.34 8 1.68 8 1 8 C0.67 5.36 0.34 2.72 0 0 Z " fill="#582F30" transform="translate(353,176)"/>
<path d="M0 0 C1.875 0.3125 1.875 0.3125 4 1 C4.66 1.99 5.32 2.98 6 4 C4.02 4 2.04 4 0 4 C0 2.68 0 1.36 0 0 Z " fill="#EA7D35" transform="translate(258,161)"/>
<path d="M0 0 C2.97 0.495 2.97 0.495 6 1 C6.33 2.65 6.66 4.3 7 6 C1.125 2.25 1.125 2.25 0 0 Z " fill="#E28E55" transform="translate(104,113)"/>
<path d="M0 0 C3.37503669 1.1858237 5.64722731 2.27573689 8 5 C5.125 4.75 5.125 4.75 2 4 C0.625 1.9375 0.625 1.9375 0 0 Z " fill="#E7955C" transform="translate(194,105)"/>
<path d="M0 0 C1.98 0 3.96 0 6 0 C6.33 1.32 6.66 2.64 7 4 C4.97954558 3.39816251 2.97888961 2.72693904 1 2 C0.67 1.34 0.34 0.68 0 0 Z " fill="#E48948" transform="translate(96,60)"/>
<path d="M0 0 C2.475 0.495 2.475 0.495 5 1 C5 1.66 5 2.32 5 3 C6.32 3.33 7.64 3.66 9 4 C9 4.66 9 5.32 9 6 C5.06326356 4.68775452 2.77280706 3.08089673 0 0 Z " fill="#DF8651" transform="translate(87,54)"/>
<path d="M0 0 C2.475 0.495 2.475 0.495 5 1 C3.35 2.65 1.7 4.3 0 6 C0 4.02 0 2.04 0 0 Z " fill="#E7884A" transform="translate(360,206)"/>
<path d="M0 0 C-0.33 0.99 -0.66 1.98 -1 3 C-1.66 3 -2.32 3 -3 3 C-2.34 4.98 -1.68 6.96 -1 9 C-1.99 8.67 -2.98 8.34 -4 8 C-4 5.69 -4 3.38 -4 1 C-2 0 -2 0 0 0 Z " fill="#E27122" transform="translate(183,145)"/>
<path d="M0 0 C0.99 0.495 0.99 0.495 2 1 C2 1.66 2 2.32 2 3 C2.66 3 3.32 3 4 3 C4.33 4.65 4.66 6.3 5 8 C4.01 8.495 4.01 8.495 3 9 C2.01 6.03 1.02 3.06 0 0 Z " fill="#E5A16C" transform="translate(282,125)"/>
</svg>
