<svg width="185" height="135" viewBox="0 0 185 135" fill="none" xmlns="http://www.w3.org/2000/svg">
<path d="M98.846 52.8535H91.6836L90.5846 55.8467H88.8793L94.0711 41.6765H96.3069L101.612 55.8467H99.945L98.846 52.8535ZM98.3533 51.6411L95.208 43.0026L92.1005 51.679H98.3533V51.6411Z" fill="#3C1B63"/>
<path d="M108.623 43.1542V55.8467H107.032V43.1542H102.408V41.6765H113.209V43.1542H108.623Z" fill="#3C1B63"/>
<path d="M116.809 41.6765V54.3691H124.085V55.8467H115.179V41.6765H116.809Z" fill="#3C1B63"/>
<path d="M134.81 52.8535H127.647L126.548 55.8467H124.843L130.073 41.6765H132.308L137.614 55.8467H135.947L134.81 52.8535ZM134.355 51.6411L131.209 43.0026L128.102 51.679H134.355V51.6411Z" fill="#3C1B63"/>
<path d="M151.749 41.6765V55.8467H149.096L143.185 46.1852L142.237 44.5939L141.744 43.7983L141.252 43.0026H141.214V43.533V44.0635V45.1243V55.8088H139.622V41.6765H142.237L147.391 50.1256L148.755 52.361L149.437 53.4597L150.082 54.5585H150.12V54.0281V53.4976V52.4368V41.6765H151.749Z" fill="#3C1B63"/>
<path d="M160.011 43.1542V55.8467H158.419V43.1542H153.796V41.6765H164.558V43.1542H160.011Z" fill="#3C1B63"/>
<path d="M175.283 52.8535H168.12L167.021 55.8467H165.316L170.508 41.6765H172.744L178.049 55.8467H176.382L175.283 52.8535ZM174.828 51.6411L171.683 42.9647L168.575 51.6411H174.828Z" fill="#3C1B63"/>
<path d="M90.1298 76.4578V62.2876H96.0795H96.61C98.2017 62.2876 99.3007 62.5907 99.8691 63.1969C100.438 63.8031 100.741 64.9777 100.741 66.6826C100.741 68.3118 100.438 69.4106 99.8312 70.0168C99.2249 70.623 98.088 70.8882 96.4206 70.8882H95.8142H91.7214V76.4578H90.1298ZM91.7593 69.5242H95.5489C97.1406 69.5242 98.1638 69.3727 98.5806 69.0317C99.0354 68.6907 99.2628 67.9708 99.2628 66.7963C99.2628 65.4323 99.1112 64.5609 98.808 64.182C98.5048 63.8031 97.7848 63.6516 96.6858 63.6516H96.0795H91.7972V69.5242H91.7593Z" fill="#3C1B63"/>
<path d="M116.733 62.2876H118.325V72.2143C118.325 74.0329 117.946 75.2075 117.226 75.7758C116.506 76.3441 114.99 76.6093 112.678 76.6093C110.518 76.6093 109.04 76.3441 108.282 75.7758C107.486 75.2454 107.107 74.1845 107.107 72.669V72.2143V62.2876H108.699V72.2143C108.699 73.5404 108.926 74.4118 109.343 74.7528C109.76 75.0938 110.859 75.2832 112.564 75.2832C114.421 75.2832 115.558 75.1317 116.013 74.7907C116.468 74.4497 116.695 73.6162 116.695 72.2522V62.2876H116.733Z" fill="#3C1B63"/>
<path d="M125.487 76.4578V62.2876H131.778C133.521 62.2876 134.658 62.5149 135.189 63.0075C135.719 63.5 135.984 64.4851 135.984 66.0385C135.984 67.6298 135.378 68.6149 134.165 69.0317V69.0696C135.681 69.4106 136.439 70.5472 136.439 72.4037C136.439 73.9193 136.136 74.9801 135.567 75.5864C134.961 76.1926 133.938 76.4957 132.46 76.4957H125.487V76.4578ZM127.117 68.5013H131.323C132.649 68.5013 133.521 68.3497 133.9 68.0087C134.279 67.7056 134.468 66.9857 134.468 65.887C134.468 64.9398 134.317 64.3336 133.976 64.0305C133.635 63.7652 132.915 63.6137 131.778 63.6137H127.154V68.5013H127.117ZM127.117 75.0938H130.527H131.967C133.18 75.0938 133.976 74.9423 134.355 74.6392C134.734 74.336 134.923 73.6541 134.923 72.6311C134.923 71.3808 134.734 70.5851 134.355 70.3199C133.976 70.0168 132.953 69.9031 131.247 69.9031H127.117V75.0938Z" fill="#3C1B63"/>
<path d="M144.662 62.2876V74.9801H151.939V76.4578H143.033V62.2876H144.662Z" fill="#3C1B63"/>
<path d="M159.442 62.2876V76.4578H157.85V62.2876H159.442Z" fill="#3C1B63"/>
<path d="M175.889 71.7217H177.481V72.2522C177.481 74.1845 177.14 75.3969 176.495 75.8516C175.851 76.3441 174.184 76.5714 171.531 76.5714C169.144 76.5714 167.666 76.1547 167.021 75.2832C166.377 74.4497 166.074 72.4416 166.074 69.2969C166.074 66.8342 166.15 65.2808 166.301 64.6745C166.453 64.0304 166.87 63.4621 167.552 62.9696C168.348 62.4012 170.091 62.0981 172.744 62.0981C174.563 62.0981 175.775 62.3634 176.382 62.9317C177.026 63.5 177.329 64.5609 177.329 66.1901V66.569H175.738V66.1522C175.738 65.0155 175.548 64.2957 175.169 63.9547C174.79 63.6516 173.956 63.4621 172.668 63.4621C170.394 63.4621 168.992 63.6516 168.499 64.0304C168.007 64.4093 167.741 65.4702 167.741 67.1752C167.741 71.1534 167.893 73.4646 168.234 74.1466C168.575 74.8286 169.75 75.1696 171.721 75.1696C173.615 75.1696 174.79 75.018 175.245 74.7149C175.7 74.4118 175.965 73.6919 175.965 72.4795L175.889 71.7217Z" fill="#3C1B63"/>
<path d="M99.8313 86.7256H98.2396C98.2396 85.589 98.0501 84.8691 97.6712 84.566C97.2922 84.2629 96.3827 84.1113 94.9805 84.1113C93.3131 84.1113 92.2141 84.2629 91.7594 84.566C91.2667 84.8691 91.0393 85.5132 91.0393 86.5362C91.0393 87.6728 91.2288 88.3548 91.6078 88.62C91.9867 88.8853 93.1236 89.0368 95.0184 89.1126C97.2164 89.2262 98.6186 89.4915 99.2249 89.9461C99.8313 90.4008 100.134 91.4616 100.134 93.053C100.134 94.7958 99.7934 95.9325 99.1112 96.425C98.4291 96.9554 96.9133 97.1828 94.5258 97.1828C92.4794 97.1828 91.1151 96.9175 90.433 96.425C89.7509 95.8946 89.4098 94.8716 89.4098 93.3182V92.6741H91.0014V93.0151C91.0014 94.2654 91.1909 95.061 91.5699 95.3641C91.9488 95.6672 92.9341 95.8188 94.5637 95.8188C96.3827 95.8188 97.5196 95.6672 97.9365 95.3641C98.3533 95.061 98.5807 94.2275 98.5807 92.9014C98.5807 92.03 98.4291 91.4616 98.1638 91.1585C97.8607 90.8554 97.2922 90.7039 96.3448 90.6281L94.6774 90.5523L93.0857 90.4766C90.6604 90.325 89.4856 89.0747 89.4856 86.7256C89.4856 85.1343 89.8266 84.0356 90.5467 83.5051C91.2288 82.9747 92.631 82.7095 94.7532 82.7095C96.8754 82.7095 98.2396 82.9747 98.8839 83.4672C99.5281 83.9977 99.8313 85.0585 99.8313 86.7256Z" fill="#3C1B63"/>
<path d="M111.693 92.3331H113.284V92.8635C113.284 94.7958 112.943 96.0082 112.299 96.4629C111.655 96.9554 109.987 97.1828 107.335 97.1828C104.947 97.1828 103.469 96.766 102.825 95.8946C102.181 95.061 101.878 93.053 101.878 89.9082C101.878 87.4455 101.953 85.8921 102.105 85.2859C102.257 84.6418 102.674 84.0734 103.356 83.5809C104.151 83.0126 105.895 82.7095 108.547 82.7095C110.366 82.7095 111.579 82.9747 112.185 83.543C112.83 84.1113 113.133 85.1722 113.133 86.8014V87.1803H111.541V86.7635C111.541 85.6269 111.352 84.907 110.973 84.566C110.594 84.2629 109.76 84.0735 108.472 84.0735C106.198 84.0735 104.796 84.2629 104.303 84.6418C103.81 85.0207 103.545 86.0815 103.545 87.7865C103.545 91.7648 103.697 94.0759 104.038 94.7579C104.379 95.4399 105.554 95.7809 107.524 95.7809C109.419 95.7809 110.594 95.6294 111.049 95.3262C111.503 95.0231 111.769 94.3033 111.769 93.0908L111.693 92.3331Z" fill="#3C1B63"/>
<path d="M126.965 82.8611V97.0313H125.373V90.4766H117.112V97.0313H115.52V82.8611H117.112V89.1126H125.373V82.8611H126.965Z" fill="#3C1B63"/>
<path d="M135.226 82.7473C137.917 82.7473 139.585 83.1262 140.267 83.9218C140.949 84.7175 141.29 86.6498 141.29 89.7945C141.29 93.1666 140.987 95.2504 140.342 96.0461C139.698 96.8417 137.993 97.2206 135.264 97.2206C132.536 97.2206 130.868 96.8417 130.186 96.0461C129.542 95.2504 129.201 93.2423 129.201 89.984V88.9989V87.6728C129.201 85.7784 129.618 84.5281 130.489 83.8082C131.323 83.0883 132.915 82.7473 135.226 82.7473ZM135.226 84.1113C132.991 84.1113 131.664 84.3765 131.285 84.8691C130.906 85.3616 130.717 87.0666 130.717 89.984C130.717 92.9013 130.906 94.6063 131.285 95.0989C131.664 95.5914 132.991 95.8566 135.226 95.8566C137.462 95.8566 138.789 95.5914 139.168 95.0989C139.547 94.6063 139.736 92.9013 139.736 89.984V89.0746V87.7486C139.736 86.1951 139.471 85.21 138.94 84.7933C138.41 84.3007 137.159 84.1113 135.226 84.1113Z" fill="#3C1B63"/>
<path d="M148.642 82.7473C151.332 82.7473 153 83.1262 153.682 83.9218C154.364 84.7175 154.705 86.6498 154.705 89.7945C154.705 93.1666 154.364 95.2504 153.72 96.0461C153.076 96.8417 151.37 97.2206 148.642 97.2206C145.913 97.2206 144.246 96.8417 143.564 96.0461C142.919 95.2504 142.578 93.2423 142.578 89.984V88.9989V87.6728C142.578 85.7784 142.995 84.5281 143.867 83.8082C144.738 83.0883 146.33 82.7473 148.642 82.7473ZM148.642 84.1113C146.406 84.1113 145.079 84.3765 144.7 84.8691C144.321 85.3616 144.132 87.0666 144.132 89.984C144.132 92.9013 144.321 94.6063 144.7 95.0989C145.079 95.5914 146.406 95.8566 148.642 95.8566C150.878 95.8566 152.204 95.5914 152.583 95.0989C152.962 94.6063 153.151 92.9013 153.151 89.984V89.0746V87.7486C153.151 86.1951 152.886 85.21 152.355 84.7933C151.825 84.3007 150.612 84.1113 148.642 84.1113Z" fill="#3C1B63"/>
<path d="M158.495 82.8611V95.5536H165.771V97.0313H156.865V82.8611H158.495Z" fill="#3C1B63"/>
<path d="M177.291 86.7256H175.7C175.7 85.589 175.51 84.8691 175.131 84.566C174.752 84.2629 173.843 84.1113 172.441 84.1113C170.773 84.1113 169.674 84.2629 169.181 84.566C168.689 84.8691 168.461 85.5132 168.461 86.5362C168.461 87.6728 168.651 88.3548 169.03 88.62C169.409 88.8853 170.546 89.0368 172.441 89.1126C174.639 89.2262 176.041 89.4915 176.647 89.9461C177.253 90.4008 177.557 91.4616 177.557 93.053C177.557 94.7958 177.215 95.9325 176.533 96.425C175.851 96.9554 174.335 97.1828 171.948 97.1828C169.902 97.1828 168.537 96.9175 167.855 96.425C167.173 95.8946 166.832 94.8716 166.832 93.3182V92.6741H168.424V93.0151C168.424 94.2654 168.613 95.061 168.992 95.3641C169.371 95.6672 170.356 95.8188 171.986 95.8188C173.805 95.8188 174.942 95.6672 175.359 95.3641C175.775 95.061 176.003 94.2275 176.003 92.9014C176.003 92.03 175.851 91.4616 175.586 91.1585C175.283 90.8554 174.714 90.7039 173.767 90.6281L172.099 90.5523L170.508 90.4766C168.082 90.325 166.908 89.0747 166.908 86.7256C166.908 85.1343 167.249 84.0356 167.969 83.5051C168.651 82.9747 170.053 82.7095 172.175 82.7095C174.297 82.7095 175.662 82.9747 176.306 83.4672C176.988 83.9977 177.291 85.0585 177.291 86.7256Z" fill="#3C1B63"/>
<path d="M42.3804 43.1919L61.177 88.1273C61.7454 89.4156 62.3139 90.2491 62.9581 90.7038C63.6024 91.1584 64.4361 91.3857 65.4972 91.3857H67.3541V94.5683H43.7826V91.3857H45.9806C47.7238 91.3857 48.9365 91.1963 49.5807 90.8174C50.225 90.4385 50.566 89.9081 50.566 89.3019C50.566 88.8093 50.4144 88.241 50.1492 87.559L46.3216 78.2385H27.5251L25.7439 82.482C24.986 84.2628 24.607 85.551 24.607 86.4224C24.607 87.9 25.1376 89.0746 26.2366 90.0218C27.3356 90.9311 28.8135 91.3857 30.7084 91.3857H32.3V94.5683H13.2382V91.3857H14.3372C15.5498 91.3857 16.6488 91.0069 17.5962 90.2112C18.9226 89.1124 19.9458 87.7106 20.6658 86.0435L38.6666 43.1541H42.3804V43.1919ZM36.9234 55.8466L28.9651 74.8665H44.9195L36.9234 55.8466Z" fill="#3C1B63"/>
<path d="M74.3649 37.2056H6.26526V101.237H74.3649V37.2056Z" stroke="#3C1B63" stroke-width="4.1807"/>
<path d="M11.7223 78.2765C12.4803 78.5038 13.2761 78.5038 14.034 78.4659C14.8298 78.428 15.512 78.6932 16.1941 78.9963C16.8762 79.2994 17.5584 79.5647 18.3542 79.451C19.3395 79.2994 20.2869 79.4889 21.2343 79.7162C22.1817 79.9435 23.167 80.2088 24.1902 80.0572C25.1376 79.9435 26.0471 79.792 26.9946 79.6783C27.942 79.5268 28.8515 79.3373 29.7989 79.2237C30.2536 79.1479 30.7463 79.11 31.201 79.0721C31.6558 78.9963 32.1485 78.9584 32.6032 78.9206C33.058 78.8827 33.5506 78.8448 34.0054 78.8448C34.4601 78.8448 34.9528 78.8448 35.4075 78.8448C36.2792 78.8827 37.1508 78.8827 38.0224 78.8827C38.4771 78.8827 38.894 78.8448 39.3109 78.8448C39.7277 78.8069 40.1825 78.8069 40.5993 78.769C41.0162 78.7311 41.4709 78.6932 41.8878 78.6932C42.3047 78.6553 42.7215 78.5796 43.1763 78.5417C44.01 78.428 44.8816 78.3522 45.7153 78.2386C49.0881 77.7081 52.423 77.0261 55.9852 76.3063C56.5158 76.1926 57.0084 76.0789 57.539 75.9274C58.0695 75.7758 58.6001 75.6622 59.1306 75.4727C59.6612 75.2833 60.1917 75.0938 60.7223 74.9044C60.9875 74.7907 61.2528 74.715 61.5181 74.6013C61.7834 74.4876 62.0486 74.374 62.3139 74.2603C63.3371 73.7678 64.3982 73.2752 65.3456 72.6311C65.8383 72.328 66.293 72.0249 66.7857 71.6839C67.2783 71.3808 67.6952 71.0019 68.112 70.6609C68.7563 70.1305 69.59 69.5622 70.4237 68.8044C70.8406 68.4634 71.2953 68.0845 71.7501 67.7057C72.2048 67.3268 72.6217 66.8721 73.0765 66.4553C73.9481 65.6218 74.706 64.7125 75.3502 63.8789C75.9945 63.0454 76.4113 62.174 76.6008 61.4162C74.5923 64.5609 71.409 67.0237 68.3015 68.8423C71.2953 66.2659 74.0997 63.3485 76.4492 60.1659C78.7988 56.9833 80.6936 53.4597 81.9063 49.8982C80.6557 53.1945 78.9504 56.3771 76.7524 59.1808C74.5923 62.0224 71.9775 64.523 69.1352 66.5311C66.2551 68.5392 63.1097 70.0926 59.8885 71.0777C56.6674 72.0628 53.3325 72.4796 50.1492 72.4417C53.5978 71.7597 57.3495 70.6609 61.0254 68.9939C64.7014 67.3268 68.3394 65.0535 71.4469 62.174C74.5923 59.2945 77.2072 55.9224 79.0641 52.2852C80.921 48.6479 81.9821 44.8212 82.1716 41.1081C82.2095 39.9715 82.1716 38.7212 81.9063 37.7361C82.2474 41.4112 81.6031 45.3137 80.1252 49.0268C78.6472 52.7398 76.3355 56.2634 73.4554 59.2566C70.5753 62.2498 67.1646 64.7504 63.6024 66.6069C60.0401 68.4634 56.3642 69.7137 52.8777 70.5473C49.6565 71.305 46.4733 71.7976 43.2521 72.1765C42.4562 72.2522 41.6225 72.328 40.8267 72.4417C40.0309 72.4796 39.1972 72.5553 38.4013 72.6311C37.6055 72.7448 36.7718 72.7448 35.976 72.8206C35.1802 72.8584 34.3464 72.9721 33.5506 73.01C32.6411 72.9721 31.7695 72.9721 30.86 72.9721C29.9505 72.9342 29.0789 72.8963 28.1693 72.8584C24.4934 72.669 20.8175 72.4038 17.1036 72.1386C15.4362 72.0628 13.2382 71.7218 11.116 71.8355C8.95591 71.8355 6.94741 72.2143 6 73.5404C7.0611 73.8814 8.34957 73.7678 9.33487 74.1845C8.88012 74.374 8.34957 74.6013 7.85692 74.6771C8.31167 74.7529 8.76643 74.9423 9.22119 74.8665C8.84222 74.9423 8.46326 75.056 8.27378 75.3212C8.80433 75.5106 9.63805 75.2454 10.0928 75.1317C10.3581 75.0938 11.6466 74.5634 11.9118 74.7529C11.4571 74.9802 10.9265 75.1696 10.396 75.3591C9.86542 75.5485 9.37277 75.7758 8.95591 76.0411C9.25908 76.1168 9.52436 76.1547 9.78963 76.2684C9.37277 76.4578 8.69064 76.4199 8.42536 76.723C9.14539 76.8367 9.82753 76.7988 10.5855 76.9125C11.1918 77.0261 11.7602 77.1777 12.3666 77.1019C11.6087 77.2535 10.6233 77.2914 10.017 77.6702C10.3202 77.8218 10.6991 77.8218 11.0402 77.8218C11.0023 77.8597 10.9644 77.8976 10.9265 77.9734C11.0781 77.9734 11.2676 78.087 11.4192 78.087C11.4192 78.1628 11.4192 78.2386 11.3813 78.3144L11.4192 78.1249" fill="#3C1B63"/>
<path d="M11.7981 72.4795C12.4802 72.5553 13.5034 72.6689 14.1098 72.9342L11.7981 72.4795Z" fill="#3C1B63"/>
</svg>
