<svg width="185" height="135" viewBox="0 0 185 135" fill="none" xmlns="http://www.w3.org/2000/svg">
<path d="M147.271 58.3573C147.271 52.9267 147.271 47.4693 147.271 42.0388C147.271 40.8021 147.056 40.8021 148.481 40.829C150.956 40.8559 153.404 40.8559 155.878 40.8559C158.487 40.8559 161.123 40.8021 163.732 40.8827C167.175 40.9634 170.483 41.7161 173.55 43.3561C177.154 45.3186 179.682 48.1952 181 52.0933C181.565 53.7064 181.807 55.3732 181.941 57.0937C182.13 59.4864 181.861 61.8253 181.188 64.1373C180.032 68.1699 177.557 71.154 173.98 73.3047C171.398 74.864 168.547 75.5899 165.588 75.9125C164.351 76.0469 163.14 76.0469 161.903 76.0469C157.357 76.0469 152.812 76.0469 148.266 76.0469C147.271 76.0469 147.271 76.0469 147.271 75.0522C147.271 69.4603 147.271 63.8954 147.271 58.3573ZM159.321 58.3573C159.321 60.508 159.321 62.6587 159.321 64.8094C159.321 65.4009 159.348 65.4278 159.913 65.4546C161.258 65.5084 162.602 65.6159 163.947 65.374C166.61 64.917 168.493 63.519 169.38 60.8575C169.703 59.8897 169.757 58.895 169.757 57.8734C169.703 54.3247 167.067 51.5825 163.544 51.3406C162.414 51.2599 161.258 51.2868 160.128 51.2599C159.402 51.233 159.375 51.2868 159.375 52.0127C159.321 54.1365 159.321 56.2603 159.321 58.3573Z" fill="#3C1B63"/>
<path d="M107.84 51.0987C107.84 53.9753 107.867 56.825 107.84 59.7016C107.813 62.1749 107.356 64.5945 106.522 66.9334C104.935 71.2617 101.976 74.2189 97.5921 75.6706C95.9514 76.2083 94.2569 76.5309 92.5355 76.6653C89.792 76.9073 87.0754 76.746 84.3857 76.0739C81.7498 75.4287 79.3559 74.2996 77.4193 72.337C75.2945 70.1594 74.0034 67.5517 73.331 64.5945C72.82 62.39 72.6586 60.1317 72.6586 57.8735C72.6586 52.4429 72.6586 47.0393 72.6586 41.6087C72.6586 41.4743 72.6586 41.3399 72.6586 41.2055C72.6586 40.8829 72.8199 40.7484 73.1158 40.7753C73.2503 40.7753 73.3848 40.7753 73.5193 40.7753C77.0697 40.7753 80.647 40.7753 84.1974 40.7753C84.2512 40.7753 84.3319 40.7753 84.3857 40.7753C84.8698 40.8022 84.9236 40.8291 84.9505 41.313C84.9505 41.4743 84.9505 41.6356 84.9505 41.77C84.9505 47.4694 84.9505 53.1419 84.9505 58.8413C84.9505 59.9435 85.0581 61.0189 85.4078 62.0943C86.1071 64.1106 87.8285 65.401 89.9803 65.4279C90.9217 65.4548 91.8631 65.3741 92.7238 64.9171C94.0955 64.1912 94.8217 63.0083 95.2252 61.5835C95.5211 60.5619 95.5749 59.5134 95.5749 58.4649C95.5749 52.8462 95.5749 47.2275 95.5749 41.6087C95.5749 41.4743 95.5749 41.3399 95.5749 41.2055C95.5749 40.9635 95.6824 40.8291 95.9514 40.8022C96.1128 40.8022 96.2742 40.8022 96.4087 40.8022C99.9591 40.8022 103.483 40.8022 107.033 40.8022C107.167 40.8022 107.302 40.8022 107.436 40.8022C107.679 40.8022 107.813 40.9366 107.813 41.1786C107.813 41.3668 107.813 41.5818 107.813 41.77C107.84 44.8886 107.84 48.0071 107.84 51.0987Z" fill="#3C1B63"/>
<path d="M116.743 63.8416C118.572 63.8416 120.428 63.8416 122.257 63.8416C122.714 63.8416 122.956 63.9761 123.144 64.4331C124.059 66.6376 126.56 67.7129 128.847 66.9602C129.223 66.8258 129.546 66.6644 129.815 66.3956C130.38 65.831 130.38 65.0514 129.842 64.46C129.438 64.0029 128.874 63.8416 128.309 63.6803C127.233 63.3846 126.13 63.1158 125.054 62.82C122.902 62.2555 120.751 61.7985 118.68 60.9651C117.765 60.6156 116.851 60.2123 116.017 59.6746C113.784 58.3036 112.386 56.3679 112.09 53.7333C111.821 51.3944 112.009 49.1361 113.058 46.9854C114.349 44.3239 116.474 42.6034 119.137 41.4473C120.804 40.7215 122.607 40.372 124.409 40.1569C127.771 39.7805 131.079 40.0763 134.307 41.0979C135.867 41.5818 137.292 42.3345 138.61 43.3023C140.923 44.9691 142.241 47.2543 142.941 49.9695C143.075 50.5072 143.21 51.0449 143.237 51.6095C143.263 52.0665 143.183 52.1203 142.752 52.1471C142.457 52.174 142.161 52.1471 141.892 52.1471C138.556 52.1471 135.221 52.1203 131.886 52.1471C131.294 52.1471 130.972 52.0127 130.729 51.4213C129.923 49.3512 128.04 48.8942 126.318 49.3781C125.915 49.4856 125.565 49.7007 125.296 50.0233C124.785 50.6416 124.866 51.5557 125.485 52.0665C125.834 52.3622 126.265 52.5235 126.695 52.6311C128.201 53.0343 129.761 53.33 131.267 53.6795C133.312 54.1365 135.383 54.5398 137.346 55.3194C138.395 55.7496 139.363 56.2873 140.278 56.9594C141.972 58.196 143.075 59.8628 143.532 61.906C144.178 64.8095 143.936 67.6054 142.483 70.24C141.461 72.0681 139.982 73.4392 138.153 74.4339C135.732 75.7243 133.123 76.3695 130.38 76.6115C129.223 76.719 128.067 76.7728 126.883 76.7459C123.871 76.6653 120.966 76.1545 118.195 74.8909C114.779 73.3317 112.547 70.7239 111.283 67.229C110.96 66.3687 110.772 65.4816 110.584 64.5675C110.449 63.8416 110.503 63.7879 111.202 63.7879C113.085 63.8148 114.914 63.8148 116.743 63.8416Z" fill="#3C1B63"/>
<path d="M67.6827 76.1276C65.7999 76.1276 63.9171 76.1276 62.0343 76.1276C61.2812 76.1276 61.2812 76.1276 61.0391 75.4286C60.6894 74.4608 60.3398 73.493 60.017 72.4982C59.9094 72.1488 59.7211 72.0143 59.3446 72.0412C55.6866 72.1219 52.0286 72.095 48.3975 72.0412C48.0209 72.0412 47.8326 72.1488 47.6982 72.4982C47.3754 73.493 47.0257 74.4877 46.6761 75.4824C46.4609 76.1007 46.4609 76.1007 45.8154 76.1007C42.0229 76.1007 38.2304 76.1276 34.4648 76.1007C33.4696 76.1007 33.4427 76.1276 33.8462 75.1598C36.1324 69.5948 38.3649 64.0029 40.6511 58.4111C42.5608 53.7064 44.4705 49.0017 46.4071 44.297C46.8106 43.3023 47.2409 42.3076 47.6175 41.3129C47.7788 40.8828 48.0209 40.6946 48.4513 40.6946C48.6127 40.6946 48.774 40.6946 48.9085 40.6946C52.19 40.6946 55.4983 40.6946 58.7797 40.6946C59.9094 40.6946 59.9094 40.6946 60.3129 41.7431C62.115 46.1789 63.9171 50.6147 65.7192 55.0506C68.0592 60.8037 70.3993 66.5838 72.7393 72.3369C73.1697 73.3854 73.6 74.4608 74.0035 75.5092C74.1918 75.9663 74.138 76.02 73.6807 76.0469C72.4166 76.1276 71.1255 76.0738 69.8613 76.1007C69.1082 76.1276 68.382 76.1276 67.6827 76.1276ZM53.8576 54.8086C53.6962 54.9162 53.6424 55.1044 53.5886 55.2925C52.8086 57.5239 52.0555 59.7284 51.2755 61.9598C51.0872 62.5243 51.0872 62.5512 51.7327 62.5512C53.0776 62.5512 54.4224 62.5512 55.7673 62.5512C56.5742 62.5512 56.5742 62.5512 56.3052 61.7716C55.5252 59.5133 54.7452 57.2551 53.9383 54.9699C53.9383 54.8893 53.8845 54.8624 53.8576 54.8086Z" fill="#3C1B63"/>
<path d="M2.05371 58.4111C2.05371 52.8462 2.05371 47.3081 2.05371 41.7431C2.05371 40.5333 2.08061 40.7215 3.0758 40.7215C6.49173 40.7215 9.88076 40.7215 13.2967 40.7215C14.3457 40.7215 14.2381 40.614 14.2381 41.6625C14.2381 49.3244 14.2381 56.9863 14.2381 64.6482C14.2381 65.7773 14.1843 65.6429 15.2602 65.6429C19.9134 65.6429 24.5935 65.6429 29.2466 65.6429C30.3494 65.6429 30.2418 65.616 30.2418 66.6107C30.2418 69.4336 30.2418 72.2564 30.2418 75.0792C30.2418 75.2674 30.2418 75.4287 30.2418 75.6169C30.2418 75.8857 30.1342 76.047 29.8384 76.047C29.5425 76.047 29.2466 76.0739 28.9777 76.0739C20.3437 76.0739 11.7367 76.0739 3.1027 76.0739C2.05371 76.0739 2.08061 76.0739 2.08061 75.0523C2.05371 69.5142 2.05371 63.9492 2.05371 58.4111Z" fill="#3C1B63"/>
<path d="M18.9452 85.7252C18.8645 86.1284 18.9183 86.5317 18.9183 86.9081C18.9183 89.005 18.9183 91.1288 18.9183 93.2258C18.9183 93.3333 18.9183 93.4409 18.9183 93.5484C18.9183 93.7904 18.7838 93.9248 18.5417 93.9248C17.681 93.9248 16.8472 93.9248 15.9865 93.9248C15.7713 93.9248 15.6637 93.8172 15.6637 93.6022C15.6637 93.3871 15.6637 93.1451 15.6637 92.9301C15.6637 89.1126 15.6637 85.3219 15.6637 81.5044C15.6637 81.0474 15.6368 80.5635 15.6368 80.1064C15.6368 79.8107 15.7175 79.6494 16.0672 79.6494C16.8203 79.6494 17.6003 79.6494 18.3534 79.6494C18.6493 79.6494 18.8376 79.7838 18.999 80.0258C20.5052 82.284 22.0114 84.5423 23.5446 86.7737C23.8136 87.1769 24.0287 87.6339 24.4053 87.9297C24.6205 87.7952 24.5667 87.6339 24.5398 87.4995C24.4591 85.1068 24.5129 82.7142 24.5129 80.3215C24.5129 79.6763 24.5398 79.6494 25.2122 79.6494C25.8846 79.6494 26.5571 79.6494 27.2295 79.6494C27.7943 79.6494 27.7943 79.6763 27.8212 80.214C27.8212 80.2946 27.8212 80.4022 27.8212 80.4828C27.8212 84.7036 27.8212 88.8975 27.8212 93.1183C27.8212 93.9517 27.8212 93.9517 27.0143 93.9517C26.4495 93.9517 25.8846 93.9248 25.3467 93.9517C24.8625 93.9785 24.5667 93.7904 24.2977 93.3871C23.168 91.6665 21.9845 89.9728 20.828 88.2792C20.3169 87.5264 19.8059 86.8005 19.3217 86.0478C19.2141 85.9134 19.1604 85.7789 18.9452 85.7252Z" fill="#3C1B63"/>
<path d="M61.308 86.7467C61.308 84.6498 61.308 82.5259 61.308 80.429C61.308 80.3483 61.308 80.2408 61.308 80.1601C61.3349 79.6494 61.3349 79.6225 61.846 79.5956C62.1418 79.5956 62.4377 79.5956 62.7067 79.5956C64.2667 79.5956 65.8536 79.5687 67.4137 79.6225C69.1889 79.6762 70.7489 80.3215 72.0131 81.5581C73.1965 82.7141 73.8959 84.1121 74.0572 85.752C74.1379 86.5854 74.111 87.3919 73.9765 88.2253C73.4655 91.4245 70.6682 93.7903 67.3868 93.8709C65.5847 93.8978 63.8095 93.8978 62.0074 93.8978C61.308 93.8978 61.2811 93.8978 61.2811 93.1988C61.308 91.0481 61.3349 88.8974 61.308 86.7467ZM64.6433 86.7736C64.6164 86.7736 64.6164 86.7736 64.6433 86.7736C64.6164 87.9296 64.6164 89.1125 64.6164 90.2685C64.6164 90.7524 64.6702 90.8331 65.1274 90.8331C65.8805 90.8331 66.6605 90.8599 67.4137 90.8062C69.2965 90.6986 70.6144 89.3813 70.722 87.4995C70.7489 87.0962 70.7489 86.6929 70.722 86.2897C70.5875 84.2196 69.2965 82.9023 67.2254 82.7679C66.4992 82.7141 65.7998 82.741 65.0736 82.741C64.6433 82.741 64.6433 82.7679 64.6433 83.2249C64.6164 84.3809 64.6433 85.5907 64.6433 86.7736Z" fill="#3C1B63"/>
<path d="M2.08069 84.5423C2.08069 83.1444 2.08069 81.7733 2.08069 80.3753C2.08069 79.6226 2.08069 79.6226 2.80691 79.6226C3.45244 79.6226 4.09797 79.6226 4.7435 79.6226C5.28144 79.6226 5.30834 79.6763 5.30834 80.214C5.30834 81.8002 5.30834 83.3863 5.30834 84.9725C5.30834 85.994 5.30834 87.0425 5.30834 88.0641C5.30834 88.2523 5.30834 88.4674 5.33524 88.6556C5.52352 90.8332 7.11044 91.3439 8.75116 90.9676C9.77325 90.7525 10.2574 89.9729 10.3919 88.9782C10.4726 88.3867 10.4995 87.7684 10.4995 87.1769C10.4995 84.9456 10.5533 82.6873 10.4726 80.456C10.4726 80.3484 10.4726 80.2409 10.4726 80.1334C10.4995 79.6763 10.5264 79.6226 10.9836 79.6226C11.7098 79.6226 12.463 79.6226 13.1892 79.6226C13.7271 79.6226 13.754 79.6763 13.754 80.214C13.754 82.0152 13.754 83.8433 13.754 85.6446C13.754 86.8543 13.8347 88.0641 13.6464 89.2739C13.5388 89.9998 13.4313 90.7256 13.0547 91.3977C12.0864 93.1452 10.5533 94.0323 8.56288 94.1668C7.56769 94.2205 6.5456 94.1936 5.57731 93.8441C4.07107 93.3065 3.02209 92.3118 2.45725 90.8063C2.13448 89.946 2 89.0857 2 88.1716C2.08069 86.9619 2.08069 85.7521 2.08069 84.5423Z" fill="#3C1B63"/>
<path d="M51.141 86.7737C51.141 84.6767 51.141 82.5529 51.141 80.456C51.141 80.3484 51.141 80.2409 51.141 80.1334C51.1679 79.6494 51.1948 79.6494 51.6251 79.6226C51.7058 79.6226 51.8134 79.6226 51.8941 79.6226C54.2342 79.6226 56.5473 79.6226 58.8873 79.6226C58.9949 79.6226 59.1025 79.6226 59.2101 79.6226C59.4791 79.6226 59.6405 79.757 59.6405 80.0258C59.6405 80.8055 59.6136 81.5851 59.6136 82.3647C59.6136 82.7411 59.3446 82.7142 59.1025 82.7142C57.9459 82.7142 56.7625 82.7142 55.6059 82.7142C54.4493 82.7142 54.4493 82.7142 54.4224 83.8702C54.3955 85.1338 54.3148 84.9725 55.5252 84.9725C56.4397 84.9725 57.3542 84.9725 58.2687 84.9725C58.8336 84.9725 58.8604 84.9993 58.8873 85.5908C58.8873 86.236 58.8873 86.8812 58.8873 87.5264C58.8873 88.0372 58.8604 88.0641 58.3494 88.091C57.2197 88.1716 56.1169 88.1448 54.9873 88.1179C54.4224 88.1179 54.4224 88.1179 54.4224 88.6556C54.4224 89.1663 54.3955 89.6771 54.3955 90.1879C54.3955 90.6718 54.4493 90.7256 54.9335 90.7256C56.1707 90.7256 57.408 90.7256 58.6184 90.7256C58.726 90.7256 58.8336 90.7256 58.9411 90.7256C59.5867 90.7256 59.6136 90.7794 59.6136 91.4246C59.6136 92.0429 59.6136 92.6881 59.5867 93.3065C59.5867 93.7635 59.5598 93.8173 59.1025 93.8173C56.628 93.8173 54.1266 93.8173 51.652 93.8173C51.141 93.8173 51.141 93.7904 51.141 93.1989C51.141 91.1289 51.141 88.9513 51.141 86.7737Z" fill="#3C1B63"/>
<path d="M35.3254 86.7735C35.3254 84.6227 35.3254 82.472 35.3254 80.3213C35.3254 79.6223 35.3254 79.5955 36.0248 79.5955C38.3648 79.5955 40.678 79.5955 43.018 79.5955C43.6635 79.5955 43.6635 79.6223 43.6635 80.2407C43.6635 80.859 43.6635 81.5042 43.6635 82.1225C43.6635 82.6871 43.6366 82.714 43.0449 82.714C41.7807 82.714 40.4897 82.714 39.2255 82.714C38.58 82.714 38.5531 82.714 38.5531 83.3861C38.5531 83.7625 38.5531 84.1388 38.5531 84.5152C38.5531 85.1335 38.58 85.1604 39.1986 85.1604C40.0593 85.1604 40.8931 85.1604 41.7538 85.1335C41.8883 85.1335 42.0228 85.1335 42.1573 85.1335C42.8835 85.1604 42.9104 85.1873 42.9104 85.9132C42.9104 86.4509 42.9104 86.9885 42.9104 87.5262C42.9104 88.2521 42.9104 88.2521 42.2111 88.2521C41.2159 88.2521 40.2476 88.2521 39.2524 88.2521C38.58 88.2521 38.58 88.2521 38.58 88.9242C38.58 90.2953 38.58 91.6663 38.58 93.0105C38.58 93.1987 38.58 93.36 38.58 93.5482C38.58 93.7633 38.4455 93.8708 38.2303 93.8708C37.3696 93.8708 36.5358 93.8708 35.6751 93.8708C35.4599 93.8708 35.3523 93.7633 35.3523 93.5482C35.3523 93.36 35.3523 93.1987 35.3523 93.0105C35.3254 90.9405 35.3254 88.8704 35.3254 86.7735Z" fill="#3C1B63"/>
<path d="M49.016 86.8274C49.016 89.005 49.016 91.1557 49.016 93.3333C49.016 93.871 49.016 93.8978 48.4511 93.8978C47.698 93.8978 46.918 93.8978 46.1649 93.8978C45.8421 93.8978 45.7077 93.7634 45.7345 93.4677C45.7345 93.0644 45.7345 92.6612 45.7345 92.2579C45.7345 88.3329 45.7345 84.4347 45.7345 80.5097C45.7345 80.3484 45.7345 80.187 45.7345 80.0526C45.7345 79.73 45.869 79.5956 46.1918 79.6225C46.9718 79.6225 47.7518 79.6225 48.5318 79.6225C48.8277 79.6225 48.9891 79.7569 48.9891 80.0795C48.9891 80.2677 48.9891 80.4828 48.9891 80.671C48.9891 82.741 48.9891 84.7842 48.9891 86.8543C48.9891 86.8274 48.9891 86.8274 49.016 86.8274Z" fill="#3C1B63"/>
<path d="M33.1199 86.8812C33.1199 89.0319 33.1199 91.1826 33.1199 93.3334C33.1199 93.8979 33.1199 93.8979 32.582 93.9248C31.8557 93.9248 31.1564 93.9248 30.4302 93.9248C29.8923 93.9248 29.8654 93.8979 29.8654 93.3334C29.8654 92.4193 29.8654 91.5052 29.8654 90.5912C29.8654 87.2307 29.8654 83.8702 29.8654 80.5097C29.8654 80.456 29.8654 80.4291 29.8654 80.3753C29.8654 79.6494 29.8654 79.6226 30.6185 79.6226C31.2371 79.6226 31.8826 79.6226 32.5013 79.6226C33.0661 79.6226 33.093 79.6763 33.1199 80.2409C33.1468 80.8055 33.1199 81.37 33.1199 81.9077C33.1199 83.5745 33.1199 85.2144 33.1199 86.8812Z" fill="#3C1B63"/>
</svg>
