<svg width="185" height="135" viewBox="0 0 185 135" fill="none" xmlns="http://www.w3.org/2000/svg">
<path d="M124.329 45.8963C124.357 46.1197 124.496 46.1756 124.664 46.2873C126.615 47.4323 128.01 49.0241 128.735 51.2303C129.069 52.2077 129.264 53.1852 129.264 54.2184C129.264 61.2001 129.292 68.2096 129.264 75.1913C129.264 77.9839 128.121 80.3018 125.946 82.0891C124.273 83.4575 122.349 84.0998 120.174 84.0719C115.518 84.044 110.861 84.0719 106.204 84.0719C103.89 84.0719 101.575 84.044 99.2332 84.0719C97.4765 84.0998 95.8871 83.6251 94.4372 82.7035C93.0987 81.8657 92.0391 80.7207 91.342 79.2965C91.2863 79.1568 91.2026 79.0172 91.119 78.8776C91.0911 78.8217 91.0353 78.7938 90.9517 78.71C90.5334 78.9893 90.4776 79.492 90.2546 79.855C89.6132 80.8324 88.8603 81.6423 87.9402 82.3405C87.2152 82.8711 86.4623 83.29 85.6258 83.5972C84.9287 83.8206 84.2316 84.044 83.4787 84.044C82.7537 84.044 82.0009 84.0719 81.2759 84.0719C74.8625 84.0719 68.4213 84.0719 62.008 84.0719C60.7811 84.0719 59.6099 83.9881 58.4667 83.5134C56.9609 82.899 55.6783 82.0333 54.6745 80.7487C53.9495 79.8271 53.3639 78.8497 53.0572 77.7605C52.862 77.0065 52.611 76.2804 52.611 75.4705C52.611 68.1817 52.5831 60.9208 52.6389 53.632C52.6389 52.4032 53.0014 51.2024 53.5591 50.1132C54.0889 49.08 54.7581 48.1305 55.6783 47.3485C56.1244 46.9575 56.6263 46.6224 57.1282 46.3152C57.2956 46.2035 57.4629 46.1197 57.5465 45.8963C56.7936 45.4495 56.0408 45.0027 55.3994 44.3883C54.786 43.746 54.2283 43.0757 53.7822 42.2938C53.3081 41.456 53.0293 40.5903 52.8062 39.6408C52.6668 38.9426 52.5831 38.2724 52.5831 37.6021C52.5831 30.6205 52.5553 23.6668 52.611 16.6852C52.611 14.451 53.4754 12.4682 55.0091 10.7927C55.8456 9.87108 56.7936 9.14499 57.909 8.67024C58.6898 8.33512 59.4984 8.02793 60.3907 8.02793C60.8647 8.02793 61.3387 8 61.7849 8C68.6723 8 75.5596 8 82.447 8C82.921 8 83.3951 8.02793 83.8412 8.02793C84.4825 8.05585 85.096 8.27927 85.7094 8.47475C86.5738 8.75402 87.3267 9.2567 88.0517 9.7873C89.1113 10.5413 89.8084 11.5467 90.5055 12.6079C90.6449 12.8034 90.5613 13.2502 90.868 13.2502C91.1747 13.2502 91.2305 12.8592 91.342 12.6079C92.2064 11.0161 93.4333 9.7873 95.0227 8.9495C96.2775 8.27927 97.616 8 99.038 8C106.121 8 113.231 8.02793 120.314 8C121.54 8 122.74 8.16756 123.799 8.67024C125.444 9.42425 126.811 10.5692 127.787 12.1052C128.261 12.8592 128.679 13.6691 128.874 14.5069C129.041 15.2609 129.237 16.0149 129.237 16.7969C129.209 23.9181 129.237 31.0394 129.209 38.1607C129.209 39.2777 128.93 40.3389 128.512 41.3722C127.982 42.6848 127.173 43.8018 126.113 44.7234C125.584 45.1982 124.942 45.5333 124.329 45.8963ZM72.0741 10.2062C68.728 10.2062 65.3819 10.2062 62.0358 10.2062C60.9484 10.2062 59.8888 10.3179 58.8571 10.7927C57.5744 11.3791 56.5706 12.2448 55.8456 13.4457C55.1485 14.5907 54.8418 15.8474 54.8418 17.1599C54.8418 23.6389 54.8418 30.1178 54.8418 36.5968C54.8418 37.4067 54.8418 38.2445 55.0091 39.0543C55.1485 39.8363 55.3994 40.5624 55.7898 41.2047C57.1283 43.3829 59.0801 44.5838 61.6455 44.5838C68.5328 44.6117 75.4202 44.5838 82.3076 44.5838C82.921 44.5838 83.5345 44.5279 84.1479 44.3604C85.4306 44.0252 86.5181 43.3829 87.4104 42.4334C88.7209 41.065 89.3065 39.3615 89.2786 37.4625C89.2786 30.7601 89.2786 24.0578 89.2786 17.3554C89.2786 16.378 89.1113 15.4564 88.8046 14.5627C88.0238 12.2728 85.5979 10.3458 83.0883 10.2062C82.698 10.1783 82.3355 10.1783 81.9451 10.1783C78.6548 10.2062 75.3644 10.2062 72.0741 10.2062ZM72.0741 81.7819C75.5039 81.7819 78.9336 81.7819 82.3633 81.7819C83.7297 81.7819 84.9566 81.4747 86.0998 80.7207C88.1911 79.3523 89.2507 77.3975 89.2786 74.9679C89.3344 68.07 89.3065 61.1721 89.2786 54.2743C89.2786 53.4086 89.0834 52.5708 88.7767 51.7609C87.9123 49.3592 85.3191 47.4044 82.5028 47.4323C75.5039 47.4881 68.505 47.4602 61.5061 47.4323C60.558 47.4323 59.6657 47.6278 58.8013 47.9908C57.5744 48.4935 56.6263 49.3871 55.9292 50.4484C55.1485 51.5933 54.8139 52.9338 54.8139 54.3301C54.8139 61.0884 54.8139 67.8187 54.8139 74.5769C54.8139 75.5264 54.9812 76.448 55.2879 77.3695C55.6783 78.5983 56.4311 79.5478 57.3792 80.3298C58.6061 81.3072 60.0003 81.8378 61.5897 81.8099C65.1031 81.754 68.5886 81.7819 72.0741 81.7819ZM109.69 81.7819C113.12 81.7819 116.549 81.7819 119.979 81.7819C120.983 81.7819 121.931 81.6423 122.879 81.2234C124.58 80.4135 125.807 79.1848 126.476 77.3975C126.783 76.5876 126.894 75.694 126.894 74.8282C126.894 68.4051 126.894 62.0099 126.894 55.5868C126.894 54.6932 126.866 53.7995 126.755 52.9059C126.643 51.9005 126.225 51.0069 125.667 50.2529C124.301 48.3818 122.461 47.3764 120.091 47.3764C113.147 47.4044 106.232 47.3764 99.289 47.3764C97.5323 47.3764 96.0266 47.935 94.716 49.1079C93.2382 50.4484 92.4574 52.1519 92.4574 54.1067C92.4016 61.0604 92.4295 67.9862 92.4574 74.9399C92.4574 76.0012 92.7362 77.0344 93.2103 78.0119C93.8795 79.3244 94.9112 80.3298 96.1939 81.0279C96.9746 81.4468 97.8111 81.754 98.7034 81.7261C99.0938 81.7261 99.4563 81.7261 99.8467 81.7261C103.137 81.7819 106.427 81.7819 109.69 81.7819ZM109.718 10.2341C106.204 10.2341 102.663 10.2341 99.1496 10.2341C98.3409 10.2341 97.5602 10.3458 96.8073 10.653C94.0468 11.8259 92.4853 14.1997 92.4574 17.132C92.4295 24.0019 92.4574 30.8439 92.4574 37.7138C92.4574 38.7751 92.6526 39.8083 93.1545 40.7299C94.4372 43.1595 96.4448 44.5838 99.2611 44.6117C106.232 44.6396 113.231 44.6117 120.202 44.6396C121.373 44.6396 122.433 44.3604 123.437 43.8018C124.887 42.964 125.946 41.7911 126.504 40.1714C126.811 39.3057 126.894 38.4399 126.894 37.5463C126.894 31.0673 126.894 24.5884 126.894 18.1094C126.894 17.3554 126.838 16.6014 126.755 15.8474C126.643 14.7582 126.197 13.8087 125.556 12.9709C124.162 11.1836 122.321 10.2341 120.007 10.2621C116.577 10.2621 113.147 10.2341 109.718 10.2341ZM95.1064 45.8684C93.9352 45.3099 92.9593 44.5 92.1507 43.4667C91.7882 43.0199 91.4814 42.5451 91.2584 42.0145C91.1747 41.847 91.119 41.5398 90.8401 41.5677C90.6449 41.5956 90.5892 41.847 90.5055 42.0145C90.2824 42.4893 90.0315 42.9082 89.7247 43.2992C88.8882 44.3604 87.8844 45.254 86.6854 45.8405C86.7133 46.008 86.769 46.1477 86.9085 46.2035C87.2988 46.3432 87.5777 46.6224 87.9123 46.8458C89.0834 47.6836 90.0315 48.7448 90.5892 50.1132C90.6449 50.2529 90.7286 50.3925 90.8959 50.4204C91.0632 50.4484 91.0911 50.2529 91.1468 50.1412C91.1747 50.0853 91.2305 50.0295 91.2584 49.9736C92.0391 48.3539 93.2381 47.1251 94.7718 46.2594C94.9391 46.2035 95.0506 46.0918 95.1064 45.8684Z" fill="#3C1B63"/>
<path d="M39.0314 117.304C38.7805 117.444 38.6968 117.667 38.6689 117.891C38.5574 118.896 38.0834 119.762 37.442 120.488C36.8565 121.158 36.1315 121.661 35.1834 121.717C35.044 121.717 34.9046 121.717 34.7931 121.773C34.3748 121.968 33.9844 121.968 33.5662 121.801C33.4546 121.745 33.3152 121.745 33.1758 121.745C32.8691 121.745 32.7575 121.605 32.8412 121.326C32.9248 120.935 33.0085 120.544 33.12 120.153C33.2037 119.874 33.3989 119.846 33.6498 119.874C34.1238 119.957 34.5142 119.762 34.8488 119.455C35.044 119.259 35.1556 118.98 35.2113 118.785C35.518 117.723 35.6017 116.634 34.9604 115.629C34.57 115.014 33.2037 114.847 32.5902 115.294C32.4508 115.405 32.4229 115.545 32.4229 115.713C32.3671 116.55 32.2556 117.36 32.2556 118.17C32.2835 119.874 32.2835 121.577 32.2835 123.253C32.2835 123.895 32.4508 124.537 32.4787 125.18C32.4787 125.431 32.646 125.571 32.9248 125.599C33.1479 125.599 33.371 125.627 33.5662 125.71C33.845 125.822 33.9565 126.017 33.9286 126.353C33.9008 126.632 33.7892 126.771 33.5104 126.771C33.2315 126.771 32.9806 126.771 32.7017 126.771C31.3633 126.771 30.0249 126.771 28.6864 126.771C28.4076 126.771 28.073 126.855 28.0172 126.408C27.9615 125.962 28.073 125.766 28.5191 125.627C29.0489 125.459 29.1047 125.431 29.1047 124.9C29.1047 121.661 29.1047 118.421 29.1047 115.182C29.1047 114.651 29.0768 114.623 28.5191 114.456C28.2403 114.372 28.0451 114.26 28.0172 113.925C27.9615 113.423 28.0172 113.339 28.547 113.339C30.7777 113.367 33.0085 113.311 35.2392 113.255C36.02 113.227 36.7449 113.423 37.3863 113.925C38.0834 114.456 38.4459 115.182 38.6411 116.02C38.6689 116.187 38.6689 116.383 38.7805 116.522C38.892 116.69 39.0036 116.83 39.1987 116.606C39.2824 116.522 39.3939 116.467 39.5055 116.467C40.3978 116.439 41.2343 116.076 42.0987 115.936C42.266 115.908 42.4054 115.88 42.5727 115.88C42.9073 115.88 43.0746 116.02 43.0746 116.355C43.0746 116.606 43.0467 116.858 43.0467 117.081C43.0189 118.673 42.991 120.265 42.9631 121.828C42.9631 122.359 42.991 122.89 43.1025 123.42C43.2698 124.118 43.7717 124.509 44.4688 124.509C45.0265 124.509 45.3332 124.118 45.5284 123.727C45.6957 123.364 45.863 122.973 45.863 122.527C45.8909 121.13 45.863 119.706 45.863 118.31C45.863 117.807 45.4727 117.751 45.1938 117.584C45.0544 117.5 44.8034 117.556 44.7756 117.304C44.7477 117.081 44.7198 116.858 44.8034 116.634C44.8592 116.495 44.9707 116.411 45.1102 116.411C46.0861 116.411 46.9784 116.02 47.8986 115.852C48.6515 115.713 48.8188 115.908 48.763 116.69C48.5957 119.371 48.7072 122.052 48.7072 124.733C48.7072 125.263 48.8188 125.375 49.3207 125.543C49.7389 125.682 49.9062 126.017 49.7668 126.436C49.6832 126.688 49.4601 126.688 49.2649 126.688C48.7909 126.688 48.3168 126.66 47.8707 126.66C47.4524 126.66 47.0342 126.688 46.588 126.66C46.1698 126.66 46.114 126.604 46.114 126.213C46.114 125.99 46.2534 125.71 46.0025 125.599C45.6957 125.459 45.6121 125.794 45.4727 125.962C44.7756 126.744 43.1025 127.107 42.0987 126.771C41.3458 126.52 40.816 126.045 40.5093 125.375C40.2305 124.789 40.0353 124.146 40.0353 123.448C40.0631 122.415 40.0631 121.382 40.0631 120.376C40.0631 119.678 40.0353 118.98 40.0353 118.31C40.0353 118.003 39.9795 117.751 39.617 117.64C39.366 117.667 39.1151 117.556 39.0314 117.304Z" fill="#3C1B63"/>
<path d="M152.297 104.626C152.38 104.263 152.52 103.844 152.603 103.481C152.882 101.945 153.328 100.465 153.635 98.9288C153.719 98.5378 153.635 98.2865 153.3 98.091C153.133 98.0072 152.938 97.9234 152.91 97.6721C152.854 97.2253 152.938 97.0856 153.384 97.0856C154.221 97.1136 155.085 97.1136 155.921 97.0577C156.34 97.0298 156.451 97.1973 156.368 97.5883C156.34 97.7838 156.312 98.0072 156.145 98.1468C155.503 98.6495 155.42 99.4315 155.197 100.102C154.862 101.107 154.527 102.084 154.221 103.09C153.886 104.207 153.551 105.296 153.189 106.385C152.743 107.754 152.436 109.206 151.739 110.462C150.596 112.529 148.923 113.311 146.552 112.948C146.078 112.864 145.995 112.724 146.106 112.25C146.274 111.496 146.525 110.742 146.552 109.988C146.58 109.681 146.692 109.457 147.026 109.457C147.333 109.457 147.5 109.653 147.584 109.932C147.724 110.546 147.751 110.518 148.365 110.574C149.564 110.658 150.289 110.099 150.763 109.038C150.902 108.703 151.098 108.396 151.209 108.061C151.376 107.586 151.237 107.363 150.735 107.391C150.177 107.418 150.122 107.418 150.01 106.86C149.871 106.301 149.648 105.771 149.508 105.212C149.313 104.486 149.09 103.732 148.811 103.034C148.56 102.448 148.421 101.805 148.225 101.191C147.947 100.297 147.612 99.4315 147.361 98.5378C147.25 98.1189 146.748 97.9793 146.497 97.6442C146.385 97.5325 146.274 97.6442 146.218 97.7838C145.967 98.4261 145.967 98.4261 145.326 98.4261C144.294 98.3982 144.294 98.3982 144.294 99.4315C144.294 100.828 144.294 102.196 144.294 103.593C144.294 103.788 144.294 103.983 144.322 104.207C144.377 105.128 145.019 105.492 145.772 105.017C146.078 104.821 146.162 104.905 146.329 105.128C146.999 105.966 146.971 106.134 146.162 106.804C145.437 107.391 144.628 107.754 143.652 107.67C142.704 107.586 142.119 107.139 141.701 106.218C141.505 105.771 141.45 105.324 141.45 104.877C141.45 102.922 141.45 100.995 141.45 99.0405C141.45 98.454 141.45 98.454 140.864 98.4261C140.669 98.4261 140.418 98.5099 140.362 98.2306C140.306 97.9234 140.279 97.6162 140.502 97.337C140.529 97.2811 140.613 97.2532 140.669 97.2532C141.394 96.9739 141.533 96.4433 141.478 95.7172C141.394 94.9632 141.533 94.8236 142.314 94.7677C142.816 94.7398 143.234 94.4326 143.736 94.4605C144.266 94.4885 144.266 94.4326 144.266 94.9353C144.266 95.41 144.266 95.8848 144.238 96.3316C144.238 96.6388 144.322 96.7784 144.656 96.7505C145.019 96.7226 145.381 96.7505 145.716 96.7226C145.995 96.7226 146.301 96.6388 146.552 96.8622C146.636 96.946 146.748 96.9181 146.859 96.9181C148.03 96.9181 149.229 97.0018 150.4 96.9181C150.512 96.9181 150.624 96.8901 150.735 96.9181C150.902 96.9181 151.153 96.8901 151.181 97.1136C151.237 97.3649 151.293 97.6442 151.042 97.8396C150.958 97.8955 150.874 97.9793 150.763 98.0351C150.456 98.1748 150.4 98.3703 150.54 98.6774C150.763 99.1801 150.791 99.7386 150.93 100.297C151.153 101.135 151.376 101.973 151.627 102.783C151.767 103.285 151.739 103.844 152.018 104.319C152.129 104.514 152.129 104.626 152.297 104.626Z" fill="#3C1B63"/>
<path d="M74.6115 96.8343C75.3365 96.8343 76.0057 96.8901 76.6471 97.0577C77.3999 97.2532 78.1807 97.2252 78.9614 97.2252C79.2403 97.2252 79.547 97.1973 79.6028 97.6162C79.6585 98.091 79.5191 98.3702 79.1009 98.5099C79.0451 98.5378 78.9614 98.5378 78.9057 98.5378C78.1249 98.6216 78.1249 98.6495 78.5153 99.2639C78.8499 99.7945 78.8499 100.381 78.8499 100.939C78.8778 101.889 78.6547 102.783 77.9576 103.509C77.6509 103.816 77.2884 104.123 76.898 104.291C75.9221 104.737 74.9183 105.128 73.8308 104.793C73.5519 104.71 73.4125 104.849 73.2731 105.017C73.2452 105.073 73.2173 105.128 73.2173 105.212C73.2173 105.464 72.9942 105.771 73.1894 105.966C73.4125 106.19 73.6356 105.882 73.8587 105.855C74.6673 105.715 75.5038 105.715 76.3125 105.882C76.5913 105.938 76.8701 105.994 77.149 106.078C78.0134 106.301 79.1566 107.279 79.3239 108.34C79.4912 109.401 79.3239 110.295 78.7663 111.161C78.5153 111.552 78.1528 111.859 77.7624 112.082C76.0615 113.115 74.2211 113.339 72.2971 112.78C71.4049 112.529 70.652 112.026 70.178 111.189C69.8433 110.602 69.7876 109.597 70.2895 108.982C70.4847 108.731 70.6799 108.703 70.9029 108.899C71.377 109.317 71.9068 109.653 72.3529 110.155C72.8548 110.742 73.5519 111.021 74.3327 111.049C74.9183 111.077 75.5038 111.133 76.0615 110.77C76.5634 110.434 76.6749 109.848 76.2567 109.401C75.8942 109.01 75.3644 108.871 74.8625 108.843C74.2211 108.787 73.5798 108.759 72.9385 109.01C72.5481 109.178 72.2135 109.094 71.9625 108.703C71.6837 108.256 71.3491 107.865 71.0145 107.446C70.8751 107.279 70.8472 107.083 70.9308 106.944C71.3212 106.385 71.377 105.715 71.6279 105.101C71.7395 104.849 71.7673 104.57 71.7673 104.319C71.7673 104.095 71.6837 103.956 71.4885 103.844C70.9029 103.537 70.5962 103.006 70.401 102.42C70.1501 101.554 70.0664 100.716 70.2616 99.7945C70.5404 98.5936 71.1818 97.7838 72.2135 97.2252C73.0221 96.8343 73.8308 96.7784 74.6115 96.8343ZM75.9221 100.828C75.9778 100.297 75.8663 99.8224 75.6432 99.3477C75.4202 98.8729 75.0298 98.6216 74.5558 98.5936C74.1096 98.5657 73.6635 98.845 73.4683 99.2359C73.0221 100.213 72.9664 101.247 73.4125 102.28C73.6077 102.755 73.9981 102.978 74.5 103.006C75.0298 103.034 75.3644 102.727 75.6154 102.308C75.9221 101.861 76.0057 101.358 75.9221 100.828Z" fill="#3C1B63"/>
<path d="M40.8718 100.548C40.9276 101.554 40.8997 102.503 40.593 103.397C40.2026 104.542 39.5891 105.547 38.669 106.329C37.9161 106.972 37.0238 107.39 36.1036 107.642C35.3229 107.865 34.5142 107.781 33.7056 107.754C32.3393 107.698 31.1402 107.195 30.0807 106.301C29.3836 105.715 28.9374 104.961 28.6307 104.123C28.2682 103.146 28.1009 102.168 28.073 101.135C28.0451 99.8503 28.2682 98.6495 28.7701 97.4486C29.272 96.2757 30.0249 95.3821 31.0566 94.7398C32.646 93.7344 34.3748 93.5668 36.1594 93.902C36.8286 94.0416 37.4699 94.265 38.0834 94.6001C39.1151 95.1587 39.8401 96.0244 40.2862 97.0856C40.7603 98.2027 40.9833 99.4035 40.8718 100.548ZM37.5257 100.493C37.4699 100.018 37.4978 99.2359 37.2747 98.454C37.0796 97.7279 36.7449 97.1414 36.2709 96.6108C35.7969 96.0523 35.0719 95.773 34.3748 95.8289C33.6219 95.8847 32.9248 96.2478 32.4508 96.918C31.9768 97.5883 31.7258 98.3423 31.5585 99.1522C31.1681 100.912 31.3354 102.615 32.1998 104.207C33.0085 105.687 34.2633 106.078 35.7132 105.38C36.4661 105.017 36.9123 104.263 37.1911 103.481C37.4978 102.643 37.6094 101.749 37.5257 100.493Z" fill="#3C1B63"/>
<path d="M53.9495 114.316C53.9495 115.014 53.9495 115.713 53.9495 116.383C53.9495 116.55 53.8379 116.774 54.061 116.858C54.2283 116.913 54.3398 116.746 54.4514 116.662C54.786 116.327 55.1764 116.132 55.6504 116.048C56.9888 115.796 58.0763 116.132 58.9407 117.221C59.6099 118.058 59.9724 119.008 60.0561 120.097C60.1397 121.298 60.0561 122.471 59.6378 123.588C59.2474 124.621 58.6898 125.571 57.7696 126.185C56.7658 126.883 55.5667 127.218 54.3677 126.939C53.336 126.688 52.3043 126.716 51.2447 126.716C50.4918 126.716 50.464 126.688 50.7707 125.99C51.0216 125.431 51.1332 124.845 51.1332 124.23C51.1332 121.075 51.1332 117.947 51.1053 114.791C51.1053 114.512 51.0216 114.205 50.9937 113.925C50.938 113.534 50.7707 113.255 50.2966 113.283C49.9063 113.311 49.9063 112.976 49.9063 112.724C49.9063 112.473 49.8784 112.194 50.2966 112.138C50.9659 112.082 51.6072 111.915 52.2206 111.691C52.6389 111.524 53.1129 111.579 53.5591 111.579C53.8937 111.579 53.9773 111.747 53.9773 112.026C53.9773 112.78 53.9773 113.534 53.9773 114.316C53.9773 114.316 53.9773 114.316 53.9495 114.316ZM54.0052 122.108C53.9773 122.471 53.9773 122.834 53.9773 123.169C53.9773 123.56 53.9773 123.923 53.9773 124.314C53.9773 124.509 53.9773 124.677 54.2004 124.817C54.7581 125.152 55.5667 125.152 56.0687 124.761C56.3196 124.565 56.4311 124.258 56.5706 123.979C57.0725 122.862 57.1004 121.689 56.9888 120.516C56.9331 119.985 56.71 119.427 56.3754 118.98C55.9013 118.254 54.9254 118.198 54.3677 118.868C54.1447 119.148 53.9773 119.511 53.9773 119.902C54.0052 120.628 54.0052 121.382 54.0052 122.108Z" fill="#3C1B63"/>
<path d="M91.4814 113.032C92.4016 112.892 93.3496 113.255 94.2977 113.367C94.6323 113.423 94.939 113.618 95.3015 113.674C95.6082 113.73 95.5246 114.009 95.4688 114.232C95.4131 114.484 95.2736 114.735 95.19 114.959C94.9669 115.517 94.9669 116.132 94.7438 116.69C94.6044 117.053 94.4092 117.025 94.1304 117.025C93.8515 116.997 93.8237 116.802 93.8515 116.606C93.9352 116.159 93.7121 115.964 93.3496 115.768C92.5689 115.35 91.7881 115.014 90.8958 115.07C90.3103 115.098 89.8084 115.35 89.5295 115.964C89.2507 116.578 89.3343 116.969 89.9478 117.276C90.3103 117.472 90.7006 117.64 91.091 117.779C91.9275 118.086 92.7919 118.338 93.6285 118.673C94.465 119.008 95.0506 119.65 95.4688 120.404C95.8592 121.158 95.9429 121.996 95.8592 122.862C95.7755 123.56 95.6082 124.23 95.2179 124.845C94.6044 125.738 93.7958 126.353 92.7919 126.688C91.9554 126.967 91.091 127.135 90.1708 127.107C89.2786 127.079 88.4699 126.827 87.6334 126.632C87.0757 126.492 86.5459 126.297 86.044 125.962C85.8209 125.794 85.7652 125.682 85.8488 125.431C86.1834 124.593 86.5459 123.755 86.6853 122.862C86.7411 122.61 86.769 122.303 87.1594 122.359C87.5219 122.415 87.7449 122.638 87.6892 123.057C87.6334 123.616 87.8843 123.867 88.3305 124.146C89.2228 124.705 90.1709 124.956 91.2304 124.928C91.9833 124.9 92.3458 124.454 92.5968 123.839C92.8198 123.337 92.5968 122.694 92.1785 122.247C91.816 121.856 91.342 121.689 90.8679 121.549C90.2545 121.354 89.6132 121.186 88.9997 120.935C88.1353 120.572 87.3267 120.097 86.7969 119.315C86.0998 118.338 86.0719 117.221 86.3786 116.104C86.5459 115.489 86.9084 114.959 87.3267 114.456C87.7728 113.953 88.3584 113.646 88.9718 113.395C89.7247 113.004 90.5612 112.948 91.4814 113.032Z" fill="#3C1B63"/>
<path d="M115.294 121.829C115.294 122.834 115.294 123.839 115.294 124.845C115.294 125.403 115.294 125.403 115.824 125.599C116.159 125.738 116.326 125.99 116.27 126.297C116.215 126.66 116.103 126.716 115.657 126.716C114.737 126.716 113.817 126.716 112.924 126.716C112.422 126.716 112.394 126.688 112.422 126.185C112.506 124.454 112.478 122.75 112.478 121.019C112.478 120.46 112.422 119.93 112.255 119.371C112.088 118.813 111.753 118.45 111.251 118.366C110.721 118.282 110.303 118.589 109.996 119.036C109.634 119.567 109.522 120.209 109.495 120.823C109.439 122.108 109.495 123.42 109.495 124.705C109.495 125.152 109.578 125.543 110.136 125.627C110.359 125.655 110.582 125.822 110.582 126.129C110.61 126.604 110.526 126.716 110.024 126.716C108.742 126.716 107.487 126.716 106.204 126.716C105.702 126.716 105.619 126.66 105.563 126.325C105.507 125.962 105.619 125.71 106.009 125.627C106.539 125.515 106.595 125.208 106.622 124.761C106.678 121.298 106.706 117.835 106.595 114.372C106.595 114.205 106.595 114.065 106.567 113.898C106.483 113.59 106.371 113.311 105.981 113.283C105.814 113.283 105.591 113.255 105.535 113.06C105.451 112.808 105.451 112.529 105.563 112.278C105.619 112.166 105.73 112.166 105.842 112.166C106.511 112.11 107.152 111.943 107.766 111.719C108.212 111.552 108.686 111.608 109.16 111.608C109.439 111.608 109.495 111.803 109.522 111.999C109.55 112.334 109.522 112.669 109.495 113.004C109.383 114.289 109.467 115.545 109.439 116.83C109.439 116.969 109.383 117.165 109.578 117.249C109.773 117.333 109.913 117.193 110.024 117.053C110.582 116.327 111.391 116.104 112.227 115.964C113.37 115.769 114.653 116.634 115.016 117.751C115.211 118.338 115.267 118.924 115.267 119.511C115.267 120.265 115.267 121.047 115.294 121.829Z" fill="#3C1B63"/>
<path d="M101.603 107.809C100.265 107.865 99.0659 107.53 98.0063 106.72C96.7794 105.743 96.0823 104.458 95.7756 102.922C95.5246 101.694 95.5246 100.465 95.7477 99.208C95.9429 98.1748 96.389 97.2532 96.9746 96.4433C97.3371 95.9406 97.7833 95.4938 98.3131 95.1028C99.5957 94.2092 100.99 93.7624 102.524 93.7903C103.667 93.8182 104.782 93.9579 105.842 94.3488C106.372 94.5443 106.483 94.7119 106.288 95.2425C106.148 95.6055 106.065 95.9686 106.065 96.3595C106.037 96.7784 105.953 97.1415 105.842 97.5325C105.73 97.9793 105.702 98.0072 105.284 97.9793C105.033 97.9793 104.922 97.8396 104.949 97.5883C105.005 97.0856 104.699 96.8343 104.336 96.583C103.36 95.8569 101.269 95.8289 100.432 96.5271C99.763 97.0856 99.3169 97.7838 99.0938 98.5937C98.7034 100.018 98.815 101.442 99.3726 102.783C99.7909 103.788 100.516 104.57 101.575 104.933C101.91 105.045 102.217 105.212 102.579 105.212C103.472 105.24 104.224 104.933 104.949 104.486C105.089 104.402 105.2 104.291 105.312 104.207C106.037 103.648 106.037 103.676 106.539 104.43C106.623 104.542 106.706 104.626 106.79 104.737C106.929 104.961 106.929 105.156 106.734 105.352C105.842 106.329 104.81 107.111 103.527 107.502C103.332 107.558 103.193 107.698 102.97 107.726C102.524 107.726 102.05 107.781 101.603 107.809Z" fill="#3C1B63"/>
<path d="M62.9839 98.0911C63.2627 98.0074 63.4021 97.7281 63.6252 97.5885C64.629 96.7786 65.7723 96.6669 66.9434 97.0299C67.6963 97.2813 68.2261 97.8677 68.3934 98.6217C68.5328 99.2082 68.7001 99.7667 68.7001 100.381C68.7001 102.168 68.6443 103.956 68.728 105.743C68.7559 106.078 68.8116 106.329 69.202 106.413C69.6203 106.497 69.7318 106.888 69.6203 107.307C69.5645 107.502 69.4251 107.53 69.2578 107.53C68.1982 107.53 67.1665 107.502 66.1069 107.53C65.7444 107.53 65.6607 107.363 65.6607 107.028C65.6886 106.022 65.6607 105.017 65.7444 104.012C65.8559 102.811 65.7723 101.61 65.6607 100.409C65.605 99.8226 65.1309 99.2641 64.6011 99.1803C64.0713 99.0965 63.4021 99.5154 63.1791 100.102C62.9839 100.577 62.8723 101.079 62.8723 101.61C62.8723 103.006 62.9002 104.375 62.8723 105.771C62.8723 106.134 62.956 106.357 63.3464 106.441C63.7367 106.553 63.904 106.972 63.7646 107.335C63.681 107.558 63.5137 107.558 63.3185 107.53C62.7329 107.53 62.1473 107.502 61.5897 107.502C60.9483 107.502 60.307 107.53 59.6378 107.53C59.3589 107.53 59.0801 107.586 58.9964 107.195C58.9128 106.832 59.0522 106.441 59.3868 106.385C59.8051 106.329 59.8609 106.05 59.9166 105.743C59.9445 105.603 59.9724 105.464 59.9724 105.352C60.0003 103.397 60.056 101.47 59.9166 99.5154C59.9166 99.3758 59.8887 99.2361 59.8887 99.1244C59.8609 98.7893 59.7493 98.51 59.3311 98.538C59.0801 98.5659 58.9128 98.3983 58.7734 98.2308C58.5782 97.9515 58.6897 97.4488 58.9964 97.4209C60.1118 97.2254 61.1993 96.8344 62.3425 96.8624C62.9002 96.8624 62.9002 96.8624 62.8723 97.4209C62.8723 97.5885 62.7887 97.8398 62.9839 98.0911Z" fill="#3C1B63"/>
<path d="M130.268 102.504C130.268 101.554 130.268 100.632 130.268 99.6829C130.268 99.5154 130.268 99.3199 130.24 99.1523C130.212 98.7893 130.101 98.538 129.655 98.51C129.236 98.4821 129.013 98.0911 129.125 97.6722C129.153 97.5047 129.236 97.365 129.432 97.365C130.491 97.2254 131.495 96.8344 132.583 96.8065C133.252 96.8065 133.252 96.8065 133.196 97.4488C133.196 97.5047 133.196 97.5884 133.168 97.6443C133.168 97.756 133.14 97.8956 133.252 97.9515C133.391 98.0353 133.531 97.9515 133.614 97.8677C134.032 97.4488 134.479 97.0858 135.036 96.9461C136.486 96.5831 137.908 96.7227 138.578 98.1749C138.829 98.7055 139.024 99.264 139.024 99.9064C138.996 101.805 139.052 103.704 139.024 105.603C139.024 105.994 139.052 106.302 139.526 106.385C139.832 106.441 139.944 106.665 139.944 106.972C139.944 107.391 139.86 107.502 139.442 107.502C139.052 107.502 138.689 107.474 138.299 107.474C137.741 107.474 137.183 107.474 136.626 107.502C136.04 107.502 135.956 107.419 135.984 106.86C136.124 105.38 136.124 103.928 136.152 102.448C136.18 101.666 136.068 100.884 135.901 100.13C135.733 99.264 134.757 98.901 134.032 99.4316C133.531 99.7946 133.335 100.353 133.252 100.912C133.14 101.638 133.112 102.364 133.112 103.118C133.14 104.012 133.112 104.905 133.168 105.799C133.196 106.106 133.28 106.302 133.614 106.385C133.837 106.441 134.032 106.525 134.088 106.776C134.256 107.251 134.088 107.502 133.586 107.502C132.332 107.502 131.077 107.474 129.85 107.502C129.571 107.502 129.292 107.53 129.236 107.167C129.181 106.832 129.32 106.469 129.627 106.413C130.24 106.357 130.24 105.938 130.24 105.492C130.268 104.514 130.268 103.509 130.268 102.504Z" fill="#3C1B63"/>
<path d="M127.898 101.442C127.898 102.838 127.898 104.207 127.898 105.603C127.898 106.022 127.982 106.357 128.484 106.413C128.651 106.413 128.762 106.581 128.846 106.692C129.125 107.083 128.902 107.53 128.428 107.53C127.48 107.53 126.56 107.474 125.612 107.53C125.277 107.558 125.193 107.418 125.221 107.055C125.249 106.832 125.388 106.581 125.165 106.441C124.914 106.301 124.775 106.609 124.636 106.748C123.715 107.698 122.544 107.921 121.317 107.698C120.397 107.502 119.812 106.832 119.421 105.966C119.142 105.352 119.142 104.71 119.142 104.067C119.17 102.475 119.198 100.884 119.142 99.3197C119.115 98.7053 119.115 98.7053 118.529 98.5099C118.139 98.3981 117.888 97.8117 118.111 97.4766C118.166 97.3928 118.25 97.3649 118.334 97.3649C118.529 97.3369 118.724 97.2532 118.919 97.2532C119.812 97.1694 120.676 96.7505 121.596 96.8343C122.154 96.8901 122.238 96.8901 122.154 97.4486C121.847 99.3476 122.07 101.275 121.959 103.202C121.931 103.732 122.126 104.207 122.321 104.654C122.712 105.547 124.022 105.575 124.468 104.765C124.747 104.263 124.97 103.788 124.97 103.202C125.026 101.861 124.97 100.521 124.942 99.1801C124.942 98.7053 124.831 98.6216 124.357 98.5378C123.883 98.454 123.632 97.9234 123.855 97.5324C123.911 97.4486 123.966 97.3928 124.05 97.3928C124.189 97.3649 124.301 97.3369 124.44 97.309C125.416 97.1973 126.337 96.8063 127.312 96.8622C127.842 96.8901 127.842 96.8901 127.842 97.3928C127.842 98.7612 127.842 100.13 127.842 101.47C127.926 101.442 127.898 101.442 127.898 101.442Z" fill="#3C1B63"/>
<path d="M127.006 121.549C127.089 122.583 126.894 123.588 126.42 124.482C125.835 125.627 124.942 126.548 123.604 126.772C123.269 126.827 122.99 126.995 122.628 127.023C121.457 127.135 120.369 126.855 119.338 126.325C118.501 125.906 117.943 125.096 117.581 124.258C117.079 123.141 116.856 121.968 116.995 120.739C117.19 119.203 117.637 117.807 118.947 116.83C119.449 116.467 120.007 116.187 120.648 116.104C120.899 116.076 121.122 116.02 121.373 115.992C122.99 115.769 124.412 116.187 125.584 117.332C126.197 117.919 126.615 118.701 126.783 119.567C126.894 120.237 127.089 120.879 127.006 121.549ZM123.938 121.438C123.938 120.544 123.632 119.148 123.297 118.561C122.739 117.584 121.624 117.472 121.038 118.226C120.592 118.813 120.286 119.483 120.174 120.209C120.035 121.102 120.063 121.996 120.174 122.89C120.258 123.56 120.509 124.146 120.871 124.677C121.15 125.096 121.875 125.403 122.182 125.264C122.628 125.04 123.074 124.761 123.269 124.258C123.687 123.309 123.994 122.387 123.938 121.438Z" fill="#3C1B63"/>
<path d="M128.121 121.521C128.093 120.6 128.093 119.818 128.4 119.036C128.874 117.835 129.571 116.858 130.854 116.355C132.136 115.852 133.419 115.796 134.702 116.16C136.18 116.606 137.156 117.612 137.685 119.12C138.131 120.46 138.159 121.829 137.908 123.141C137.574 124.873 136.57 126.353 134.534 126.8C133.949 126.939 133.363 127.079 132.75 127.023C131.049 126.855 129.627 126.185 128.79 124.621C128.261 123.644 127.954 122.555 128.121 121.521ZM134.841 121.382C134.869 119.762 134.813 119.622 134.283 118.505C134.033 117.947 133.586 117.751 133.057 117.723C132.499 117.668 132.053 118.031 131.83 118.477C131.467 119.231 131.133 120.013 131.16 120.879C131.188 121.326 131.188 121.773 131.16 122.22C131.133 123.057 131.411 123.783 131.774 124.51C132.192 125.347 133.363 125.459 133.977 124.705C134.451 124.119 134.702 123.42 134.813 122.666C134.897 122.248 134.841 121.829 134.841 121.382Z" fill="#3C1B63"/>
<path d="M50.4639 100.381C50.1014 99.6548 49.8783 98.9008 49.5995 98.1468C49.4601 97.7558 49.5159 97.5603 49.8505 97.4486C50.7149 97.1694 51.5793 96.8901 52.4994 96.8342C53.1966 96.8063 53.8937 96.7784 54.5629 96.8342C55.3157 96.918 56.0128 97.0577 56.6263 97.6162C57.2119 98.1468 57.5465 98.7612 57.5744 99.5152C57.6022 100.856 57.6022 102.196 57.6022 103.537C57.6022 104.346 57.6022 105.184 57.8811 105.966C57.9368 106.134 57.9926 106.245 58.1599 106.301C58.3272 106.357 58.4388 106.469 58.5503 106.581C58.7455 106.776 58.7176 107.027 58.6339 107.279C58.5782 107.474 58.3551 107.502 58.1878 107.474C57.4628 107.446 56.7099 107.446 55.985 107.474C55.3715 107.502 55.0369 107.055 55.2042 106.441C55.2321 106.329 55.3436 106.245 55.2879 106.106C54.9811 105.966 54.8417 106.218 54.7023 106.385C53.81 107.586 52.5552 107.865 51.161 107.67C50.2408 107.53 49.3207 106.553 49.1534 105.603C48.9861 104.57 49.0418 103.62 49.6553 102.727C50.1293 102.029 50.7985 101.554 51.5793 101.302C52.5273 100.995 53.4754 100.688 54.4792 100.716C54.7023 100.716 54.8138 100.632 54.7859 100.381C54.7302 100.046 54.8138 99.6828 54.6465 99.3197C54.3119 98.6495 53.6985 98.5098 53.085 98.5378C52.5552 98.5657 51.9975 98.7053 51.4956 98.9567C51.3004 99.0684 51.161 99.208 51.1889 99.4314C51.3004 100.046 51.0216 100.297 50.4639 100.381ZM54.7581 103.062C54.7859 102.392 54.7023 102.308 54.1446 102.392C53.4475 102.503 52.8898 102.866 52.4437 103.453C52.1648 103.844 52.137 104.235 52.2206 104.654C52.2764 105.017 52.5273 105.24 52.8898 105.296C53.2802 105.38 53.6706 105.324 53.9773 105.017C54.5629 104.43 54.6186 103.648 54.7581 103.062Z" fill="#3C1B63"/>
<path d="M112.757 107.754C111.028 107.81 109.773 107.307 108.77 106.19C108.24 105.603 107.961 104.905 107.738 104.151C107.431 103.174 107.403 102.168 107.543 101.163C107.71 100.018 108.072 98.9289 108.909 98.0911C109.662 97.365 110.582 96.9461 111.614 96.8623C112.144 96.8065 112.673 96.8344 113.231 96.8623C114.96 97.002 116.215 97.8677 116.94 99.4316C117.692 101.023 117.776 102.699 117.274 104.402C116.828 105.938 115.88 107.028 114.319 107.558C113.733 107.726 113.147 107.726 112.757 107.754ZM114.43 102.28C114.402 101.303 114.291 100.381 113.9 99.5433C113.426 98.51 112.311 97.9794 111.419 99.1802C111.307 99.3478 111.195 99.5153 111.112 99.6829C110.721 100.493 110.61 101.358 110.554 102.252C110.526 103.034 110.721 103.76 110.861 104.486C110.972 105.157 111.446 105.603 112.004 105.966C112.227 106.106 112.478 106.134 112.701 105.994C113.231 105.715 113.677 105.324 113.928 104.738C114.263 103.928 114.43 103.09 114.43 102.28Z" fill="#3C1B63"/>
<path d="M86.4065 101.917C85.5699 101.917 84.7055 101.945 83.869 101.917C83.5344 101.917 83.4229 102.057 83.395 102.336C83.2556 103.369 83.9527 104.765 84.9286 105.156C85.9882 105.575 87.3266 105.408 88.2189 104.402C88.6093 103.956 88.6372 103.956 88.9997 104.374C89.2228 104.626 89.5295 104.821 89.5852 105.156C89.6689 105.547 89.2228 105.687 89.0554 105.91C88.4699 106.664 87.6891 107.139 86.7968 107.474C85.793 107.865 84.7613 107.893 83.7854 107.67C82.3633 107.335 81.2758 106.469 80.7181 105.017C80.3277 104.011 80.1604 103.006 80.272 101.945C80.4671 100.158 81.1364 98.5937 82.67 97.5604C83.3671 97.1135 84.12 96.8064 84.9565 96.8343C85.6815 96.8622 86.4065 96.7505 87.1314 97.0577C88.0795 97.4487 88.693 98.1189 89.0833 99.0684C89.4179 99.8783 89.3343 100.744 89.3622 101.582C89.3622 101.945 89.1391 101.945 88.8603 101.945C88.0237 101.945 87.2151 101.945 86.3786 101.945C86.4065 101.945 86.4065 101.917 86.4065 101.917ZM84.1757 100.465C84.4267 100.437 84.6498 100.409 84.9007 100.381C85.1517 100.353 85.3747 100.297 85.6257 100.269C86.6853 100.185 86.7411 100.102 86.2949 99.1243C86.267 99.0684 86.2392 98.9846 86.2113 98.9288C86.0161 98.5937 85.319 98.2306 85.068 98.3144C84.2315 98.5657 83.7854 99.208 83.5344 99.99C83.4229 100.297 83.5623 100.437 83.8969 100.465C84.0084 100.493 84.0921 100.465 84.1757 100.465Z" fill="#3C1B63"/>
<path d="M147.863 127.023C146.831 127.051 145.995 126.8 145.13 126.548C144.824 126.464 144.517 126.436 144.266 126.241C143.848 125.934 143.82 125.822 144.015 125.347C144.266 124.705 144.712 124.147 144.935 123.476C145.019 123.253 145.521 123.225 145.688 123.448C145.772 123.56 145.883 123.728 145.883 123.867C145.855 124.147 145.8 124.426 146.023 124.621C146.274 124.873 146.636 124.956 146.971 125.04C147.11 125.068 147.25 125.068 147.361 125.124C147.947 125.431 148.504 125.208 149.006 124.956C149.285 124.817 149.536 124.621 149.564 124.258C149.564 123.839 149.313 123.588 149.006 123.392C148.783 123.253 148.504 123.197 148.253 123.085C147.361 122.75 146.497 122.415 145.632 121.968C143.764 120.991 143.987 118.394 145.102 117.305C146.357 116.076 147.891 115.796 149.592 116.02C150.205 116.104 150.791 116.327 151.404 116.411C151.795 116.467 151.906 116.634 151.823 117.025C151.655 117.723 151.46 118.449 151.265 119.148C151.237 119.287 151.125 119.399 150.986 119.371C150.763 119.343 150.456 119.231 150.428 119.064C150.345 118.422 149.843 118.254 149.369 118.114C148.755 117.947 148.142 117.863 147.528 118.086C147.027 118.254 146.943 118.757 147.361 119.12C147.612 119.343 147.891 119.483 148.226 119.594C149.062 119.874 149.899 120.209 150.735 120.516C151.795 120.907 152.241 121.801 152.38 122.834C152.575 124.23 151.99 125.375 150.875 126.241C150.568 126.464 150.177 126.604 149.843 126.688C149.146 126.8 148.476 127.135 147.863 127.023Z" fill="#3C1B63"/>
<path d="M96.5842 121.801C96.5284 120.516 96.8351 119.399 97.4765 118.394C98.2851 117.165 99.4284 116.383 100.906 116.131C101.269 116.076 101.603 116.02 101.966 115.964C102.189 115.936 102.412 115.88 102.635 115.936C103.304 116.104 104.001 116.131 104.643 116.383C104.977 116.522 105.089 116.662 105.005 116.969C104.866 117.556 104.726 118.114 104.587 118.701C104.559 118.785 104.531 118.868 104.503 118.952C104.447 119.148 104.503 119.427 104.169 119.455C103.89 119.483 103.583 119.231 103.555 118.896C103.527 118.617 103.472 118.338 103.221 118.198C102.942 118.058 102.635 117.947 102.356 117.891C101.213 117.695 100.349 118.338 99.986 119.371C99.5957 120.516 99.5678 121.689 99.986 122.862C100.488 124.286 102.245 125.208 103.834 124.118C104.587 123.588 104.559 123.616 105.089 124.37C105.34 124.705 105.312 124.928 105.033 125.236C104.336 125.99 103.611 126.604 102.551 126.799C102.077 126.883 101.631 127.079 101.129 127.079C99.7909 127.051 98.6476 126.548 97.7553 125.543C97.3371 125.068 97.114 124.454 96.8909 123.867C96.6121 123.141 96.5284 122.443 96.5842 121.801Z" fill="#3C1B63"/>
<path d="M71.2375 121.968C71.2375 120.293 71.6 119.008 72.5481 117.891C73.3846 116.913 74.4442 116.355 75.699 116.076C76.7028 115.852 77.6509 116.02 78.5989 116.132C78.9057 116.159 79.1566 116.411 79.4912 116.411C79.6307 116.411 79.7143 116.55 79.6864 116.718C79.6585 116.913 79.6585 117.137 79.5749 117.304C79.3518 117.807 79.2682 118.31 79.2403 118.868C79.2124 119.176 79.1009 119.399 78.7941 119.427C78.5432 119.455 78.2086 119.176 78.2365 118.896C78.2643 118.31 77.9018 118.198 77.4557 118.003C75.95 117.388 74.8904 118.505 74.5836 119.622C74.4163 120.237 74.249 120.851 74.3606 121.466C74.5 122.331 74.6394 123.197 75.3365 123.867C76.2009 124.705 77.6509 124.845 78.7105 124.007C79.1845 123.616 79.2682 123.644 79.6307 124.146C80.0768 124.817 80.1047 124.928 79.5191 125.487C78.4874 126.492 77.2047 127.107 75.7548 127.051C73.9702 126.995 72.4366 126.129 71.7395 124.342C71.4327 123.448 71.2375 122.611 71.2375 121.968Z" fill="#3C1B63"/>
<path d="M64.4338 114.652C64.4338 117.388 64.4338 120.125 64.4338 122.862C64.4338 123.588 64.5174 124.286 64.5174 125.012C64.5174 125.32 64.629 125.515 64.9636 125.599C65.1588 125.655 65.3261 125.766 65.3819 125.99C65.5492 126.465 65.3261 126.744 64.8242 126.744C63.5973 126.744 62.3704 126.744 61.1435 126.744C60.9483 126.744 60.6973 126.828 60.6416 126.492C60.5579 126.046 60.6416 125.71 60.9762 125.655C61.4781 125.571 61.5338 125.264 61.5338 124.845C61.6454 121.242 61.6454 117.668 61.506 114.065C61.4781 113.535 61.4223 113.479 60.8646 113.339C60.4464 113.227 60.3627 113.116 60.3906 112.669C60.4185 112.278 60.4464 112.25 60.9204 112.166C61.506 112.054 62.0915 111.971 62.6492 111.747C63.0675 111.58 63.5136 111.58 63.9598 111.608C64.4896 111.636 64.5174 111.663 64.5174 112.194C64.5174 113.032 64.5174 113.842 64.5174 114.68C64.5174 114.652 64.4617 114.652 64.4338 114.652Z" fill="#3C1B63"/>
<path d="M142.621 118.533C142.621 120.628 142.621 122.722 142.621 124.817C142.621 125.208 142.649 125.487 143.123 125.599C143.374 125.655 143.625 125.85 143.569 126.241C143.485 126.688 143.485 126.716 143.011 126.716C141.756 126.716 140.502 126.716 139.275 126.716C139.08 126.716 138.801 126.827 138.717 126.52C138.606 126.185 138.745 125.71 139.024 125.655C139.526 125.571 139.554 125.264 139.637 124.873C139.749 124.342 139.777 123.811 139.777 123.281C139.777 121.186 139.749 119.092 139.777 116.997C139.805 115.908 139.609 114.875 139.554 113.786C139.526 113.451 139.331 113.367 139.024 113.311C138.606 113.255 138.41 112.92 138.494 112.557C138.55 112.362 138.661 112.194 138.884 112.166C139.609 112.082 140.306 111.915 141.004 111.663C141.422 111.524 141.84 111.608 142.258 111.58C142.481 111.58 142.593 111.663 142.593 111.887C142.593 112.054 142.593 112.25 142.593 112.417C142.621 114.484 142.621 116.523 142.621 118.533Z" fill="#3C1B63"/>
<path d="M45.5564 103.509C45.5564 104.235 45.5564 104.989 45.5564 105.715C45.5564 106.106 45.6679 106.357 46.114 106.385C46.3929 106.385 46.5602 106.553 46.6438 106.804C46.7554 107.307 46.616 107.502 46.0862 107.502C44.8035 107.502 43.5487 107.502 42.266 107.502C42.0151 107.502 41.7084 107.614 41.6526 107.195C41.5968 106.72 41.6805 106.497 42.0708 106.413C42.4333 106.357 42.517 106.162 42.5449 105.827C42.6285 104.319 42.6843 102.783 42.6285 101.275C42.6006 100.521 42.5449 99.7666 42.5449 99.0125C42.5449 98.6774 42.4055 98.5657 42.0708 98.5099C41.5968 98.454 41.4574 98.2585 41.4574 97.8117C41.4574 97.5324 41.5411 97.3928 41.8199 97.337C42.7958 97.1973 43.7439 96.8622 44.7477 96.8064C45.3612 96.7784 45.3891 96.8064 45.3333 97.4207C45.3054 97.7279 45.2496 98.0351 45.2217 98.3423C45.2217 98.3982 45.2496 98.5099 45.2775 98.5099C45.3612 98.5099 45.4727 98.5099 45.5285 98.4819C45.6121 98.3982 45.6679 98.2585 45.7237 98.1468C46.5044 96.8901 47.4804 96.6946 48.7073 96.8343C48.9861 96.8622 49.1255 97.0577 49.014 97.3649C48.763 98.1189 48.6236 98.9008 48.4284 99.6828C48.3727 99.8783 48.3169 100.018 48.0938 100.018C47.8707 100.018 47.6477 99.99 47.5919 99.6828C47.564 99.4594 47.5919 99.208 47.3131 99.1522C47.0342 99.0963 46.839 99.236 46.6438 99.4035C46.0583 99.9062 45.7237 100.576 45.64 101.358C45.5006 102.084 45.5006 102.783 45.5564 103.509Z" fill="#3C1B63"/>
<path d="M69.6202 120.712C69.6202 122.08 69.6202 123.448 69.6202 124.789C69.6202 125.375 69.6202 125.403 70.1779 125.571C70.3731 125.627 70.5125 125.738 70.5962 125.878C70.8471 126.269 70.5962 126.716 70.1221 126.688C68.8395 126.66 67.5847 126.66 66.302 126.688C66.0789 126.688 65.8838 126.716 65.828 126.381C65.7722 125.962 65.8001 125.655 66.1068 125.599C66.6645 125.487 66.7203 125.124 66.7203 124.677C66.776 122.583 66.7482 120.488 66.6924 118.394C66.6924 117.975 66.4972 117.807 66.1347 117.668C65.577 117.444 65.5213 117.304 65.6049 116.774C65.6328 116.578 65.7443 116.439 65.9395 116.439C66.8597 116.411 67.7241 116.132 68.5885 115.88C68.7 115.852 68.8116 115.852 68.9231 115.852C69.4808 115.824 69.5923 115.908 69.5923 116.495C69.5923 117.668 69.5645 118.813 69.5645 119.985C69.6202 120.237 69.6202 120.46 69.6202 120.712Z" fill="#3C1B63"/>
<path d="M69.7318 113.116C69.7039 113.786 69.5924 114.4 69.0068 114.847C68.4212 115.266 67.9751 115.35 67.4453 114.931C66.302 114.037 66.3299 112.389 67.4453 111.468C67.8078 111.161 68.6164 111.272 69.0068 111.58C69.5087 111.971 69.7039 112.529 69.7318 113.116Z" fill="#3C1B63"/>
<path d="M57.0446 27.1855C57.0446 24.2252 57.0725 21.2929 57.0446 18.3327C57.0167 16.9923 57.4071 15.8193 58.16 14.7302C58.8571 13.6969 59.833 13.0546 60.9484 12.5519C61.9522 12.1051 63.0397 11.9934 64.1272 11.9934C69.7319 12.0213 75.3645 11.9934 80.9692 11.9934C82.1124 11.9934 83.1441 12.4123 84.1201 12.9429C84.7335 13.278 85.3191 13.6411 85.7931 14.1996C86.4623 15.0374 86.9642 15.959 87.2152 17.0202C87.3825 17.7184 87.4104 18.4165 87.4104 19.1426C87.4104 24.7558 87.4383 30.397 87.4104 36.0102C87.4104 38.4678 86.295 40.3389 84.1758 41.5956C83.1162 42.2379 81.973 42.5171 80.7461 42.5171C76.0894 42.5451 71.4328 42.5451 66.7762 42.5171C65.2704 42.5171 63.7368 42.6288 62.231 42.3496C60.1955 41.9586 58.634 40.8695 57.6859 39.0263C57.2398 38.1885 57.0167 37.2669 57.0167 36.2616C57.0725 33.2734 57.0446 30.2294 57.0446 27.1855ZM72.0741 39.3614V39.3894C72.4645 39.3894 72.8828 39.3894 73.2731 39.3894C75.0298 39.4173 76.7029 38.9425 78.3481 38.3561C79.2125 38.0489 79.9932 37.6021 80.774 37.1273C82.3076 36.2337 83.4787 35.0328 84.4826 33.5806C85.6816 31.8492 86.1277 29.9223 86.3229 27.8836C86.4066 26.8783 86.295 25.9008 86.1277 24.8955C85.9325 23.6109 85.57 22.41 84.9845 21.2371C84.4826 20.2317 83.8133 19.366 83.0047 18.5841C81.7499 17.3553 80.2163 16.5734 78.5711 16.0428C77.0375 15.568 75.5039 15.1212 73.8587 15.177C73.1895 15.205 72.5203 15.1491 71.8511 15.177C70.652 15.177 69.453 15.2887 68.2819 15.6239C66.7483 16.0707 65.2704 16.6292 63.8762 17.4391C62.9003 18.0255 62.0637 18.7796 61.283 19.5894C60.7253 20.1759 60.307 20.8461 59.8888 21.5164C59.1917 22.7172 58.6619 23.9739 58.634 25.3702C58.634 25.5099 58.6061 25.6495 58.5782 25.7612C58.2715 26.6548 58.3552 27.5764 58.4946 28.4701C58.5503 28.9169 58.6619 29.3358 58.6619 29.7826C58.6619 30.7042 58.9686 31.5978 59.3311 32.4077C59.9724 33.8599 60.8368 35.1724 62.0637 36.2057C63.0397 37.0435 64.1829 37.63 65.3262 38.1885C66.1069 38.5516 66.9435 38.6912 67.7521 38.9146C68.4771 39.1101 69.23 39.3056 69.9828 39.3056C70.6799 39.3614 71.377 39.3614 72.0741 39.3614Z" fill="#3C1B63"/>
<path d="M57.0445 64.3837C57.0445 61.4234 57.0724 58.4911 57.0445 55.5309C57.0166 53.7157 57.7137 52.2356 58.9964 50.9789C60.0839 49.9456 61.3665 49.3592 62.8444 49.3033C63.3742 49.2754 63.904 49.2754 64.4617 49.2754C69.6481 49.2754 74.8067 49.2754 79.9931 49.2754C80.5229 49.2754 81.0527 49.2754 81.6104 49.3033C83.3671 49.3871 84.7055 50.2249 85.8767 51.4816C86.4343 52.068 86.7968 52.7941 87.0757 53.5202C87.2709 54.1067 87.4382 54.749 87.4382 55.4192C87.4382 61.4514 87.4382 67.4835 87.4103 73.5156C87.4103 74.8003 86.9084 75.9452 86.1555 77.0344C85.5142 77.956 84.6497 78.5145 83.7575 79.0451C83.5065 79.2126 83.1998 79.3244 82.8931 79.3802C82.196 79.464 81.4988 79.6595 80.7739 79.6595C75.0855 79.6595 69.3972 79.6595 63.7088 79.6315C62.4819 79.6315 61.3108 79.4081 60.2512 78.7938C59.0522 78.0956 58.132 77.1461 57.5743 75.8056C57.1282 74.7723 57.0445 73.7111 57.0445 72.622C57.0445 69.9131 57.0445 67.1484 57.0445 64.3837ZM71.2933 64.998C71.349 62.3171 71.0981 59.6361 71.4885 56.9831C71.5163 56.7597 71.5163 56.5084 71.7952 56.4525C72.7711 56.3129 73.775 56.0057 74.7788 56.2012C75.9778 56.4246 76.9816 56.9831 77.3999 58.2677C77.8182 59.6361 77.7903 61.0045 77.2605 62.3171C76.7307 63.6296 75.7547 64.3278 74.3048 64.2161C74.0817 64.1882 73.8586 64.2161 73.6355 64.1882C72.9663 64.1602 72.7711 64.2999 72.6317 64.9701C72.5759 65.3052 72.4644 65.6124 72.3808 65.9475C72.2971 66.3385 72.0461 66.6736 72.0183 67.0925C71.9904 67.5394 72.0461 67.6511 72.4923 67.7348C72.6596 67.7628 72.8548 67.7907 73.0221 67.7907C73.8865 67.8186 74.7509 67.8465 75.6432 67.8465C76.173 67.8465 76.7307 67.9024 77.2326 67.7628C78.5153 67.3997 79.8258 67.0925 80.9969 66.3385C82.2238 65.5286 83.2555 64.5233 84.0363 63.2387C84.2315 62.9035 84.4267 62.5405 84.5661 62.1775C85.0122 61.1162 85.2353 59.9992 85.0959 58.8542C84.9844 58.0723 84.7892 57.3182 84.4546 56.5642C83.8969 55.3913 83.0604 54.4977 81.9729 53.8833C80.5229 53.0734 78.9614 52.6545 77.2605 52.6824C75.197 52.7104 73.1057 52.7941 71.0423 52.8779C68.5885 52.9896 66.1347 52.9338 63.6809 52.9058C63.2627 52.9058 62.8444 52.85 62.4261 52.8221C62.1473 52.8221 61.9242 52.9338 61.8685 53.213C61.7848 53.6599 61.729 54.1067 61.9242 54.5256C62.0358 54.8048 62.2588 55.0003 62.5934 55.0003C63.0117 54.9724 63.3742 55.1958 63.7646 55.2517C63.9319 55.2796 64.0434 55.3634 64.0713 55.5589C64.1271 56.1453 64.2944 56.7318 64.2944 57.3462C64.2944 61.7027 64.2944 66.0592 64.2944 70.4158C64.2944 71.4211 64.2944 72.4265 64.0713 73.4039C64.0155 73.7111 63.904 73.9066 63.5973 73.9345C63.43 73.9345 63.2905 73.9625 63.1232 73.9904C62.0079 74.13 61.7848 74.3814 61.8127 75.4984C61.8406 76.1687 61.9521 76.2804 62.5934 76.2804C66.3299 76.1966 70.0385 76.2245 73.775 76.2804C73.9423 76.2804 74.0817 76.2804 74.249 76.2524C74.4999 76.2245 74.6672 76.0849 74.6672 75.8335C74.6672 75.4705 74.6672 75.1075 74.6672 74.7723C74.6672 74.521 74.5557 74.3534 74.2769 74.2976C73.7192 74.1859 73.2173 73.9625 72.6317 73.9904C72.3808 73.9904 72.1298 73.9345 71.9067 73.9066C71.7115 73.8787 71.5442 73.767 71.5721 73.5715C71.6279 72.7337 71.3212 71.9517 71.3212 71.114C71.2933 69.0195 71.2933 67.0088 71.2933 64.998Z" fill="#3C1B63"/>
<path d="M94.6602 64.4117C94.6602 61.3957 94.6323 58.3796 94.6602 55.3635C94.6881 53.0456 95.8035 51.3142 97.7832 50.1413C98.8149 49.5269 99.9582 49.3035 101.157 49.3314C105.005 49.3593 108.881 49.3314 112.729 49.3314C114.569 49.3314 116.382 49.3314 118.222 49.3314C118.641 49.3314 119.059 49.3593 119.505 49.3873C120.648 49.4431 121.652 49.9458 122.516 50.616C123.409 51.3142 124.134 52.1799 124.524 53.3528C124.859 54.3023 124.998 55.2239 124.998 56.2293C124.998 61.9542 124.998 67.6512 124.998 73.3762C124.998 75.3869 124.189 77.0625 122.656 78.3192C121.847 78.9615 120.927 79.4362 119.84 79.6038C119.115 79.7155 118.39 79.7713 117.665 79.7713C112.255 79.7713 106.818 79.7713 101.408 79.7713C99.5399 79.7713 97.839 79.2966 96.5006 77.9282C95.7477 77.1462 95.1342 76.2805 94.8833 75.1635C94.6881 74.3536 94.6323 73.5437 94.6323 72.7059C94.6602 69.8853 94.6602 67.1485 94.6602 64.4117ZM110.721 52.3754C109.467 52.2916 108.1 52.4871 106.734 52.7664C105.312 53.0456 103.973 53.6042 102.774 54.442C101.269 55.5032 100.181 56.8716 99.7909 58.7427C99.4563 60.3345 99.8745 61.6749 100.767 62.9316C101.297 63.6577 101.966 64.2163 102.719 64.691C103.695 65.3054 104.754 65.7801 105.842 66.1153C106.929 66.4225 107.989 66.7296 109.104 67.0089C109.522 67.1206 109.913 67.2323 110.331 67.344C111.363 67.5674 112.311 67.9584 113.064 68.7683C113.817 69.5782 113.677 71.1979 112.896 71.8402C112.171 72.4546 111.335 72.7897 110.415 72.7897C109.271 72.8176 108.184 72.6222 107.069 72.287C105.897 71.9519 104.838 71.5051 103.778 70.9745C103.416 70.8069 103.304 70.5835 103.332 70.1925C103.36 69.8295 103.332 69.4664 103.332 69.1313C103.332 68.9358 103.276 68.6845 103.053 68.6566C102.551 68.5728 102.077 68.3494 101.548 68.3215C101.269 68.3215 101.101 68.4052 101.018 68.7124C100.878 69.2989 100.683 69.9133 100.432 70.4718C100.07 71.2537 99.8467 72.0915 99.4284 72.8456C99.2611 73.1528 99.1495 73.5437 98.9544 73.8509C98.7034 74.2419 98.7871 74.3815 99.2053 74.6049C99.9582 75.0238 100.795 75.331 101.603 75.5544C102.747 75.8616 103.89 76.2247 105.117 76.3085C107.152 76.5039 109.16 76.867 111.223 76.5319C112.394 76.3364 113.566 76.2526 114.653 75.7499C114.737 75.722 114.82 75.6661 114.904 75.6661C115.908 75.4427 116.717 74.8563 117.553 74.3257C118.194 73.9347 118.724 73.4041 119.226 72.8456C120.341 71.533 120.815 70.025 120.899 68.3215C120.927 67.9305 120.676 67.5954 120.676 67.2044C120.704 66.4504 120.314 65.836 119.951 65.2495C119.087 63.8532 117.776 62.9316 116.298 62.2614C115.434 61.8704 114.458 61.7029 113.538 61.3678C112.813 61.1164 112.06 61.1164 111.363 60.8092C111.028 60.6696 110.638 60.5858 110.275 60.4741C109.439 60.2228 108.574 60.0831 107.794 59.6922C107.208 59.385 106.818 58.9381 106.901 58.212C106.957 57.5418 107.32 57.0112 107.905 56.7319C109.048 56.1734 110.275 56.0617 111.558 56.2851C112.729 56.5085 113.9 56.7319 114.988 57.2625C115.35 57.4301 115.741 57.5697 116.019 57.849C116.242 58.0724 116.075 58.4913 116.103 58.8264C116.103 58.8823 116.103 58.9102 116.103 58.9661C116.075 59.2733 116.215 59.4687 116.549 59.5246C116.884 59.5804 117.191 59.6642 117.525 59.7201C117.86 59.7759 118.055 59.6642 118.166 59.3291C118.334 58.9102 118.334 58.4355 118.501 58.0445C119.003 56.8157 119.338 55.5032 120.007 54.3582C120.146 54.1068 120.063 53.9114 119.756 53.7997C119.393 53.66 119.003 53.6321 118.668 53.5204C117.916 53.269 117.107 53.1573 116.354 52.9339C115.434 52.6547 114.458 52.7384 113.51 52.5988C112.618 52.4313 111.753 52.3475 110.721 52.3754Z" fill="#3C1B63"/>
<path d="M94.6601 27.2415C94.6601 24.365 94.6601 21.4886 94.6601 18.6121C94.6601 17.5789 94.7996 16.5735 95.2457 15.6519C95.9707 14.1718 97.1139 13.1665 98.6197 12.5521C99.735 12.0773 100.906 12.0215 102.077 12.0215C107.487 12.0494 112.924 12.0494 118.334 12.0215C119.616 12.0215 120.76 12.4125 121.875 13.0268C122.851 13.5574 123.604 14.2835 124.106 15.233C124.636 16.2105 124.998 17.2437 124.998 18.3887C124.998 24.3371 124.998 30.3134 124.998 36.2617C124.998 37.5463 124.608 38.7472 123.855 39.7525C123.074 40.8138 122.07 41.6795 120.732 42.0984C119.784 42.4056 118.836 42.5452 117.86 42.5452C112.339 42.5452 106.79 42.5452 101.269 42.5452C100.488 42.5452 99.735 42.3218 98.9822 42.1263C97.9505 41.8191 97.1139 41.2606 96.3611 40.5066C95.6361 39.7805 95.1342 38.9427 94.8553 37.9094C94.6601 37.1554 94.6044 36.4293 94.6044 35.6753C94.6601 32.8826 94.6601 30.062 94.6601 27.2415ZM112.59 15.261C111.781 15.2889 110.972 15.2889 110.192 15.2889C109.969 15.2889 109.745 15.2889 109.522 15.3447C108.184 15.7078 106.79 15.9591 105.479 16.4618C104.029 17.0203 102.635 17.7464 101.464 18.7518C100.014 20.0085 98.8428 21.4607 98.1457 23.3038C97.6995 24.5047 97.3928 25.7055 97.3928 26.9901C97.3928 27.7162 97.4207 28.4144 97.4207 29.1405C97.4207 29.8107 97.588 30.4809 97.7832 31.0953C98.0341 31.9331 98.313 32.7709 98.7591 33.5529C99.4004 34.6978 100.209 35.6753 101.157 36.541C102.049 37.3509 103.081 37.9373 104.197 38.4121C105.368 38.8868 106.539 39.2778 107.794 39.3616C108.323 39.3895 108.853 39.4733 109.383 39.4733C110.944 39.5291 112.506 39.4733 114.04 39.1382C115.378 38.8589 116.605 38.3562 117.832 37.7418C119.198 37.0437 120.397 36.0942 121.568 35.1167C121.847 34.8654 121.903 34.5582 121.68 34.2789C121.206 33.6925 120.76 33.106 120.258 32.5196C119.923 32.1565 119.839 32.1845 119.365 32.4637C119.031 32.6592 118.724 32.9664 118.362 33.134C117.441 33.5529 116.633 34.1393 115.629 34.3348C114.848 34.5024 114.095 34.7816 113.287 34.7816C112.59 34.7816 111.893 34.6699 111.195 34.5582C109.467 34.251 108.017 33.4411 106.818 32.2124C105.396 30.7602 104.894 28.917 104.698 26.9622C104.615 26.1523 104.866 25.3704 104.921 24.5884C104.977 24.0858 105.117 23.6389 105.312 23.1921C105.368 23.0804 105.451 22.9687 105.479 22.8291C105.73 22.0192 106.288 21.4048 106.929 20.8742C107.794 20.1481 108.769 19.7013 109.857 19.422C110.972 19.1428 112.088 19.1707 113.175 19.3103C114.291 19.4499 115.378 19.8409 116.382 20.3715C116.884 20.6508 117.33 20.958 117.246 21.6282C117.218 21.7679 117.246 21.9075 117.274 22.0192C117.33 22.3822 117.525 22.5777 117.915 22.5777C118.222 22.5777 118.529 22.6056 118.864 22.6056C119.477 22.6056 119.505 22.5498 119.644 21.9633C119.839 21.0138 120.063 20.0643 120.23 19.0869C120.341 18.3887 120.676 17.7464 120.648 16.9924C120.648 16.6852 120.537 16.4618 120.286 16.4618C119.728 16.406 119.226 16.1267 118.696 15.9871C118.055 15.8474 117.441 15.7357 116.8 15.5682C115.824 15.3168 114.848 15.1772 113.817 15.2051C113.454 15.261 113.008 15.261 112.59 15.261Z" fill="#3C1B63"/>
<path d="M65.856 27.4089C65.8838 26.599 65.9117 25.9009 65.9675 25.2027C65.9954 24.7 66.2185 24.2532 66.3579 23.8064C66.6088 22.8848 67.055 22.047 67.6684 21.293C68.5049 20.2318 69.5088 19.4219 70.9309 19.2264C71.4885 19.1426 72.0462 18.9751 72.6597 19.0309C74.9183 19.1706 76.5634 20.2318 77.6788 22.1866C78.125 22.9686 78.2923 23.8343 78.6826 24.6442C78.7105 24.6721 78.7105 24.728 78.7105 24.7838C78.6826 25.6216 79.0172 26.4036 78.9615 27.2413C78.8778 28.4422 78.7942 29.671 78.3759 30.8439C78.125 31.5141 77.8182 32.1564 77.4836 32.7708C76.8144 33.9996 75.7269 34.7815 74.4721 35.34C74.3048 35.4238 74.0818 35.3959 73.8866 35.4238C73.6356 35.4518 73.4125 35.4518 73.1616 35.5355C72.6876 35.731 72.2135 35.6752 71.7116 35.5635C71.5722 35.5355 71.4049 35.4518 71.2655 35.4518C70.2059 35.4797 69.3694 34.977 68.5886 34.3347C68.2261 34.0554 67.9194 33.6924 67.6405 33.3293C66.9992 32.4078 66.5809 31.4303 66.2185 30.3691C65.8838 29.3079 65.9954 28.3026 65.856 27.4089Z" fill="#3C1B63"/>
</svg>
